<svg width="124" height="48" viewBox="0 0 124 48" fill="none" xmlns="http://www.w3.org/2000/svg">
<path d="M2.48417 32.4746C1.53198 33.0455 0.321045 32.3595 0.321045 31.2494V16.7437C0.321045 15.635 1.52903 14.9489 2.48127 15.5167L14.6117 22.7501C15.5397 23.3034 15.5413 24.6468 14.6146 25.2023L2.48417 32.4746Z" fill="#F5F5F4"/>
<path d="M24.8424 18.4334C25.2418 18.698 25.4819 19.1452 25.4819 19.6243V28.3087C25.4819 28.7869 25.2426 29.2334 24.8444 29.4983L0.961146 45.3819C-0.21647 46.1651 0.33798 48 1.75225 48H16.4822C16.7616 48 17.0348 47.9181 17.2681 47.7644L36.6869 34.9711C37.0881 34.7068 37.3296 34.2585 37.3296 33.7781V14.229C37.3296 13.7448 37.0842 13.2935 36.6778 13.0301L16.9221 0.229666C16.6907 0.0797621 16.4209 -2.59446e-07 16.1453 0L1.76698 1.35319e-05C0.351483 1.48641e-05 -0.202077 1.83753 0.977866 2.61943L24.8424 18.4334Z" fill="#F5F5F4"/>
<path d="M72.5376 19.884V33.324H74.4816V19.884H72.5376ZM69.2976 13.644C69.9936 15.204 70.6176 17.244 70.7616 18.564L72.6576 17.94C72.4656 16.62 71.8416 14.58 71.0736 13.068L69.2976 13.644ZM70.7856 27.42L69.3216 27.948C70.4976 33.708 72.8736 34.884 75.8256 34.884H77.7456C77.8176 34.356 78.0816 33.396 78.3456 32.916C77.7936 32.916 76.4016 32.94 75.9936 32.94C73.7856 32.94 71.7216 32.1 70.7856 27.42ZM73.4016 24.804V26.772H77.6736V24.804H73.4016ZM68.7936 18.66V20.676H77.9136V18.66H68.7936ZM75.2256 12.876C74.9616 14.436 74.3616 16.644 73.8336 18.036L75.6576 18.468C76.2336 17.148 76.8816 15.108 77.4336 13.332L75.2256 12.876ZM69.1296 23.532V25.956C69.1296 28.212 68.9376 31.308 67.1376 33.852C67.6656 34.188 68.3616 34.716 68.6976 35.148C70.6656 32.292 70.8816 28.764 70.8816 25.98V23.532H69.1296ZM66.1776 12.9C65.4096 14.58 64.1856 16.356 62.9616 17.556C63.3696 17.892 64.0896 18.66 64.4016 18.996C65.6976 17.628 67.1136 15.444 68.0496 13.5L66.1776 12.9ZM66.8736 17.748C66.0576 19.788 64.6656 21.804 63.1776 23.124C63.5616 23.508 64.1856 24.396 64.4016 24.78C66.0576 23.196 67.6896 20.724 68.6736 18.276L66.8736 17.748ZM58.9536 12.876C58.4976 14.508 57.5616 16.812 56.7936 18.204L58.3296 18.804C59.1216 17.46 60.1296 15.324 60.9456 13.548L58.9536 12.876ZM61.4976 15.756C60.3456 18.3 58.2576 21.804 56.6256 23.94L57.9456 24.66C59.6496 22.62 61.7616 19.26 63.3456 16.596L61.4976 15.756ZM55.6896 18.084C56.9136 19.26 58.2816 20.94 58.8576 22.092L59.9616 20.244C59.4096 19.188 57.9696 17.604 56.7216 16.476L55.6896 18.084ZM60.5856 21.324C61.4496 22.908 62.2656 25.02 62.5296 26.316L64.2096 25.62C63.9456 24.3 63.0576 22.284 62.1696 20.724L60.5856 21.324ZM55.5216 23.436L55.9296 25.476C57.9696 25.356 60.4416 25.188 62.8896 24.996L62.9616 23.34C60.1776 23.388 57.4416 23.436 55.5216 23.436ZM61.3056 27.18C61.8576 28.692 62.3856 30.66 62.5536 31.932L64.2336 31.428C64.0176 30.156 63.4656 28.212 62.8656 26.724L61.3056 27.18ZM56.6016 26.748C56.4096 28.812 56.0256 30.972 55.3296 32.412C55.7616 32.58 56.5776 32.964 56.9616 33.204C57.6576 31.668 58.1376 29.316 58.4016 27.06L56.6016 26.748ZM58.9296 24.396V35.124H60.8736V24.396H58.9296ZM65.2416 21.9V35.124H67.1856V20.436L66.8496 20.292L65.2416 21.9Z" fill="#F5F5F4"/>
<path d="M83.2176 27.564V35.196H85.4256V29.076H96.6096V35.172H98.9136V27.564H83.2176ZM84.3696 30.276V31.668H97.4496V30.276H84.3696ZM84.3696 32.94V34.452H97.4496V32.94H84.3696ZM89.6736 12.804V26.004H91.9536V12.804H89.6736ZM82.6896 14.412V15.828H96.5376V19.812H82.4256V21.228H98.7936V14.412H82.6896ZM80.1936 16.98V18.612H101.65V16.98H80.1936ZM81.8256 22.356V23.796H99.9696V22.356H81.8256ZM80.1456 24.972V26.604H101.65V24.972H80.1456Z" fill="#F5F5F4"/>
<path d="M107.05 16.332L107.194 18.516C110.722 18.852 114.058 18.852 116.506 18.636C118.498 18.468 120.562 18.06 122.194 17.604L121.882 15.42C120.034 16.02 118.066 16.404 116.002 16.572C113.506 16.788 110.458 16.74 107.05 16.332ZM106.594 21.3L106.738 23.556C110.962 23.844 115.498 23.772 118.498 23.412C120.466 23.196 122.266 22.836 123.634 22.476L123.25 20.244C121.93 20.628 120.058 21.108 117.634 21.348C114.802 21.66 110.794 21.732 106.594 21.3ZM114.73 16.452C115.042 17.628 115.354 18.732 115.954 20.388C116.602 22.26 117.562 24.468 118.882 26.58C118.138 26.484 116.698 26.34 115.522 26.22L115.33 28.044C117.034 28.236 119.434 28.5 120.778 28.812L121.978 27.012C121.594 26.652 121.282 26.316 120.994 25.908C119.794 24.132 118.69 21.732 118.066 19.956C117.466 18.18 116.794 15.9 116.53 13.764L113.986 14.076C114.274 14.868 114.514 15.66 114.73 16.452ZM110.578 26.652L108.226 26.172C107.674 27.276 107.218 28.356 107.242 29.796C107.29 33.036 110.074 34.428 114.802 34.428C116.818 34.428 118.834 34.284 120.514 33.996L120.634 31.596C118.906 31.932 117.034 32.1 114.778 32.1C111.274 32.1 109.546 31.236 109.546 29.34C109.546 28.284 110.002 27.468 110.578 26.652Z" fill="#F5F5F4"/>
</svg>
