<svg width="124" height="48" viewBox="0 0 124 48" fill="none" xmlns="http://www.w3.org/2000/svg">
<path d="M2.17167 32.4746C1.21948 33.0455 0.00854497 32.3595 0.00854497 31.2494V16.7437C0.00854497 15.635 1.21653 14.9489 2.16877 15.5167L14.2992 22.7501C15.2272 23.3034 15.2288 24.6468 14.3021 25.2023L2.17167 32.4746Z" fill="#1C1917"/>
<path d="M24.5299 18.4334C24.9293 18.698 25.1694 19.1452 25.1694 19.6243V28.3087C25.1694 28.7869 24.9301 29.2334 24.5319 29.4983L0.648646 45.3819C-0.52897 46.1651 0.0254797 48 1.43975 48H16.1697C16.4491 48 16.7223 47.9181 16.9556 47.7644L36.3744 34.9711C36.7756 34.7068 37.0171 34.2585 37.0171 33.7781V14.229C37.0171 13.7448 36.7717 13.2935 36.3653 13.0301L16.6096 0.229666C16.3782 0.0797621 16.1084 -2.59446e-07 15.8328 0L1.45448 1.35319e-05C0.0389831 1.48641e-05 -0.514577 1.83753 0.665366 2.61943L24.5299 18.4334Z" fill="#1C1917"/>
<path d="M72.2251 19.884V33.324H74.1691V19.884H72.2251ZM68.9851 13.644C69.6811 15.204 70.3051 17.244 70.4491 18.564L72.3451 17.94C72.1531 16.62 71.5291 14.58 70.7611 13.068L68.9851 13.644ZM70.4731 27.42L69.0091 27.948C70.1851 33.708 72.5611 34.884 75.5131 34.884H77.4331C77.5051 34.356 77.7691 33.396 78.0331 32.916C77.4811 32.916 76.0891 32.94 75.6811 32.94C73.4731 32.94 71.4091 32.1 70.4731 27.42ZM73.0891 24.804V26.772H77.3611V24.804H73.0891ZM68.4811 18.66V20.676H77.6011V18.66H68.4811ZM74.9131 12.876C74.6491 14.436 74.0491 16.644 73.5211 18.036L75.3451 18.468C75.9211 17.148 76.5691 15.108 77.1211 13.332L74.9131 12.876ZM68.8171 23.532V25.956C68.8171 28.212 68.6251 31.308 66.8251 33.852C67.3531 34.188 68.0491 34.716 68.3851 35.148C70.3531 32.292 70.5691 28.764 70.5691 25.98V23.532H68.8171ZM65.8651 12.9C65.0971 14.58 63.8731 16.356 62.6491 17.556C63.0571 17.892 63.7771 18.66 64.0891 18.996C65.3851 17.628 66.8011 15.444 67.7371 13.5L65.8651 12.9ZM66.5611 17.748C65.7451 19.788 64.3531 21.804 62.8651 23.124C63.2491 23.508 63.8731 24.396 64.0891 24.78C65.7451 23.196 67.3771 20.724 68.3611 18.276L66.5611 17.748ZM58.6411 12.876C58.1851 14.508 57.2491 16.812 56.4811 18.204L58.0171 18.804C58.8091 17.46 59.8171 15.324 60.6331 13.548L58.6411 12.876ZM61.1851 15.756C60.0331 18.3 57.9451 21.804 56.3131 23.94L57.6331 24.66C59.3371 22.62 61.4491 19.26 63.0331 16.596L61.1851 15.756ZM55.3771 18.084C56.6011 19.26 57.9691 20.94 58.5451 22.092L59.6491 20.244C59.0971 19.188 57.6571 17.604 56.4091 16.476L55.3771 18.084ZM60.2731 21.324C61.1371 22.908 61.9531 25.02 62.2171 26.316L63.8971 25.62C63.6331 24.3 62.7451 22.284 61.8571 20.724L60.2731 21.324ZM55.2091 23.436L55.6171 25.476C57.6571 25.356 60.1291 25.188 62.5771 24.996L62.6491 23.34C59.8651 23.388 57.1291 23.436 55.2091 23.436ZM60.9931 27.18C61.5451 28.692 62.0731 30.66 62.2411 31.932L63.9211 31.428C63.7051 30.156 63.1531 28.212 62.5531 26.724L60.9931 27.18ZM56.2891 26.748C56.0971 28.812 55.7131 30.972 55.0171 32.412C55.4491 32.58 56.2651 32.964 56.6491 33.204C57.3451 31.668 57.8251 29.316 58.0891 27.06L56.2891 26.748ZM58.6171 24.396V35.124H60.5611V24.396H58.6171ZM64.9291 21.9V35.124H66.8731V20.436L66.5371 20.292L64.9291 21.9Z" fill="#1C1917"/>
<path d="M82.9051 27.564V35.196H85.1131V29.076H96.2971V35.172H98.6011V27.564H82.9051ZM84.0571 30.276V31.668H97.1371V30.276H84.0571ZM84.0571 32.94V34.452H97.1371V32.94H84.0571ZM89.3611 12.804V26.004H91.6411V12.804H89.3611ZM82.3771 14.412V15.828H96.2251V19.812H82.1131V21.228H98.4811V14.412H82.3771ZM79.8811 16.98V18.612H101.337V16.98H79.8811ZM81.5131 22.356V23.796H99.6571V22.356H81.5131ZM79.8331 24.972V26.604H101.337V24.972H79.8331Z" fill="#1C1917"/>
<path d="M106.737 16.332L106.881 18.516C110.409 18.852 113.745 18.852 116.193 18.636C118.185 18.468 120.249 18.06 121.881 17.604L121.569 15.42C119.721 16.02 117.753 16.404 115.689 16.572C113.193 16.788 110.145 16.74 106.737 16.332ZM106.281 21.3L106.425 23.556C110.649 23.844 115.185 23.772 118.185 23.412C120.153 23.196 121.953 22.836 123.321 22.476L122.937 20.244C121.617 20.628 119.745 21.108 117.321 21.348C114.489 21.66 110.481 21.732 106.281 21.3ZM114.417 16.452C114.729 17.628 115.041 18.732 115.641 20.388C116.289 22.26 117.249 24.468 118.569 26.58C117.825 26.484 116.385 26.34 115.209 26.22L115.017 28.044C116.721 28.236 119.121 28.5 120.465 28.812L121.665 27.012C121.281 26.652 120.969 26.316 120.681 25.908C119.481 24.132 118.377 21.732 117.753 19.956C117.153 18.18 116.481 15.9 116.217 13.764L113.673 14.076C113.961 14.868 114.201 15.66 114.417 16.452ZM110.265 26.652L107.913 26.172C107.361 27.276 106.905 28.356 106.929 29.796C106.977 33.036 109.761 34.428 114.489 34.428C116.505 34.428 118.521 34.284 120.201 33.996L120.321 31.596C118.593 31.932 116.721 32.1 114.465 32.1C110.961 32.1 109.233 31.236 109.233 29.34C109.233 28.284 109.689 27.468 110.265 26.652Z" fill="#1C1917"/>
</svg>
