<svg width="150" height="49" viewBox="0 0 150 49" fill="none" xmlns="http://www.w3.org/2000/svg">
<path d="M2.39054 33.0266C1.43835 33.5975 0.227417 32.9115 0.227417 31.8014V17.2957C0.227417 16.187 1.4354 15.5009 2.38764 16.0687L14.5181 23.3021C15.4461 23.8554 15.4476 25.1988 14.521 25.7543L2.39054 33.0266Z" fill="#F5F5F4"/>
<path d="M24.7488 18.9854C25.1482 19.25 25.3883 19.6972 25.3883 20.1763V28.8607C25.3883 29.3389 25.149 29.7854 24.7508 30.0503L0.867518 45.9339C-0.310098 46.7171 0.244352 48.552 1.65862 48.552H16.3886C16.6679 48.552 16.9412 48.4701 17.1745 48.3164L36.5933 35.5231C36.9945 35.2588 37.236 34.8106 37.236 34.3301V14.781C37.236 14.2968 36.9906 13.8455 36.5842 13.5821L16.8284 0.781668C16.5971 0.631764 16.3273 0.552002 16.0516 0.552002L1.67335 0.552015C0.257855 0.552017 -0.295705 2.38954 0.884238 3.17143L24.7488 18.9854Z" fill="#F5F5F4"/>
<path d="M58.506 21.552V6.552H55.236V21.552H58.506ZM58.506 4.002V0.552002H55.236V4.002H58.506Z" fill="#F5F5F4"/>
<path d="M65.7423 21.552H62.4723V6.552H65.7123V8.352C67.3923 7.272 69.0923 6.562 70.8123 6.222V9.492C69.1523 9.812 67.6823 10.252 66.4023 10.812L65.7423 11.082V21.552Z" fill="#F5F5F4"/>
<path d="M84.4121 11.172V18.012C84.4321 18.452 84.5421 18.782 84.7421 19.002C84.9621 19.202 85.2921 19.332 85.7321 19.392L85.6421 21.882C83.9021 21.882 82.5721 21.512 81.6521 20.772C80.0921 21.512 78.4821 21.882 76.8221 21.882C73.8421 21.882 72.3521 20.292 72.3521 17.112C72.3521 15.592 72.7521 14.492 73.5521 13.812C74.3521 13.132 75.6021 12.722 77.3021 12.582L81.1721 12.252V11.172C81.1721 10.372 80.9921 9.812 80.6321 9.492C80.2921 9.172 79.7821 9.012 79.1021 9.012C78.4621 9.012 77.7421 9.032 76.9421 9.072C76.1421 9.112 75.2621 9.172 74.3021 9.252L73.3421 9.312L73.2221 7.002C75.4621 6.482 77.4721 6.222 79.2521 6.222C81.0921 6.222 82.4121 6.612 83.2121 7.392C84.0121 8.172 84.4121 9.432 84.4121 11.172ZM81.1721 14.562L77.6921 14.892C76.3121 15.012 75.6221 15.762 75.6221 17.142C75.6221 18.522 76.2321 19.212 77.4521 19.212C78.4921 19.212 79.5521 19.052 80.6321 18.732L81.1721 18.552V14.562Z" fill="#F5F5F4"/>
<path d="M98.9872 6.912L98.9272 9.642C97.7272 9.482 96.6972 9.362 95.8372 9.282C94.9972 9.202 94.3172 9.162 93.7972 9.162C92.7172 9.162 91.9772 9.292 91.5772 9.552C91.1772 9.792 90.9772 10.182 90.9772 10.722C90.9772 11.262 91.2072 11.642 91.6672 11.862C91.8872 11.962 92.2572 12.082 92.7772 12.222C93.3172 12.342 94.0072 12.472 94.8472 12.612C95.6872 12.752 96.3972 12.932 96.9772 13.152C97.5572 13.372 98.0272 13.662 98.3872 14.022C98.7472 14.362 99.0072 14.802 99.1672 15.342C99.3472 15.862 99.4372 16.512 99.4372 17.292C99.4372 18.872 98.9272 20.032 97.9072 20.772C96.9072 21.512 95.4372 21.882 93.4972 21.882C92.8772 21.882 92.1872 21.832 91.4272 21.732C90.6672 21.652 89.8172 21.532 88.8772 21.372L87.9472 21.222L88.0672 18.492C89.2672 18.652 90.2972 18.772 91.1572 18.852C92.0372 18.932 92.7372 18.972 93.2572 18.972C94.3372 18.972 95.0972 18.842 95.5372 18.582C95.9772 18.322 96.1972 17.892 96.1972 17.292C96.1972 16.692 95.9872 16.272 95.5672 16.032C95.3472 15.932 94.9772 15.822 94.4572 15.702C93.9572 15.562 93.2972 15.422 92.4772 15.282C91.6572 15.142 90.9472 14.982 90.3472 14.802C89.7672 14.602 89.2772 14.342 88.8772 14.022C88.4972 13.682 88.2072 13.262 88.0072 12.762C87.8272 12.262 87.7372 11.622 87.7372 10.842C87.7372 10.062 87.8772 9.392 88.1572 8.832C88.4372 8.252 88.8172 7.772 89.2972 7.392C89.7972 7.012 90.3872 6.732 91.0672 6.552C91.7672 6.352 92.5272 6.252 93.3472 6.252C93.9872 6.252 94.6972 6.292 95.4772 6.372C96.2572 6.452 97.1172 6.572 98.0572 6.732L98.9872 6.912Z" fill="#F5F5F4"/>
<path d="M111.67 18.192V6.552H114.91V21.552H111.67V20.622C110.21 21.462 108.86 21.882 107.62 21.882C106.6 21.882 105.75 21.752 105.07 21.492C104.41 21.232 103.88 20.812 103.48 20.232C103.1 19.632 102.83 18.852 102.67 17.892C102.51 16.932 102.43 15.762 102.43 14.382V6.552H105.7V14.412C105.7 15.312 105.73 16.062 105.79 16.662C105.85 17.242 105.97 17.702 106.15 18.042C106.33 18.382 106.59 18.622 106.93 18.762C107.27 18.902 107.71 18.972 108.25 18.972C109.31 18.972 110.3 18.772 111.22 18.372L111.67 18.192Z" fill="#F5F5F4"/>
<path d="M126.939 6.552V9.342H122.799V15.942C122.799 16.542 122.809 17.042 122.829 17.442C122.869 17.842 122.949 18.152 123.069 18.372C123.189 18.592 123.359 18.752 123.579 18.852C123.799 18.932 124.089 18.972 124.449 18.972L126.909 18.882L127.059 21.492C125.759 21.752 124.739 21.882 123.999 21.882C123.159 21.882 122.449 21.792 121.869 21.612C121.309 21.432 120.849 21.132 120.489 20.712C120.149 20.292 119.909 19.722 119.769 19.002C119.629 18.282 119.559 17.382 119.559 16.302V9.342H117.639V6.552H119.559V2.202H122.799V6.552H126.939Z" fill="#F5F5F4"/>
<path d="M135.591 6.222C137.991 6.222 139.701 6.872 140.721 8.172C141.761 9.472 142.281 11.422 142.281 14.022C142.281 15.322 142.161 16.462 141.921 17.442C141.681 18.422 141.301 19.242 140.781 19.902C140.261 20.562 139.571 21.062 138.711 21.402C137.871 21.722 136.831 21.882 135.591 21.882C134.371 21.882 133.331 21.722 132.471 21.402C131.611 21.062 130.921 20.562 130.401 19.902C129.881 19.242 129.501 18.422 129.261 17.442C129.021 16.462 128.901 15.322 128.901 14.022C128.901 12.842 129.011 11.772 129.231 10.812C129.451 9.852 129.811 9.032 130.311 8.352C130.831 7.672 131.521 7.152 132.381 6.792C133.241 6.412 134.311 6.222 135.591 6.222ZM132.891 17.922C133.331 18.722 134.231 19.122 135.591 19.122C136.251 19.122 136.801 19.032 137.241 18.852C137.681 18.652 138.031 18.342 138.291 17.922C138.551 17.502 138.731 16.972 138.831 16.332C138.931 15.672 138.981 14.892 138.981 13.992C138.981 12.172 138.731 10.882 138.231 10.122C137.751 9.362 136.871 8.982 135.591 8.982C134.311 8.982 133.421 9.362 132.921 10.122C132.441 10.882 132.201 12.172 132.201 13.992C132.201 15.792 132.431 17.102 132.891 17.922Z" fill="#F5F5F4"/>
<path d="M62.166 38.256V42.864C62.202 43.308 62.55 43.572 63.21 43.656L63.156 44.718C62.208 44.718 61.494 44.478 61.014 43.998C59.946 44.478 58.866 44.718 57.774 44.718C56.946 44.718 56.316 44.484 55.884 44.016C55.452 43.548 55.236 42.876 55.236 42C55.236 41.124 55.458 40.482 55.902 40.074C56.346 39.654 57.042 39.396 57.99 39.3L60.816 39.03V38.256C60.816 37.644 60.684 37.206 60.42 36.942C60.156 36.678 59.796 36.546 59.34 36.546C58.86 36.546 58.368 36.564 57.864 36.6C57.372 36.624 56.868 36.666 56.352 36.726L55.794 36.78L55.74 35.754C57.024 35.49 58.194 35.358 59.25 35.358C60.27 35.358 61.008 35.592 61.464 36.06C61.932 36.516 62.166 37.248 62.166 38.256ZM56.622 41.928C56.622 43.032 57.078 43.584 57.99 43.584C58.794 43.584 59.598 43.446 60.402 43.17L60.816 43.026V40.056L58.152 40.308C57.612 40.356 57.222 40.512 56.982 40.776C56.742 41.04 56.622 41.424 56.622 41.928Z" fill="#78716C"/>
<path d="M69.4915 35.538V36.708H66.6295V41.01C66.6295 42.054 66.7075 42.732 66.8635 43.044C67.0075 43.368 67.3615 43.53 67.9255 43.53L69.5275 43.422L69.6175 44.538C69.2095 44.598 68.8495 44.646 68.5375 44.682C68.2375 44.718 67.9855 44.736 67.7815 44.736C67.3135 44.736 66.9175 44.682 66.5935 44.574C66.2815 44.478 66.0295 44.304 65.8375 44.052C65.6455 43.8 65.5075 43.464 65.4235 43.044C65.3395 42.624 65.2975 42.09 65.2975 41.442V36.708H64.0195V35.538H65.2975V32.784H66.6295V35.538H69.4915Z" fill="#78716C"/>
<path d="M75.1132 44.304V35.538H76.4452V44.322C76.4452 44.874 76.4032 45.348 76.3192 45.744C76.2352 46.14 76.0792 46.494 75.8512 46.806C75.6232 47.118 75.3172 47.412 74.9332 47.688C74.5492 47.964 74.0572 48.252 73.4572 48.552L72.9172 47.508C73.3852 47.244 73.7632 47.004 74.0512 46.788C74.3392 46.572 74.5612 46.35 74.7172 46.122C74.8732 45.894 74.9752 45.636 75.0232 45.348C75.0832 45.072 75.1132 44.724 75.1132 44.304ZM76.4452 33.504H75.1132V31.938H76.4452V33.504Z" fill="#78716C"/>
<path d="M78.6367 40.02C78.6367 39.192 78.7027 38.484 78.8347 37.896C78.9787 37.308 79.2067 36.828 79.5187 36.456C79.8307 36.072 80.2327 35.796 80.7247 35.628C81.2167 35.448 81.8107 35.358 82.5067 35.358C83.2027 35.358 83.7907 35.448 84.2707 35.628C84.7627 35.796 85.1587 36.072 85.4587 36.456C85.7707 36.828 85.9927 37.308 86.1247 37.896C86.2687 38.484 86.3407 39.192 86.3407 40.02C86.3407 40.848 86.2747 41.556 86.1427 42.144C86.0227 42.732 85.8127 43.218 85.5127 43.602C85.2127 43.986 84.8167 44.268 84.3247 44.448C83.8327 44.628 83.2207 44.718 82.4887 44.718C81.7567 44.718 81.1447 44.628 80.6527 44.448C80.1607 44.268 79.7647 43.986 79.4647 43.602C79.1647 43.218 78.9487 42.732 78.8167 42.144C78.6967 41.556 78.6367 40.848 78.6367 40.02ZM80.0227 39.984C80.0227 40.644 80.0527 41.202 80.1127 41.658C80.1847 42.102 80.3107 42.468 80.4907 42.756C80.6827 43.032 80.9407 43.236 81.2647 43.368C81.5887 43.488 82.0027 43.548 82.5067 43.548C83.0107 43.548 83.4187 43.488 83.7307 43.368C84.0547 43.248 84.3067 43.05 84.4867 42.774C84.6667 42.486 84.7867 42.12 84.8467 41.676C84.9187 41.22 84.9547 40.662 84.9547 40.002C84.9547 39.342 84.9127 38.79 84.8287 38.346C84.7567 37.902 84.6247 37.548 84.4327 37.284C84.2407 37.008 83.9887 36.816 83.6767 36.708C83.3647 36.588 82.9747 36.528 82.5067 36.528C82.0387 36.528 81.6427 36.588 81.3187 36.708C81.0067 36.816 80.7547 37.008 80.5627 37.284C80.3707 37.548 80.2327 37.902 80.1487 38.346C80.0647 38.778 80.0227 39.324 80.0227 39.984Z" fill="#78716C"/>
<path d="M94.1584 42.846V35.538H95.5084V44.538H94.1584V43.908C93.2584 44.448 92.3704 44.718 91.4944 44.718C90.8824 44.718 90.3784 44.646 89.9824 44.502C89.5864 44.358 89.2744 44.112 89.0464 43.764C88.8304 43.416 88.6744 42.96 88.5784 42.396C88.4944 41.82 88.4524 41.1 88.4524 40.236V35.538H89.8024V40.218C89.8024 40.866 89.8264 41.406 89.8744 41.838C89.9224 42.258 90.0124 42.594 90.1444 42.846C90.2764 43.098 90.4684 43.272 90.7204 43.368C90.9724 43.464 91.2964 43.512 91.6924 43.512C92.0884 43.512 92.4904 43.458 92.8984 43.35C93.3064 43.23 93.6184 43.116 93.8344 43.008L94.1584 42.846Z" fill="#78716C"/>
<path d="M99.5629 44.538V31.614H98.2129V44.538H99.5629Z" fill="#78716C"/>
<path d="M108.391 43.422L108.913 43.368L108.949 44.43C108.265 44.526 107.629 44.598 107.041 44.646C106.465 44.694 105.931 44.718 105.439 44.718C104.143 44.718 103.225 44.346 102.685 43.602C102.145 42.846 101.875 41.676 101.875 40.092C101.875 36.936 103.129 35.358 105.637 35.358C106.861 35.358 107.767 35.7 108.355 36.384C108.955 37.056 109.255 38.118 109.255 39.57L109.183 40.596H103.243C103.243 41.604 103.423 42.348 103.783 42.828C104.143 43.296 104.773 43.53 105.673 43.53C106.573 43.53 107.479 43.494 108.391 43.422ZM103.225 39.516H107.905C107.905 38.412 107.725 37.632 107.365 37.176C107.017 36.72 106.447 36.492 105.655 36.492C104.851 36.492 104.245 36.732 103.837 37.212C103.441 37.692 103.237 38.46 103.225 39.516Z" fill="#78716C"/>
<path d="M113.051 44.538H115.751L118.289 35.538H116.903L114.725 43.368H114.059L111.953 35.538H110.513L113.051 44.538Z" fill="#78716C"/>
<path d="M121.411 44.538V42.486H119.935V44.538H121.411Z" fill="#78716C"/>
<path d="M129.49 31.614H130.822V44.538H129.49V43.926C128.566 44.454 127.654 44.718 126.754 44.718C126.07 44.718 125.518 44.598 125.098 44.358C124.678 44.118 124.348 43.794 124.108 43.386C123.88 42.978 123.724 42.51 123.64 41.982C123.556 41.442 123.514 40.878 123.514 40.29C123.514 38.538 123.802 37.278 124.378 36.51C124.966 35.742 125.932 35.358 127.276 35.358C128.008 35.358 128.746 35.436 129.49 35.592V31.614ZM126.988 43.512C127.156 43.512 127.336 43.5 127.528 43.476C127.732 43.44 127.93 43.398 128.122 43.35C128.326 43.29 128.512 43.23 128.68 43.17C128.86 43.11 129.01 43.056 129.13 43.008L129.49 42.846V36.744C128.722 36.6 128.008 36.528 127.348 36.528C126.436 36.528 125.8 36.816 125.44 37.392C125.08 37.968 124.9 38.874 124.9 40.11C124.9 40.494 124.918 40.89 124.954 41.298C124.99 41.694 125.074 42.06 125.206 42.396C125.35 42.72 125.56 42.99 125.836 43.206C126.124 43.41 126.508 43.512 126.988 43.512Z" fill="#78716C"/>
<path d="M139.557 43.422L140.079 43.368L140.115 44.43C139.431 44.526 138.795 44.598 138.207 44.646C137.631 44.694 137.097 44.718 136.605 44.718C135.309 44.718 134.391 44.346 133.851 43.602C133.311 42.846 133.041 41.676 133.041 40.092C133.041 36.936 134.295 35.358 136.803 35.358C138.027 35.358 138.933 35.7 139.521 36.384C140.121 37.056 140.421 38.118 140.421 39.57L140.349 40.596H134.409C134.409 41.604 134.589 42.348 134.949 42.828C135.309 43.296 135.939 43.53 136.839 43.53C137.739 43.53 138.645 43.494 139.557 43.422ZM134.391 39.516H139.071C139.071 38.412 138.891 37.632 138.531 37.176C138.183 36.72 137.613 36.492 136.821 36.492C136.017 36.492 135.411 36.732 135.003 37.212C134.607 37.692 134.403 38.46 134.391 39.516Z" fill="#78716C"/>
<path d="M144.217 44.538H146.917L149.455 35.538H148.069L145.891 43.368H145.225L143.119 35.538H141.679L144.217 44.538Z" fill="#78716C"/>
</svg>
