<svg width="150" height="49" viewBox="0 0 150 49" fill="none" xmlns="http://www.w3.org/2000/svg">
<path d="M2.16312 33.0266C1.21094 33.5975 4.46666e-08 32.9115 4.46666e-08 31.8014V17.2957C4.46666e-08 16.187 1.20799 15.5009 2.16022 16.0687L14.2907 23.3021C15.2186 23.8554 15.2202 25.1988 14.2936 25.7543L2.16312 33.0266Z" fill="#1C1917"/>
<path d="M24.5214 18.9854C24.9207 19.25 25.1609 19.6972 25.1609 20.1763V28.8607C25.1609 29.3389 24.9216 29.7854 24.5234 30.0503L0.640101 45.9339C-0.537515 46.7171 0.0169348 48.552 1.4312 48.552H16.1611C16.4405 48.552 16.7138 48.4701 16.9471 48.3164L36.3659 35.5231C36.7671 35.2588 37.0085 34.8106 37.0085 34.3301V14.781C37.0085 14.2968 36.7632 13.8455 36.3568 13.5821L16.601 0.781668C16.3697 0.631764 16.0999 0.552002 15.8242 0.552002L1.44593 0.552015C0.0304382 0.552017 -0.523122 2.38954 0.656821 3.17143L24.5214 18.9854Z" fill="#1C1917"/>
<path d="M58.2785 21.552V6.552H55.0085V21.552H58.2785ZM58.2785 4.002V0.552002H55.0085V4.002H58.2785Z" fill="#1C1917"/>
<path d="M65.5149 21.552H62.2449V6.552H65.4849V8.352C67.1649 7.272 68.8649 6.562 70.5849 6.222V9.492C68.9249 9.812 67.4549 10.252 66.1749 10.812L65.5149 11.082V21.552Z" fill="#1C1917"/>
<path d="M84.1847 11.172V18.012C84.2047 18.452 84.3147 18.782 84.5147 19.002C84.7347 19.202 85.0647 19.332 85.5047 19.392L85.4147 21.882C83.6747 21.882 82.3447 21.512 81.4247 20.772C79.8647 21.512 78.2547 21.882 76.5947 21.882C73.6147 21.882 72.1247 20.292 72.1247 17.112C72.1247 15.592 72.5247 14.492 73.3247 13.812C74.1247 13.132 75.3747 12.722 77.0747 12.582L80.9447 12.252V11.172C80.9447 10.372 80.7647 9.812 80.4047 9.492C80.0647 9.172 79.5547 9.012 78.8747 9.012C78.2347 9.012 77.5147 9.032 76.7147 9.072C75.9147 9.112 75.0347 9.172 74.0747 9.252L73.1147 9.312L72.9947 7.002C75.2347 6.482 77.2447 6.222 79.0247 6.222C80.8647 6.222 82.1847 6.612 82.9847 7.392C83.7847 8.172 84.1847 9.432 84.1847 11.172ZM80.9447 14.562L77.4647 14.892C76.0847 15.012 75.3947 15.762 75.3947 17.142C75.3947 18.522 76.0047 19.212 77.2247 19.212C78.2647 19.212 79.3247 19.052 80.4047 18.732L80.9447 18.552V14.562Z" fill="#1C1917"/>
<path d="M98.7598 6.912L98.6998 9.642C97.4998 9.482 96.4698 9.362 95.6098 9.282C94.7698 9.202 94.0898 9.162 93.5698 9.162C92.4898 9.162 91.7498 9.292 91.3498 9.552C90.9498 9.792 90.7498 10.182 90.7498 10.722C90.7498 11.262 90.9798 11.642 91.4398 11.862C91.6598 11.962 92.0298 12.082 92.5498 12.222C93.0898 12.342 93.7798 12.472 94.6198 12.612C95.4598 12.752 96.1698 12.932 96.7498 13.152C97.3298 13.372 97.7998 13.662 98.1598 14.022C98.5198 14.362 98.7798 14.802 98.9398 15.342C99.1198 15.862 99.2098 16.512 99.2098 17.292C99.2098 18.872 98.6998 20.032 97.6798 20.772C96.6798 21.512 95.2098 21.882 93.2698 21.882C92.6498 21.882 91.9598 21.832 91.1998 21.732C90.4398 21.652 89.5898 21.532 88.6498 21.372L87.7198 21.222L87.8398 18.492C89.0398 18.652 90.0698 18.772 90.9298 18.852C91.8098 18.932 92.5098 18.972 93.0298 18.972C94.1098 18.972 94.8698 18.842 95.3098 18.582C95.7498 18.322 95.9698 17.892 95.9698 17.292C95.9698 16.692 95.7598 16.272 95.3398 16.032C95.1198 15.932 94.7498 15.822 94.2298 15.702C93.7298 15.562 93.0698 15.422 92.2498 15.282C91.4298 15.142 90.7198 14.982 90.1198 14.802C89.5398 14.602 89.0498 14.342 88.6498 14.022C88.2698 13.682 87.9798 13.262 87.7798 12.762C87.5998 12.262 87.5098 11.622 87.5098 10.842C87.5098 10.062 87.6498 9.392 87.9298 8.832C88.2098 8.252 88.5898 7.772 89.0698 7.392C89.5698 7.012 90.1598 6.732 90.8398 6.552C91.5398 6.352 92.2998 6.252 93.1198 6.252C93.7598 6.252 94.4698 6.292 95.2498 6.372C96.0298 6.452 96.8898 6.572 97.8298 6.732L98.7598 6.912Z" fill="#1C1917"/>
<path d="M111.442 18.192V6.552H114.682V21.552H111.442V20.622C109.982 21.462 108.632 21.882 107.392 21.882C106.372 21.882 105.522 21.752 104.842 21.492C104.182 21.232 103.652 20.812 103.252 20.232C102.872 19.632 102.602 18.852 102.442 17.892C102.282 16.932 102.202 15.762 102.202 14.382V6.552H105.472V14.412C105.472 15.312 105.502 16.062 105.562 16.662C105.622 17.242 105.742 17.702 105.922 18.042C106.102 18.382 106.362 18.622 106.702 18.762C107.042 18.902 107.482 18.972 108.022 18.972C109.082 18.972 110.072 18.772 110.992 18.372L111.442 18.192Z" fill="#1C1917"/>
<path d="M126.711 6.552V9.342H122.571V15.942C122.571 16.542 122.581 17.042 122.601 17.442C122.641 17.842 122.721 18.152 122.841 18.372C122.961 18.592 123.131 18.752 123.351 18.852C123.571 18.932 123.861 18.972 124.221 18.972L126.681 18.882L126.831 21.492C125.531 21.752 124.511 21.882 123.771 21.882C122.931 21.882 122.221 21.792 121.641 21.612C121.081 21.432 120.621 21.132 120.261 20.712C119.921 20.292 119.681 19.722 119.541 19.002C119.401 18.282 119.331 17.382 119.331 16.302V9.342H117.411V6.552H119.331V2.202H122.571V6.552H126.711Z" fill="#1C1917"/>
<path d="M135.363 6.222C137.763 6.222 139.473 6.872 140.493 8.172C141.533 9.472 142.053 11.422 142.053 14.022C142.053 15.322 141.933 16.462 141.693 17.442C141.453 18.422 141.073 19.242 140.553 19.902C140.033 20.562 139.343 21.062 138.483 21.402C137.643 21.722 136.603 21.882 135.363 21.882C134.143 21.882 133.103 21.722 132.243 21.402C131.383 21.062 130.693 20.562 130.173 19.902C129.653 19.242 129.273 18.422 129.033 17.442C128.793 16.462 128.673 15.322 128.673 14.022C128.673 12.842 128.783 11.772 129.003 10.812C129.223 9.852 129.583 9.032 130.083 8.352C130.603 7.672 131.293 7.152 132.153 6.792C133.013 6.412 134.083 6.222 135.363 6.222ZM132.663 17.922C133.103 18.722 134.003 19.122 135.363 19.122C136.023 19.122 136.573 19.032 137.013 18.852C137.453 18.652 137.803 18.342 138.063 17.922C138.323 17.502 138.503 16.972 138.603 16.332C138.703 15.672 138.753 14.892 138.753 13.992C138.753 12.172 138.503 10.882 138.003 10.122C137.523 9.362 136.643 8.982 135.363 8.982C134.083 8.982 133.193 9.362 132.693 10.122C132.213 10.882 131.973 12.172 131.973 13.992C131.973 15.792 132.203 17.102 132.663 17.922Z" fill="#1C1917"/>
<path d="M61.9385 38.256V42.864C61.9745 43.308 62.3225 43.572 62.9825 43.656L62.9285 44.718C61.9805 44.718 61.2665 44.478 60.7865 43.998C59.7185 44.478 58.6385 44.718 57.5465 44.718C56.7185 44.718 56.0885 44.484 55.6565 44.016C55.2245 43.548 55.0085 42.876 55.0085 42C55.0085 41.124 55.2305 40.482 55.6745 40.074C56.1185 39.654 56.8145 39.396 57.7625 39.3L60.5885 39.03V38.256C60.5885 37.644 60.4565 37.206 60.1925 36.942C59.9285 36.678 59.5685 36.546 59.1125 36.546C58.6325 36.546 58.1405 36.564 57.6365 36.6C57.1445 36.624 56.6405 36.666 56.1245 36.726L55.5665 36.78L55.5125 35.754C56.7965 35.49 57.9665 35.358 59.0225 35.358C60.0425 35.358 60.7805 35.592 61.2365 36.06C61.7045 36.516 61.9385 37.248 61.9385 38.256ZM56.3945 41.928C56.3945 43.032 56.8505 43.584 57.7625 43.584C58.5665 43.584 59.3705 43.446 60.1745 43.17L60.5885 43.026V40.056L57.9245 40.308C57.3845 40.356 56.9945 40.512 56.7545 40.776C56.5145 41.04 56.3945 41.424 56.3945 41.928Z" fill="#78716C"/>
<path d="M69.2641 35.538V36.708H66.4021V41.01C66.4021 42.054 66.4801 42.732 66.6361 43.044C66.7801 43.368 67.1341 43.53 67.6981 43.53L69.3001 43.422L69.3901 44.538C68.9821 44.598 68.6221 44.646 68.3101 44.682C68.0101 44.718 67.7581 44.736 67.5541 44.736C67.0861 44.736 66.6901 44.682 66.3661 44.574C66.0541 44.478 65.8021 44.304 65.6101 44.052C65.4181 43.8 65.2801 43.464 65.1961 43.044C65.1121 42.624 65.0701 42.09 65.0701 41.442V36.708H63.7921V35.538H65.0701V32.784H66.4021V35.538H69.2641Z" fill="#78716C"/>
<path d="M74.8857 44.304V35.538H76.2177V44.322C76.2177 44.874 76.1757 45.348 76.0917 45.744C76.0077 46.14 75.8517 46.494 75.6237 46.806C75.3957 47.118 75.0897 47.412 74.7057 47.688C74.3217 47.964 73.8297 48.252 73.2297 48.552L72.6897 47.508C73.1577 47.244 73.5357 47.004 73.8237 46.788C74.1117 46.572 74.3337 46.35 74.4897 46.122C74.6457 45.894 74.7477 45.636 74.7957 45.348C74.8557 45.072 74.8857 44.724 74.8857 44.304ZM76.2177 33.504H74.8857V31.938H76.2177V33.504Z" fill="#78716C"/>
<path d="M78.4092 40.02C78.4092 39.192 78.4752 38.484 78.6072 37.896C78.7512 37.308 78.9792 36.828 79.2912 36.456C79.6032 36.072 80.0052 35.796 80.4972 35.628C80.9892 35.448 81.5832 35.358 82.2792 35.358C82.9752 35.358 83.5632 35.448 84.0432 35.628C84.5352 35.796 84.9312 36.072 85.2312 36.456C85.5432 36.828 85.7652 37.308 85.8972 37.896C86.0412 38.484 86.1132 39.192 86.1132 40.02C86.1132 40.848 86.0472 41.556 85.9152 42.144C85.7952 42.732 85.5852 43.218 85.2852 43.602C84.9852 43.986 84.5892 44.268 84.0972 44.448C83.6052 44.628 82.9932 44.718 82.2612 44.718C81.5292 44.718 80.9172 44.628 80.4252 44.448C79.9332 44.268 79.5372 43.986 79.2372 43.602C78.9372 43.218 78.7212 42.732 78.5892 42.144C78.4692 41.556 78.4092 40.848 78.4092 40.02ZM79.7952 39.984C79.7952 40.644 79.8252 41.202 79.8852 41.658C79.9572 42.102 80.0832 42.468 80.2632 42.756C80.4552 43.032 80.7132 43.236 81.0372 43.368C81.3612 43.488 81.7752 43.548 82.2792 43.548C82.7832 43.548 83.1912 43.488 83.5032 43.368C83.8272 43.248 84.0792 43.05 84.2592 42.774C84.4392 42.486 84.5592 42.12 84.6192 41.676C84.6912 41.22 84.7272 40.662 84.7272 40.002C84.7272 39.342 84.6852 38.79 84.6012 38.346C84.5292 37.902 84.3972 37.548 84.2052 37.284C84.0132 37.008 83.7612 36.816 83.4492 36.708C83.1372 36.588 82.7472 36.528 82.2792 36.528C81.8112 36.528 81.4152 36.588 81.0912 36.708C80.7792 36.816 80.5272 37.008 80.3352 37.284C80.1432 37.548 80.0052 37.902 79.9212 38.346C79.8372 38.778 79.7952 39.324 79.7952 39.984Z" fill="#78716C"/>
<path d="M93.931 42.846V35.538H95.281V44.538H93.931V43.908C93.031 44.448 92.143 44.718 91.267 44.718C90.655 44.718 90.151 44.646 89.755 44.502C89.359 44.358 89.047 44.112 88.819 43.764C88.603 43.416 88.447 42.96 88.351 42.396C88.267 41.82 88.225 41.1 88.225 40.236V35.538H89.575V40.218C89.575 40.866 89.599 41.406 89.647 41.838C89.695 42.258 89.785 42.594 89.917 42.846C90.049 43.098 90.241 43.272 90.493 43.368C90.745 43.464 91.069 43.512 91.465 43.512C91.861 43.512 92.263 43.458 92.671 43.35C93.079 43.23 93.391 43.116 93.607 43.008L93.931 42.846Z" fill="#78716C"/>
<path d="M99.3355 44.538V31.614H97.9855V44.538H99.3355Z" fill="#78716C"/>
<path d="M108.164 43.422L108.686 43.368L108.722 44.43C108.038 44.526 107.402 44.598 106.814 44.646C106.238 44.694 105.704 44.718 105.212 44.718C103.916 44.718 102.998 44.346 102.458 43.602C101.918 42.846 101.648 41.676 101.648 40.092C101.648 36.936 102.902 35.358 105.41 35.358C106.634 35.358 107.54 35.7 108.128 36.384C108.728 37.056 109.028 38.118 109.028 39.57L108.956 40.596H103.016C103.016 41.604 103.196 42.348 103.556 42.828C103.916 43.296 104.546 43.53 105.446 43.53C106.346 43.53 107.252 43.494 108.164 43.422ZM102.998 39.516H107.678C107.678 38.412 107.498 37.632 107.138 37.176C106.79 36.72 106.22 36.492 105.428 36.492C104.624 36.492 104.018 36.732 103.61 37.212C103.214 37.692 103.01 38.46 102.998 39.516Z" fill="#78716C"/>
<path d="M112.823 44.538H115.523L118.061 35.538H116.675L114.497 43.368H113.831L111.725 35.538H110.285L112.823 44.538Z" fill="#78716C"/>
<path d="M121.183 44.538V42.486H119.707V44.538H121.183Z" fill="#78716C"/>
<path d="M129.262 31.614H130.594V44.538H129.262V43.926C128.338 44.454 127.426 44.718 126.526 44.718C125.842 44.718 125.29 44.598 124.87 44.358C124.45 44.118 124.12 43.794 123.88 43.386C123.652 42.978 123.496 42.51 123.412 41.982C123.328 41.442 123.286 40.878 123.286 40.29C123.286 38.538 123.574 37.278 124.15 36.51C124.738 35.742 125.704 35.358 127.048 35.358C127.78 35.358 128.518 35.436 129.262 35.592V31.614ZM126.76 43.512C126.928 43.512 127.108 43.5 127.3 43.476C127.504 43.44 127.702 43.398 127.894 43.35C128.098 43.29 128.284 43.23 128.452 43.17C128.632 43.11 128.782 43.056 128.902 43.008L129.262 42.846V36.744C128.494 36.6 127.78 36.528 127.12 36.528C126.208 36.528 125.572 36.816 125.212 37.392C124.852 37.968 124.672 38.874 124.672 40.11C124.672 40.494 124.69 40.89 124.726 41.298C124.762 41.694 124.846 42.06 124.978 42.396C125.122 42.72 125.332 42.99 125.608 43.206C125.896 43.41 126.28 43.512 126.76 43.512Z" fill="#78716C"/>
<path d="M139.33 43.422L139.852 43.368L139.888 44.43C139.204 44.526 138.568 44.598 137.98 44.646C137.404 44.694 136.87 44.718 136.378 44.718C135.082 44.718 134.164 44.346 133.624 43.602C133.084 42.846 132.814 41.676 132.814 40.092C132.814 36.936 134.068 35.358 136.576 35.358C137.8 35.358 138.706 35.7 139.294 36.384C139.894 37.056 140.194 38.118 140.194 39.57L140.122 40.596H134.182C134.182 41.604 134.362 42.348 134.722 42.828C135.082 43.296 135.712 43.53 136.612 43.53C137.512 43.53 138.418 43.494 139.33 43.422ZM134.164 39.516H138.844C138.844 38.412 138.664 37.632 138.304 37.176C137.956 36.72 137.386 36.492 136.594 36.492C135.79 36.492 135.184 36.732 134.776 37.212C134.38 37.692 134.176 38.46 134.164 39.516Z" fill="#78716C"/>
<path d="M143.989 44.538H146.689L149.227 35.538H147.841L145.663 43.368H144.997L142.891 35.538H141.451L143.989 44.538Z" fill="#78716C"/>
</svg>
