<svg width="100" height="49" viewBox="0 0 100 49" fill="none" xmlns="http://www.w3.org/2000/svg">
<path d="M2.76285 33.0266C1.81067 33.5975 0.599731 32.9115 0.599731 31.8014V17.2957C0.599731 16.187 1.80772 15.5009 2.75996 16.0687L14.8904 23.3021C15.8184 23.8554 15.82 25.1988 14.8933 25.7543L2.76285 33.0266Z" fill="#F5F5F4"/>
<path d="M25.1211 18.9854C25.5205 19.25 25.7606 19.6972 25.7606 20.1763V28.8607C25.7606 29.3389 25.5213 29.7854 25.1231 30.0503L1.23983 45.9339C0.0622164 46.7171 0.616666 48.552 2.03093 48.552H16.7609C17.0403 48.552 17.3135 48.4701 17.5468 48.3164L36.9656 35.5231C37.3668 35.2588 37.6083 34.8106 37.6083 34.3301V14.781C37.6083 14.2968 37.3629 13.8455 36.9565 13.5821L17.2008 0.781668C16.9694 0.631764 16.6996 0.552002 16.4239 0.552002L2.04566 0.552015C0.63017 0.552017 0.0766098 2.38954 1.25655 3.17143L25.1211 18.9854Z" fill="#F5F5F4"/>
<path d="M58.8783 35.172V13.932H55.6083V35.172H58.8783Z" fill="#F5F5F4"/>
<path d="M66.2862 35.172V20.172H63.0162V35.172H66.2862ZM66.2862 17.622V14.172H63.0162V17.622H66.2862Z" fill="#F5F5F4"/>
<path d="M73.5225 23.532V35.172H70.2525V20.172H73.4925V21.102C74.9725 20.262 76.3525 19.842 77.6325 19.842C78.6325 19.842 79.4625 19.982 80.1225 20.262C80.7825 20.522 81.3125 20.952 81.7125 21.552C82.1125 22.132 82.3925 22.882 82.5525 23.802C82.7325 24.722 82.8225 25.832 82.8225 27.132V35.172H79.5825V27.222C79.5825 26.402 79.5425 25.712 79.4625 25.152C79.3825 24.592 79.2425 24.132 79.0425 23.772C78.8625 23.412 78.5925 23.152 78.2325 22.992C77.8925 22.832 77.4525 22.752 76.9125 22.752C75.9125 22.752 74.9325 22.952 73.9725 23.352L73.5225 23.532Z" fill="#F5F5F4"/>
<path d="M89.8994 29.052L91.8494 28.842L95.5094 35.172H99.1994L94.6395 27.192L98.9594 20.172H95.2994L91.7594 26.022L89.8994 26.202V13.932H86.6294V35.172H89.8994V29.052Z" fill="#F5F5F4"/>
</svg>
