<svg width="170" height="48" viewBox="0 0 170 48" fill="none" xmlns="http://www.w3.org/2000/svg">
<path d="M3.03898 32.4746C2.08679 33.0455 0.875855 32.3595 0.875855 31.2494V16.7437C0.875855 15.635 2.08384 14.9489 3.03608 15.5167L15.1665 22.7501C16.0945 23.3034 16.0961 24.6468 15.1694 25.2023L3.03898 32.4746Z" fill="#F5F5F4"/>
<path d="M25.3973 18.4334C25.7966 18.698 26.0367 19.1452 26.0367 19.6243V28.3087C26.0367 28.7869 25.7974 29.2334 25.3992 29.4983L1.51596 45.3819C0.338339 46.1651 0.892789 48 2.30706 48H17.037C17.3164 48 17.5896 47.9181 17.8229 47.7644L37.2417 34.9711C37.6429 34.7068 37.8844 34.2585 37.8844 33.7781V14.229C37.8844 13.7448 37.6391 13.2935 37.2326 13.0301L17.4769 0.229666C17.2455 0.0797621 16.9757 -2.59446e-07 16.7001 0L2.32179 1.35319e-05C0.906293 1.48641e-05 0.352733 1.83753 1.53268 2.61943L25.3973 18.4334Z" fill="#F5F5F4"/>
<path d="M59.0644 21.24H64.2544L66.5944 10.95L68.9344 21.24H74.1244L77.3044 6.24H74.0644L71.7244 18.45H71.1244L68.2744 6.54H64.9144L62.0644 18.45H61.4644L59.0944 6.24H55.8844L59.0644 21.24Z" fill="#F5F5F4"/>
<path d="M90.7617 18.54L91.6017 18.45L91.6617 20.88C90.5217 21.1 89.4517 21.27 88.4517 21.39C87.4517 21.51 86.5017 21.57 85.6017 21.57C83.3817 21.57 81.7817 20.96 80.8017 19.74C79.8417 18.52 79.3617 16.57 79.3617 13.89C79.3617 8.57 81.5317 5.91 85.8717 5.91C90.0717 5.91 92.1717 8.2 92.1717 12.78L91.9617 15.12H82.6617C82.6817 16.36 82.9517 17.27 83.4717 17.85C83.9917 18.43 84.9617 18.72 86.3817 18.72C87.8017 18.72 89.2617 18.66 90.7617 18.54ZM82.6317 12.6H88.9617C88.9617 11.1 88.7317 10.06 88.2717 9.48C87.8117 8.9 87.0117 8.61 85.8717 8.61C84.7317 8.61 83.9117 8.92 83.4117 9.54C82.9117 10.14 82.6517 11.16 82.6317 12.6Z" fill="#F5F5F4"/>
<path d="M102.306 5.91C103.326 5.91 104.206 6.05 104.946 6.33C105.686 6.59 106.286 7.03 106.746 7.65C107.226 8.25 107.576 9.05 107.796 10.05C108.016 11.05 108.126 12.28 108.126 13.74C108.126 15.2 107.996 16.43 107.736 17.43C107.496 18.43 107.086 19.24 106.506 19.86C105.926 20.46 105.166 20.9 104.226 21.18C103.306 21.44 102.166 21.57 100.806 21.57C99.8661 21.57 98.3761 21.48 96.3361 21.3L95.3161 21.21V0H98.5561V6.81C99.9361 6.21 101.186 5.91 102.306 5.91ZM100.806 18.66C101.606 18.66 102.266 18.57 102.786 18.39C103.306 18.21 103.716 17.93 104.016 17.55C104.316 17.15 104.516 16.64 104.616 16.02C104.736 15.38 104.796 14.61 104.796 13.71C104.796 11.91 104.566 10.65 104.106 9.93C103.666 9.19 102.936 8.82 101.916 8.82C100.956 8.82 99.9961 8.97 99.0361 9.27L98.5561 9.42V18.54C99.1161 18.58 99.5761 18.61 99.9361 18.63C100.316 18.65 100.606 18.66 100.806 18.66Z" fill="#F5F5F4"/>
<path d="M122.5 10.86V17.7C122.52 18.14 122.63 18.47 122.83 18.69C123.05 18.89 123.38 19.02 123.82 19.08L123.73 21.57C121.99 21.57 120.66 21.2 119.74 20.46C118.18 21.2 116.57 21.57 114.91 21.57C111.93 21.57 110.44 19.98 110.44 16.8C110.44 15.28 110.84 14.18 111.64 13.5C112.44 12.82 113.69 12.41 115.39 12.27L119.26 11.94V10.86C119.26 10.06 119.08 9.5 118.72 9.18C118.38 8.86 117.87 8.7 117.19 8.7C116.55 8.7 115.83 8.72 115.03 8.76C114.23 8.8 113.35 8.86 112.39 8.94L111.43 9L111.31 6.69C113.55 6.17 115.56 5.91 117.34 5.91C119.18 5.91 120.5 6.3 121.3 7.08C122.1 7.86 122.5 9.12 122.5 10.86ZM119.26 14.25L115.78 14.58C114.4 14.7 113.71 15.45 113.71 16.83C113.71 18.21 114.32 18.9 115.54 18.9C116.58 18.9 117.64 18.74 118.72 18.42L119.26 18.24V14.25Z" fill="#F5F5F4"/>
<path d="M129.875 27.69H126.605V6.24H129.845V7.17C131.225 6.33 132.515 5.91 133.715 5.91C134.715 5.91 135.575 6.06 136.295 6.36C137.015 6.64 137.605 7.1 138.065 7.74C138.525 8.36 138.865 9.17 139.085 10.17C139.325 11.17 139.445 12.38 139.445 13.8C139.445 15.22 139.315 16.43 139.055 17.43C138.815 18.41 138.425 19.21 137.885 19.83C137.345 20.43 136.645 20.87 135.785 21.15C134.945 21.43 133.925 21.57 132.725 21.57C131.905 21.57 130.955 21.48 129.875 21.3V27.69ZM133.145 8.82C132.205 8.82 131.265 9.03 130.325 9.45L129.875 9.66V18.51C130.275 18.59 130.695 18.65 131.135 18.69C131.575 18.73 132.035 18.75 132.515 18.75C133.195 18.75 133.765 18.66 134.225 18.48C134.685 18.28 135.055 17.98 135.335 17.58C135.615 17.16 135.815 16.63 135.935 15.99C136.055 15.33 136.115 14.53 136.115 13.59C136.115 10.41 135.125 8.82 133.145 8.82Z" fill="#F5F5F4"/>
<path d="M145.988 27.69H142.718V6.24H145.958V7.17C147.338 6.33 148.628 5.91 149.828 5.91C150.828 5.91 151.688 6.06 152.408 6.36C153.128 6.64 153.718 7.1 154.178 7.74C154.638 8.36 154.978 9.17 155.198 10.17C155.438 11.17 155.558 12.38 155.558 13.8C155.558 15.22 155.428 16.43 155.168 17.43C154.928 18.41 154.538 19.21 153.998 19.83C153.458 20.43 152.758 20.87 151.898 21.15C151.058 21.43 150.038 21.57 148.838 21.57C148.018 21.57 147.068 21.48 145.988 21.3V27.69ZM149.258 8.82C148.318 8.82 147.378 9.03 146.438 9.45L145.988 9.66V18.51C146.388 18.59 146.808 18.65 147.248 18.69C147.688 18.73 148.148 18.75 148.628 18.75C149.308 18.75 149.878 18.66 150.338 18.48C150.798 18.28 151.168 17.98 151.448 17.58C151.728 17.16 151.928 16.63 152.048 15.99C152.168 15.33 152.228 14.53 152.228 13.59C152.228 10.41 151.238 8.82 149.258 8.82Z" fill="#F5F5F4"/>
<path d="M169.302 6.6L169.242 9.33C168.042 9.17 167.012 9.05 166.152 8.97C165.312 8.89 164.632 8.85 164.112 8.85C163.032 8.85 162.292 8.98 161.892 9.24C161.492 9.48 161.292 9.87 161.292 10.41C161.292 10.95 161.522 11.33 161.982 11.55C162.202 11.65 162.572 11.77 163.092 11.91C163.632 12.03 164.322 12.16 165.162 12.3C166.002 12.44 166.712 12.62 167.292 12.84C167.872 13.06 168.342 13.35 168.702 13.71C169.062 14.05 169.322 14.49 169.482 15.03C169.662 15.55 169.752 16.2 169.752 16.98C169.752 18.56 169.242 19.72 168.222 20.46C167.222 21.2 165.752 21.57 163.812 21.57C163.192 21.57 162.502 21.52 161.742 21.42C160.982 21.34 160.132 21.22 159.192 21.06L158.262 20.91L158.382 18.18C159.582 18.34 160.612 18.46 161.472 18.54C162.352 18.62 163.052 18.66 163.572 18.66C164.652 18.66 165.412 18.53 165.852 18.27C166.292 18.01 166.512 17.58 166.512 16.98C166.512 16.38 166.302 15.96 165.882 15.72C165.662 15.62 165.292 15.51 164.772 15.39C164.272 15.25 163.612 15.11 162.792 14.97C161.972 14.83 161.262 14.67 160.662 14.49C160.082 14.29 159.592 14.03 159.192 13.71C158.812 13.37 158.522 12.95 158.322 12.45C158.142 11.95 158.052 11.31 158.052 10.53C158.052 9.75 158.192 9.08 158.472 8.52C158.752 7.94 159.132 7.46 159.612 7.08C160.112 6.7 160.702 6.42 161.382 6.24C162.082 6.04 162.842 5.94 163.662 5.94C164.302 5.94 165.012 5.98 165.792 6.06C166.572 6.14 167.432 6.26 168.372 6.42L169.302 6.6Z" fill="#F5F5F4"/>
<path d="M62.8144 37.704V42.312C62.8504 42.756 63.1984 43.02 63.8584 43.104L63.8044 44.166C62.8564 44.166 62.1424 43.926 61.6624 43.446C60.5944 43.926 59.5144 44.166 58.4224 44.166C57.5944 44.166 56.9644 43.932 56.5324 43.464C56.1004 42.996 55.8844 42.324 55.8844 41.448C55.8844 40.572 56.1064 39.93 56.5504 39.522C56.9944 39.102 57.6904 38.844 58.6384 38.748L61.4644 38.478V37.704C61.4644 37.092 61.3324 36.654 61.0684 36.39C60.8044 36.126 60.4444 35.994 59.9884 35.994C59.5084 35.994 59.0164 36.012 58.5124 36.048C58.0204 36.072 57.5164 36.114 57.0004 36.174L56.4424 36.228L56.3884 35.202C57.6724 34.938 58.8424 34.806 59.8984 34.806C60.9184 34.806 61.6564 35.04 62.1124 35.508C62.5804 35.964 62.8144 36.696 62.8144 37.704ZM57.2704 41.376C57.2704 42.48 57.7264 43.032 58.6384 43.032C59.4424 43.032 60.2464 42.894 61.0504 42.618L61.4644 42.474V39.504L58.8004 39.756C58.2604 39.804 57.8704 39.96 57.6304 40.224C57.3904 40.488 57.2704 40.872 57.2704 41.376Z" fill="#78716C"/>
<path d="M70.14 34.986V36.156H67.278V40.458C67.278 41.502 67.356 42.18 67.512 42.492C67.656 42.816 68.01 42.978 68.574 42.978L70.176 42.87L70.266 43.986C69.858 44.046 69.498 44.094 69.186 44.13C68.886 44.166 68.634 44.184 68.43 44.184C67.962 44.184 67.566 44.13 67.242 44.022C66.93 43.926 66.678 43.752 66.486 43.5C66.294 43.248 66.156 42.912 66.072 42.492C65.988 42.072 65.946 41.538 65.946 40.89V36.156H64.668V34.986H65.946V32.232H67.278V34.986H70.14Z" fill="#78716C"/>
<path d="M75.7616 43.752V34.986H77.0936V43.77C77.0936 44.322 77.0516 44.796 76.9676 45.192C76.8836 45.588 76.7276 45.942 76.4996 46.254C76.2716 46.566 75.9656 46.86 75.5816 47.136C75.1976 47.412 74.7056 47.7 74.1056 48L73.5656 46.956C74.0336 46.692 74.4116 46.452 74.6996 46.236C74.9876 46.02 75.2096 45.798 75.3656 45.57C75.5216 45.342 75.6236 45.084 75.6716 44.796C75.7316 44.52 75.7616 44.172 75.7616 43.752ZM77.0936 32.952H75.7616V31.386H77.0936V32.952Z" fill="#78716C"/>
<path d="M79.2851 39.468C79.2851 38.64 79.3511 37.932 79.4831 37.344C79.6271 36.756 79.8551 36.276 80.1671 35.904C80.4791 35.52 80.8811 35.244 81.3731 35.076C81.8651 34.896 82.4591 34.806 83.1551 34.806C83.8511 34.806 84.4391 34.896 84.9191 35.076C85.4111 35.244 85.8071 35.52 86.1071 35.904C86.4191 36.276 86.6411 36.756 86.7731 37.344C86.9171 37.932 86.9891 38.64 86.9891 39.468C86.9891 40.296 86.9231 41.004 86.7911 41.592C86.6711 42.18 86.4611 42.666 86.1611 43.05C85.8611 43.434 85.4651 43.716 84.9731 43.896C84.4811 44.076 83.8691 44.166 83.1371 44.166C82.4051 44.166 81.7931 44.076 81.3011 43.896C80.8091 43.716 80.4131 43.434 80.1131 43.05C79.8131 42.666 79.5971 42.18 79.4651 41.592C79.3451 41.004 79.2851 40.296 79.2851 39.468ZM80.6711 39.432C80.6711 40.092 80.7011 40.65 80.7611 41.106C80.8331 41.55 80.9591 41.916 81.1391 42.204C81.3311 42.48 81.5891 42.684 81.9131 42.816C82.2371 42.936 82.6511 42.996 83.1551 42.996C83.6591 42.996 84.0671 42.936 84.3791 42.816C84.7031 42.696 84.9551 42.498 85.1351 42.222C85.3151 41.934 85.4351 41.568 85.4951 41.124C85.5671 40.668 85.6031 40.11 85.6031 39.45C85.6031 38.79 85.5611 38.238 85.4771 37.794C85.4051 37.35 85.2731 36.996 85.0811 36.732C84.8891 36.456 84.6371 36.264 84.3251 36.156C84.0131 36.036 83.6231 35.976 83.1551 35.976C82.6871 35.976 82.2911 36.036 81.9671 36.156C81.6551 36.264 81.4031 36.456 81.2111 36.732C81.0191 36.996 80.8811 37.35 80.7971 37.794C80.7131 38.226 80.6711 38.772 80.6711 39.432Z" fill="#78716C"/>
<path d="M94.8069 42.294V34.986H96.1569V43.986H94.8069V43.356C93.9069 43.896 93.0189 44.166 92.1429 44.166C91.5309 44.166 91.0269 44.094 90.6309 43.95C90.2349 43.806 89.9229 43.56 89.6949 43.212C89.4789 42.864 89.3229 42.408 89.2269 41.844C89.1429 41.268 89.1009 40.548 89.1009 39.684V34.986H90.4509V39.666C90.4509 40.314 90.4749 40.854 90.5229 41.286C90.5709 41.706 90.6609 42.042 90.7929 42.294C90.9249 42.546 91.1169 42.72 91.3689 42.816C91.6209 42.912 91.9449 42.96 92.3409 42.96C92.7369 42.96 93.1389 42.906 93.5469 42.798C93.9549 42.678 94.2669 42.564 94.4829 42.456L94.8069 42.294Z" fill="#78716C"/>
<path d="M100.211 43.986V31.062H98.8614V43.986H100.211Z" fill="#78716C"/>
<path d="M109.039 42.87L109.561 42.816L109.597 43.878C108.913 43.974 108.277 44.046 107.689 44.094C107.113 44.142 106.579 44.166 106.087 44.166C104.791 44.166 103.873 43.794 103.333 43.05C102.793 42.294 102.523 41.124 102.523 39.54C102.523 36.384 103.777 34.806 106.285 34.806C107.509 34.806 108.415 35.148 109.003 35.832C109.603 36.504 109.903 37.566 109.903 39.018L109.831 40.044H103.891C103.891 41.052 104.071 41.796 104.431 42.276C104.791 42.744 105.421 42.978 106.321 42.978C107.221 42.978 108.127 42.942 109.039 42.87ZM103.873 38.964H108.553C108.553 37.86 108.373 37.08 108.013 36.624C107.665 36.168 107.095 35.94 106.303 35.94C105.499 35.94 104.893 36.18 104.485 36.66C104.089 37.14 103.885 37.908 103.873 38.964Z" fill="#78716C"/>
<path d="M113.699 43.986H116.399L118.937 34.986H117.551L115.373 42.816H114.707L112.601 34.986H111.161L113.699 43.986Z" fill="#78716C"/>
<path d="M122.059 43.986V41.934H120.583V43.986H122.059Z" fill="#78716C"/>
<path d="M130.138 31.062H131.47V43.986H130.138V43.374C129.214 43.902 128.302 44.166 127.402 44.166C126.718 44.166 126.166 44.046 125.746 43.806C125.326 43.566 124.996 43.242 124.756 42.834C124.528 42.426 124.372 41.958 124.288 41.43C124.204 40.89 124.162 40.326 124.162 39.738C124.162 37.986 124.45 36.726 125.026 35.958C125.614 35.19 126.58 34.806 127.924 34.806C128.656 34.806 129.394 34.884 130.138 35.04V31.062ZM127.636 42.96C127.804 42.96 127.984 42.948 128.176 42.924C128.38 42.888 128.578 42.846 128.77 42.798C128.974 42.738 129.16 42.678 129.328 42.618C129.508 42.558 129.658 42.504 129.778 42.456L130.138 42.294V36.192C129.37 36.048 128.656 35.976 127.996 35.976C127.084 35.976 126.448 36.264 126.088 36.84C125.728 37.416 125.548 38.322 125.548 39.558C125.548 39.942 125.566 40.338 125.602 40.746C125.638 41.142 125.722 41.508 125.854 41.844C125.998 42.168 126.208 42.438 126.484 42.654C126.772 42.858 127.156 42.96 127.636 42.96Z" fill="#78716C"/>
<path d="M140.205 42.87L140.727 42.816L140.763 43.878C140.079 43.974 139.443 44.046 138.855 44.094C138.279 44.142 137.745 44.166 137.253 44.166C135.957 44.166 135.039 43.794 134.499 43.05C133.959 42.294 133.689 41.124 133.689 39.54C133.689 36.384 134.943 34.806 137.451 34.806C138.675 34.806 139.581 35.148 140.169 35.832C140.769 36.504 141.069 37.566 141.069 39.018L140.997 40.044H135.057C135.057 41.052 135.237 41.796 135.597 42.276C135.957 42.744 136.587 42.978 137.487 42.978C138.387 42.978 139.293 42.942 140.205 42.87ZM135.039 38.964H139.719C139.719 37.86 139.539 37.08 139.179 36.624C138.831 36.168 138.261 35.94 137.469 35.94C136.665 35.94 136.059 36.18 135.651 36.66C135.255 37.14 135.051 37.908 135.039 38.964Z" fill="#78716C"/>
<path d="M144.865 43.986H147.565L150.103 34.986H148.717L146.539 42.816H145.873L143.767 34.986H142.327L144.865 43.986Z" fill="#78716C"/>
</svg>
