<svg width="170" height="49" viewBox="0 0 170 49" fill="none" xmlns="http://www.w3.org/2000/svg">
<path d="M3.03898 33.0266C2.08679 33.5975 0.875855 32.9115 0.875855 31.8014V17.2957C0.875855 16.187 2.08384 15.5009 3.03608 16.0687L15.1665 23.3021C16.0945 23.8554 16.0961 25.1988 15.1694 25.7543L3.03898 33.0266Z" fill="#F5F5F4"/>
<path d="M25.3973 18.9854C25.7966 19.25 26.0367 19.6972 26.0367 20.1763V28.8607C26.0367 29.3389 25.7974 29.7854 25.3992 30.0503L1.51596 45.9339C0.338339 46.7171 0.892789 48.552 2.30706 48.552H17.037C17.3164 48.552 17.5896 48.4701 17.8229 48.3164L37.2417 35.5231C37.6429 35.2588 37.8844 34.8106 37.8844 34.3301V14.781C37.8844 14.2968 37.6391 13.8455 37.2326 13.5821L17.4769 0.781668C17.2455 0.631764 16.9757 0.552002 16.7001 0.552002L2.32179 0.552015C0.906293 0.552017 0.352733 2.38954 1.53268 3.17143L25.3973 18.9854Z" fill="#F5F5F4"/>
<path d="M59.0644 31.947H64.2544L66.5944 21.657L68.9344 31.947H74.1244L77.3044 16.947H74.0644L71.7244 29.157H71.1244L68.2744 17.247H64.9144L62.0644 29.157H61.4644L59.0944 16.947H55.8844L59.0644 31.947Z" fill="#F5F5F4"/>
<path d="M90.7617 29.247L91.6017 29.157L91.6617 31.587C90.5217 31.807 89.4517 31.977 88.4517 32.097C87.4517 32.217 86.5017 32.277 85.6017 32.277C83.3817 32.277 81.7817 31.667 80.8017 30.447C79.8417 29.227 79.3617 27.277 79.3617 24.597C79.3617 19.277 81.5317 16.617 85.8717 16.617C90.0717 16.617 92.1717 18.907 92.1717 23.487L91.9617 25.827H82.6617C82.6817 27.067 82.9517 27.977 83.4717 28.557C83.9917 29.137 84.9617 29.427 86.3817 29.427C87.8017 29.427 89.2617 29.367 90.7617 29.247ZM82.6317 23.307H88.9617C88.9617 21.807 88.7317 20.767 88.2717 20.187C87.8117 19.607 87.0117 19.317 85.8717 19.317C84.7317 19.317 83.9117 19.627 83.4117 20.247C82.9117 20.847 82.6517 21.867 82.6317 23.307Z" fill="#F5F5F4"/>
<path d="M102.306 16.617C103.326 16.617 104.206 16.757 104.946 17.037C105.686 17.297 106.286 17.737 106.746 18.357C107.226 18.957 107.576 19.757 107.796 20.757C108.016 21.757 108.126 22.987 108.126 24.447C108.126 25.907 107.996 27.137 107.736 28.137C107.496 29.137 107.086 29.947 106.506 30.567C105.926 31.167 105.166 31.607 104.226 31.887C103.306 32.147 102.166 32.277 100.806 32.277C99.8661 32.277 98.3761 32.187 96.3361 32.007L95.3161 31.917V10.707H98.5561V17.517C99.9361 16.917 101.186 16.617 102.306 16.617ZM100.806 29.367C101.606 29.367 102.266 29.277 102.786 29.097C103.306 28.917 103.716 28.637 104.016 28.257C104.316 27.857 104.516 27.347 104.616 26.727C104.736 26.087 104.796 25.317 104.796 24.417C104.796 22.617 104.566 21.357 104.106 20.637C103.666 19.897 102.936 19.527 101.916 19.527C100.956 19.527 99.9961 19.677 99.0361 19.977L98.5561 20.127V29.247C99.1161 29.287 99.5761 29.317 99.9361 29.337C100.316 29.357 100.606 29.367 100.806 29.367Z" fill="#F5F5F4"/>
<path d="M122.5 21.567V28.407C122.52 28.847 122.63 29.177 122.83 29.397C123.05 29.597 123.38 29.727 123.82 29.787L123.73 32.277C121.99 32.277 120.66 31.907 119.74 31.167C118.18 31.907 116.57 32.277 114.91 32.277C111.93 32.277 110.44 30.687 110.44 27.507C110.44 25.987 110.84 24.887 111.64 24.207C112.44 23.527 113.69 23.117 115.39 22.977L119.26 22.647V21.567C119.26 20.767 119.08 20.207 118.72 19.887C118.38 19.567 117.87 19.407 117.19 19.407C116.55 19.407 115.83 19.427 115.03 19.467C114.23 19.507 113.35 19.567 112.39 19.647L111.43 19.707L111.31 17.397C113.55 16.877 115.56 16.617 117.34 16.617C119.18 16.617 120.5 17.007 121.3 17.787C122.1 18.567 122.5 19.827 122.5 21.567ZM119.26 24.957L115.78 25.287C114.4 25.407 113.71 26.157 113.71 27.537C113.71 28.917 114.32 29.607 115.54 29.607C116.58 29.607 117.64 29.447 118.72 29.127L119.26 28.947V24.957Z" fill="#F5F5F4"/>
<path d="M129.875 38.397H126.605V16.947H129.845V17.877C131.225 17.037 132.515 16.617 133.715 16.617C134.715 16.617 135.575 16.767 136.295 17.067C137.015 17.347 137.605 17.807 138.065 18.447C138.525 19.067 138.865 19.877 139.085 20.877C139.325 21.877 139.445 23.087 139.445 24.507C139.445 25.927 139.315 27.137 139.055 28.137C138.815 29.117 138.425 29.917 137.885 30.537C137.345 31.137 136.645 31.577 135.785 31.857C134.945 32.137 133.925 32.277 132.725 32.277C131.905 32.277 130.955 32.187 129.875 32.007V38.397ZM133.145 19.527C132.205 19.527 131.265 19.737 130.325 20.157L129.875 20.367V29.217C130.275 29.297 130.695 29.357 131.135 29.397C131.575 29.437 132.035 29.457 132.515 29.457C133.195 29.457 133.765 29.367 134.225 29.187C134.685 28.987 135.055 28.687 135.335 28.287C135.615 27.867 135.815 27.337 135.935 26.697C136.055 26.037 136.115 25.237 136.115 24.297C136.115 21.117 135.125 19.527 133.145 19.527Z" fill="#F5F5F4"/>
<path d="M145.988 38.397H142.718V16.947H145.958V17.877C147.338 17.037 148.628 16.617 149.828 16.617C150.828 16.617 151.688 16.767 152.408 17.067C153.128 17.347 153.718 17.807 154.178 18.447C154.638 19.067 154.978 19.877 155.198 20.877C155.438 21.877 155.558 23.087 155.558 24.507C155.558 25.927 155.428 27.137 155.168 28.137C154.928 29.117 154.538 29.917 153.998 30.537C153.458 31.137 152.758 31.577 151.898 31.857C151.058 32.137 150.038 32.277 148.838 32.277C148.018 32.277 147.068 32.187 145.988 32.007V38.397ZM149.258 19.527C148.318 19.527 147.378 19.737 146.438 20.157L145.988 20.367V29.217C146.388 29.297 146.808 29.357 147.248 29.397C147.688 29.437 148.148 29.457 148.628 29.457C149.308 29.457 149.878 29.367 150.338 29.187C150.798 28.987 151.168 28.687 151.448 28.287C151.728 27.867 151.928 27.337 152.048 26.697C152.168 26.037 152.228 25.237 152.228 24.297C152.228 21.117 151.238 19.527 149.258 19.527Z" fill="#F5F5F4"/>
<path d="M169.302 17.307L169.242 20.037C168.042 19.877 167.012 19.757 166.152 19.677C165.312 19.597 164.632 19.557 164.112 19.557C163.032 19.557 162.292 19.687 161.892 19.947C161.492 20.187 161.292 20.577 161.292 21.117C161.292 21.657 161.522 22.037 161.982 22.257C162.202 22.357 162.572 22.477 163.092 22.617C163.632 22.737 164.322 22.867 165.162 23.007C166.002 23.147 166.712 23.327 167.292 23.547C167.872 23.767 168.342 24.057 168.702 24.417C169.062 24.757 169.322 25.197 169.482 25.737C169.662 26.257 169.752 26.907 169.752 27.687C169.752 29.267 169.242 30.427 168.222 31.167C167.222 31.907 165.752 32.277 163.812 32.277C163.192 32.277 162.502 32.227 161.742 32.127C160.982 32.047 160.132 31.927 159.192 31.767L158.262 31.617L158.382 28.887C159.582 29.047 160.612 29.167 161.472 29.247C162.352 29.327 163.052 29.367 163.572 29.367C164.652 29.367 165.412 29.237 165.852 28.977C166.292 28.717 166.512 28.287 166.512 27.687C166.512 27.087 166.302 26.667 165.882 26.427C165.662 26.327 165.292 26.217 164.772 26.097C164.272 25.957 163.612 25.817 162.792 25.677C161.972 25.537 161.262 25.377 160.662 25.197C160.082 24.997 159.592 24.737 159.192 24.417C158.812 24.077 158.522 23.657 158.322 23.157C158.142 22.657 158.052 22.017 158.052 21.237C158.052 20.457 158.192 19.787 158.472 19.227C158.752 18.647 159.132 18.167 159.612 17.787C160.112 17.407 160.702 17.127 161.382 16.947C162.082 16.747 162.842 16.647 163.662 16.647C164.302 16.647 165.012 16.687 165.792 16.767C166.572 16.847 167.432 16.967 168.372 17.127L169.302 17.307Z" fill="#F5F5F4"/>
</svg>
