<svg width="169" height="49" viewBox="0 0 169 49" fill="none" xmlns="http://www.w3.org/2000/svg">
<path d="M2.16312 33.0266C1.21094 33.5975 4.46666e-08 32.9115 4.46666e-08 31.8014V17.2957C4.46666e-08 16.187 1.20799 15.5009 2.16022 16.0687L14.2907 23.3021C15.2186 23.8554 15.2202 25.1988 14.2936 25.7543L2.16312 33.0266Z" fill="#1C1917"/>
<path d="M24.5214 18.9854C24.9207 19.25 25.1609 19.6972 25.1609 20.1763V28.8607C25.1609 29.3389 24.9216 29.7854 24.5234 30.0503L0.640101 45.9339C-0.537515 46.7171 0.0169348 48.552 1.4312 48.552H16.1611C16.4405 48.552 16.7138 48.4701 16.9471 48.3164L36.3659 35.5231C36.7671 35.2588 37.0085 34.8106 37.0085 34.3301V14.781C37.0085 14.2968 36.7632 13.8455 36.3568 13.5821L16.601 0.781668C16.3697 0.631764 16.0999 0.552002 15.8242 0.552002L1.44593 0.552015C0.0304382 0.552017 -0.523122 2.38954 0.656821 3.17143L24.5214 18.9854Z" fill="#1C1917"/>
<path d="M58.1885 31.947H63.3785L65.7185 21.657L68.0585 31.947H73.2485L76.4285 16.947H73.1885L70.8485 29.157H70.2485L67.3985 17.247H64.0385L61.1885 29.157H60.5885L58.2185 16.947H55.0085L58.1885 31.947Z" fill="#1C1917"/>
<path d="M89.8859 29.247L90.7259 29.157L90.7859 31.587C89.6459 31.807 88.5759 31.977 87.5759 32.097C86.5759 32.217 85.6259 32.277 84.7259 32.277C82.5059 32.277 80.9059 31.667 79.9259 30.447C78.9659 29.227 78.4859 27.277 78.4859 24.597C78.4859 19.277 80.6559 16.617 84.9959 16.617C89.1959 16.617 91.2959 18.907 91.2959 23.487L91.0859 25.827H81.7859C81.8059 27.067 82.0759 27.977 82.5959 28.557C83.1159 29.137 84.0859 29.427 85.5059 29.427C86.9259 29.427 88.3859 29.367 89.8859 29.247ZM81.7559 23.307H88.0859C88.0859 21.807 87.8559 20.767 87.3959 20.187C86.9359 19.607 86.1359 19.317 84.9959 19.317C83.8559 19.317 83.0359 19.627 82.5359 20.247C82.0359 20.847 81.7759 21.867 81.7559 23.307Z" fill="#1C1917"/>
<path d="M101.43 16.617C102.45 16.617 103.33 16.757 104.07 17.037C104.81 17.297 105.41 17.737 105.87 18.357C106.35 18.957 106.7 19.757 106.92 20.757C107.14 21.757 107.25 22.987 107.25 24.447C107.25 25.907 107.12 27.137 106.86 28.137C106.62 29.137 106.21 29.947 105.63 30.567C105.05 31.167 104.29 31.607 103.35 31.887C102.43 32.147 101.29 32.277 99.9303 32.277C98.9903 32.277 97.5003 32.187 95.4603 32.007L94.4403 31.917V10.707H97.6803V17.517C99.0603 16.917 100.31 16.617 101.43 16.617ZM99.9303 29.367C100.73 29.367 101.39 29.277 101.91 29.097C102.43 28.917 102.84 28.637 103.14 28.257C103.44 27.857 103.64 27.347 103.74 26.727C103.86 26.087 103.92 25.317 103.92 24.417C103.92 22.617 103.69 21.357 103.23 20.637C102.79 19.897 102.06 19.527 101.04 19.527C100.08 19.527 99.1203 19.677 98.1603 19.977L97.6803 20.127V29.247C98.2403 29.287 98.7003 29.317 99.0603 29.337C99.4403 29.357 99.7303 29.367 99.9303 29.367Z" fill="#1C1917"/>
<path d="M121.624 21.567V28.407C121.644 28.847 121.754 29.177 121.954 29.397C122.174 29.597 122.504 29.727 122.944 29.787L122.854 32.277C121.114 32.277 119.784 31.907 118.864 31.167C117.304 31.907 115.694 32.277 114.034 32.277C111.054 32.277 109.564 30.687 109.564 27.507C109.564 25.987 109.964 24.887 110.764 24.207C111.564 23.527 112.814 23.117 114.514 22.977L118.384 22.647V21.567C118.384 20.767 118.204 20.207 117.844 19.887C117.504 19.567 116.994 19.407 116.314 19.407C115.674 19.407 114.954 19.427 114.154 19.467C113.354 19.507 112.474 19.567 111.514 19.647L110.554 19.707L110.434 17.397C112.674 16.877 114.684 16.617 116.464 16.617C118.304 16.617 119.624 17.007 120.424 17.787C121.224 18.567 121.624 19.827 121.624 21.567ZM118.384 24.957L114.904 25.287C113.524 25.407 112.834 26.157 112.834 27.537C112.834 28.917 113.444 29.607 114.664 29.607C115.704 29.607 116.764 29.447 117.844 29.127L118.384 28.947V24.957Z" fill="#1C1917"/>
<path d="M128.999 38.397H125.729V16.947H128.969V17.877C130.349 17.037 131.639 16.617 132.839 16.617C133.839 16.617 134.699 16.767 135.419 17.067C136.139 17.347 136.729 17.807 137.189 18.447C137.649 19.067 137.989 19.877 138.209 20.877C138.449 21.877 138.569 23.087 138.569 24.507C138.569 25.927 138.439 27.137 138.179 28.137C137.939 29.117 137.549 29.917 137.009 30.537C136.469 31.137 135.769 31.577 134.909 31.857C134.069 32.137 133.049 32.277 131.849 32.277C131.029 32.277 130.079 32.187 128.999 32.007V38.397ZM132.269 19.527C131.329 19.527 130.389 19.737 129.449 20.157L128.999 20.367V29.217C129.399 29.297 129.819 29.357 130.259 29.397C130.699 29.437 131.159 29.457 131.639 29.457C132.319 29.457 132.889 29.367 133.349 29.187C133.809 28.987 134.179 28.687 134.459 28.287C134.739 27.867 134.939 27.337 135.059 26.697C135.179 26.037 135.239 25.237 135.239 24.297C135.239 21.117 134.249 19.527 132.269 19.527Z" fill="#1C1917"/>
<path d="M145.113 38.397H141.843V16.947H145.083V17.877C146.463 17.037 147.753 16.617 148.953 16.617C149.953 16.617 150.813 16.767 151.533 17.067C152.253 17.347 152.843 17.807 153.303 18.447C153.763 19.067 154.103 19.877 154.323 20.877C154.563 21.877 154.683 23.087 154.683 24.507C154.683 25.927 154.553 27.137 154.293 28.137C154.053 29.117 153.663 29.917 153.123 30.537C152.583 31.137 151.883 31.577 151.023 31.857C150.183 32.137 149.163 32.277 147.963 32.277C147.143 32.277 146.193 32.187 145.113 32.007V38.397ZM148.383 19.527C147.443 19.527 146.503 19.737 145.563 20.157L145.113 20.367V29.217C145.513 29.297 145.933 29.357 146.373 29.397C146.813 29.437 147.273 29.457 147.753 29.457C148.433 29.457 149.003 29.367 149.463 29.187C149.923 28.987 150.293 28.687 150.573 28.287C150.853 27.867 151.053 27.337 151.173 26.697C151.293 26.037 151.353 25.237 151.353 24.297C151.353 21.117 150.363 19.527 148.383 19.527Z" fill="#1C1917"/>
<path d="M168.426 17.307L168.366 20.037C167.166 19.877 166.136 19.757 165.276 19.677C164.436 19.597 163.756 19.557 163.236 19.557C162.156 19.557 161.416 19.687 161.016 19.947C160.616 20.187 160.416 20.577 160.416 21.117C160.416 21.657 160.646 22.037 161.106 22.257C161.326 22.357 161.696 22.477 162.216 22.617C162.756 22.737 163.446 22.867 164.286 23.007C165.126 23.147 165.836 23.327 166.416 23.547C166.996 23.767 167.466 24.057 167.826 24.417C168.186 24.757 168.446 25.197 168.606 25.737C168.786 26.257 168.876 26.907 168.876 27.687C168.876 29.267 168.366 30.427 167.346 31.167C166.346 31.907 164.876 32.277 162.936 32.277C162.316 32.277 161.626 32.227 160.866 32.127C160.106 32.047 159.256 31.927 158.316 31.767L157.386 31.617L157.506 28.887C158.706 29.047 159.736 29.167 160.596 29.247C161.476 29.327 162.176 29.367 162.696 29.367C163.776 29.367 164.536 29.237 164.976 28.977C165.416 28.717 165.636 28.287 165.636 27.687C165.636 27.087 165.426 26.667 165.006 26.427C164.786 26.327 164.416 26.217 163.896 26.097C163.396 25.957 162.736 25.817 161.916 25.677C161.096 25.537 160.386 25.377 159.786 25.197C159.206 24.997 158.716 24.737 158.316 24.417C157.936 24.077 157.646 23.657 157.446 23.157C157.266 22.657 157.176 22.017 157.176 21.237C157.176 20.457 157.316 19.787 157.596 19.227C157.876 18.647 158.256 18.167 158.736 17.787C159.236 17.407 159.826 17.127 160.506 16.947C161.206 16.747 161.966 16.647 162.786 16.647C163.426 16.647 164.136 16.687 164.916 16.767C165.696 16.847 166.556 16.967 167.496 17.127L168.426 17.307Z" fill="#1C1917"/>
</svg>
