<svg width="169" height="48" viewBox="0 0 169 48" fill="none" xmlns="http://www.w3.org/2000/svg">
<path d="M2.16312 32.4746C1.21094 33.0455 4.46666e-08 32.3595 4.46666e-08 31.2494V16.7437C4.46666e-08 15.635 1.20799 14.9489 2.16022 15.5167L14.2907 22.7501C15.2186 23.3034 15.2202 24.6468 14.2936 25.2023L2.16312 32.4746Z" fill="#1C1917"/>
<path d="M24.5214 18.4334C24.9207 18.698 25.1609 19.1452 25.1609 19.6243V28.3087C25.1609 28.7869 24.9216 29.2334 24.5234 29.4983L0.640101 45.3819C-0.537515 46.1651 0.0169348 48 1.4312 48H16.1611C16.4405 48 16.7138 47.9181 16.9471 47.7644L36.3659 34.9711C36.7671 34.7068 37.0085 34.2585 37.0085 33.7781V14.229C37.0085 13.7448 36.7632 13.2935 36.3568 13.0301L16.601 0.229666C16.3697 0.0797621 16.0999 -2.59446e-07 15.8242 0L1.44593 1.35319e-05C0.0304382 1.48641e-05 -0.523122 1.83753 0.656821 2.61943L24.5214 18.4334Z" fill="#1C1917"/>
<path d="M58.1885 21.24H63.3785L65.7185 10.95L68.0585 21.24H73.2485L76.4285 6.24H73.1885L70.8485 18.45H70.2485L67.3985 6.54H64.0385L61.1885 18.45H60.5885L58.2185 6.24H55.0085L58.1885 21.24Z" fill="#1C1917"/>
<path d="M89.8859 18.54L90.7259 18.45L90.7859 20.88C89.6459 21.1 88.5759 21.27 87.5759 21.39C86.5759 21.51 85.6259 21.57 84.7259 21.57C82.5059 21.57 80.9059 20.96 79.9259 19.74C78.9659 18.52 78.4859 16.57 78.4859 13.89C78.4859 8.57 80.6559 5.91 84.9959 5.91C89.1959 5.91 91.2959 8.2 91.2959 12.78L91.0859 15.12H81.7859C81.8059 16.36 82.0759 17.27 82.5959 17.85C83.1159 18.43 84.0859 18.72 85.5059 18.72C86.9259 18.72 88.3859 18.66 89.8859 18.54ZM81.7559 12.6H88.0859C88.0859 11.1 87.8559 10.06 87.3959 9.48C86.9359 8.9 86.1359 8.61 84.9959 8.61C83.8559 8.61 83.0359 8.92 82.5359 9.54C82.0359 10.14 81.7759 11.16 81.7559 12.6Z" fill="#1C1917"/>
<path d="M101.43 5.91C102.45 5.91 103.33 6.05 104.07 6.33C104.81 6.59 105.41 7.03 105.87 7.65C106.35 8.25 106.7 9.05 106.92 10.05C107.14 11.05 107.25 12.28 107.25 13.74C107.25 15.2 107.12 16.43 106.86 17.43C106.62 18.43 106.21 19.24 105.63 19.86C105.05 20.46 104.29 20.9 103.35 21.18C102.43 21.44 101.29 21.57 99.9303 21.57C98.9903 21.57 97.5003 21.48 95.4603 21.3L94.4403 21.21V0H97.6803V6.81C99.0603 6.21 100.31 5.91 101.43 5.91ZM99.9303 18.66C100.73 18.66 101.39 18.57 101.91 18.39C102.43 18.21 102.84 17.93 103.14 17.55C103.44 17.15 103.64 16.64 103.74 16.02C103.86 15.38 103.92 14.61 103.92 13.71C103.92 11.91 103.69 10.65 103.23 9.93C102.79 9.19 102.06 8.82 101.04 8.82C100.08 8.82 99.1203 8.97 98.1603 9.27L97.6803 9.42V18.54C98.2403 18.58 98.7003 18.61 99.0603 18.63C99.4403 18.65 99.7303 18.66 99.9303 18.66Z" fill="#1C1917"/>
<path d="M121.624 10.86V17.7C121.644 18.14 121.754 18.47 121.954 18.69C122.174 18.89 122.504 19.02 122.944 19.08L122.854 21.57C121.114 21.57 119.784 21.2 118.864 20.46C117.304 21.2 115.694 21.57 114.034 21.57C111.054 21.57 109.564 19.98 109.564 16.8C109.564 15.28 109.964 14.18 110.764 13.5C111.564 12.82 112.814 12.41 114.514 12.27L118.384 11.94V10.86C118.384 10.06 118.204 9.5 117.844 9.18C117.504 8.86 116.994 8.7 116.314 8.7C115.674 8.7 114.954 8.72 114.154 8.76C113.354 8.8 112.474 8.86 111.514 8.94L110.554 9L110.434 6.69C112.674 6.17 114.684 5.91 116.464 5.91C118.304 5.91 119.624 6.3 120.424 7.08C121.224 7.86 121.624 9.12 121.624 10.86ZM118.384 14.25L114.904 14.58C113.524 14.7 112.834 15.45 112.834 16.83C112.834 18.21 113.444 18.9 114.664 18.9C115.704 18.9 116.764 18.74 117.844 18.42L118.384 18.24V14.25Z" fill="#1C1917"/>
<path d="M128.999 27.69H125.729V6.24H128.969V7.17C130.349 6.33 131.639 5.91 132.839 5.91C133.839 5.91 134.699 6.06 135.419 6.36C136.139 6.64 136.729 7.1 137.189 7.74C137.649 8.36 137.989 9.17 138.209 10.17C138.449 11.17 138.569 12.38 138.569 13.8C138.569 15.22 138.439 16.43 138.179 17.43C137.939 18.41 137.549 19.21 137.009 19.83C136.469 20.43 135.769 20.87 134.909 21.15C134.069 21.43 133.049 21.57 131.849 21.57C131.029 21.57 130.079 21.48 128.999 21.3V27.69ZM132.269 8.82C131.329 8.82 130.389 9.03 129.449 9.45L128.999 9.66V18.51C129.399 18.59 129.819 18.65 130.259 18.69C130.699 18.73 131.159 18.75 131.639 18.75C132.319 18.75 132.889 18.66 133.349 18.48C133.809 18.28 134.179 17.98 134.459 17.58C134.739 17.16 134.939 16.63 135.059 15.99C135.179 15.33 135.239 14.53 135.239 13.59C135.239 10.41 134.249 8.82 132.269 8.82Z" fill="#1C1917"/>
<path d="M145.113 27.69H141.843V6.24H145.083V7.17C146.463 6.33 147.753 5.91 148.953 5.91C149.953 5.91 150.813 6.06 151.533 6.36C152.253 6.64 152.843 7.1 153.303 7.74C153.763 8.36 154.103 9.17 154.323 10.17C154.563 11.17 154.683 12.38 154.683 13.8C154.683 15.22 154.553 16.43 154.293 17.43C154.053 18.41 153.663 19.21 153.123 19.83C152.583 20.43 151.883 20.87 151.023 21.15C150.183 21.43 149.163 21.57 147.963 21.57C147.143 21.57 146.193 21.48 145.113 21.3V27.69ZM148.383 8.82C147.443 8.82 146.503 9.03 145.563 9.45L145.113 9.66V18.51C145.513 18.59 145.933 18.65 146.373 18.69C146.813 18.73 147.273 18.75 147.753 18.75C148.433 18.75 149.003 18.66 149.463 18.48C149.923 18.28 150.293 17.98 150.573 17.58C150.853 17.16 151.053 16.63 151.173 15.99C151.293 15.33 151.353 14.53 151.353 13.59C151.353 10.41 150.363 8.82 148.383 8.82Z" fill="#1C1917"/>
<path d="M168.426 6.6L168.366 9.33C167.166 9.17 166.136 9.05 165.276 8.97C164.436 8.89 163.756 8.85 163.236 8.85C162.156 8.85 161.416 8.98 161.016 9.24C160.616 9.48 160.416 9.87 160.416 10.41C160.416 10.95 160.646 11.33 161.106 11.55C161.326 11.65 161.696 11.77 162.216 11.91C162.756 12.03 163.446 12.16 164.286 12.3C165.126 12.44 165.836 12.62 166.416 12.84C166.996 13.06 167.466 13.35 167.826 13.71C168.186 14.05 168.446 14.49 168.606 15.03C168.786 15.55 168.876 16.2 168.876 16.98C168.876 18.56 168.366 19.72 167.346 20.46C166.346 21.2 164.876 21.57 162.936 21.57C162.316 21.57 161.626 21.52 160.866 21.42C160.106 21.34 159.256 21.22 158.316 21.06L157.386 20.91L157.506 18.18C158.706 18.34 159.736 18.46 160.596 18.54C161.476 18.62 162.176 18.66 162.696 18.66C163.776 18.66 164.536 18.53 164.976 18.27C165.416 18.01 165.636 17.58 165.636 16.98C165.636 16.38 165.426 15.96 165.006 15.72C164.786 15.62 164.416 15.51 163.896 15.39C163.396 15.25 162.736 15.11 161.916 14.97C161.096 14.83 160.386 14.67 159.786 14.49C159.206 14.29 158.716 14.03 158.316 13.71C157.936 13.37 157.646 12.95 157.446 12.45C157.266 11.95 157.176 11.31 157.176 10.53C157.176 9.75 157.316 9.08 157.596 8.52C157.876 7.94 158.256 7.46 158.736 7.08C159.236 6.7 159.826 6.42 160.506 6.24C161.206 6.04 161.966 5.94 162.786 5.94C163.426 5.94 164.136 5.98 164.916 6.06C165.696 6.14 166.556 6.26 167.496 6.42L168.426 6.6Z" fill="#1C1917"/>
<path d="M61.9385 37.704V42.312C61.9745 42.756 62.3225 43.02 62.9825 43.104L62.9285 44.166C61.9805 44.166 61.2665 43.926 60.7865 43.446C59.7185 43.926 58.6385 44.166 57.5465 44.166C56.7185 44.166 56.0885 43.932 55.6565 43.464C55.2245 42.996 55.0085 42.324 55.0085 41.448C55.0085 40.572 55.2305 39.93 55.6745 39.522C56.1185 39.102 56.8145 38.844 57.7625 38.748L60.5885 38.478V37.704C60.5885 37.092 60.4565 36.654 60.1925 36.39C59.9285 36.126 59.5685 35.994 59.1125 35.994C58.6325 35.994 58.1405 36.012 57.6365 36.048C57.1445 36.072 56.6405 36.114 56.1245 36.174L55.5665 36.228L55.5125 35.202C56.7965 34.938 57.9665 34.806 59.0225 34.806C60.0425 34.806 60.7805 35.04 61.2365 35.508C61.7045 35.964 61.9385 36.696 61.9385 37.704ZM56.3945 41.376C56.3945 42.48 56.8505 43.032 57.7625 43.032C58.5665 43.032 59.3705 42.894 60.1745 42.618L60.5885 42.474V39.504L57.9245 39.756C57.3845 39.804 56.9945 39.96 56.7545 40.224C56.5145 40.488 56.3945 40.872 56.3945 41.376Z" fill="#78716C"/>
<path d="M69.2641 34.986V36.156H66.4021V40.458C66.4021 41.502 66.4801 42.18 66.6361 42.492C66.7801 42.816 67.1341 42.978 67.6981 42.978L69.3001 42.87L69.3901 43.986C68.9821 44.046 68.6221 44.094 68.3101 44.13C68.0101 44.166 67.7581 44.184 67.5541 44.184C67.0861 44.184 66.6901 44.13 66.3661 44.022C66.0541 43.926 65.8021 43.752 65.6101 43.5C65.4181 43.248 65.2801 42.912 65.1961 42.492C65.1121 42.072 65.0701 41.538 65.0701 40.89V36.156H63.7921V34.986H65.0701V32.232H66.4021V34.986H69.2641Z" fill="#78716C"/>
<path d="M74.8857 43.752V34.986H76.2177V43.77C76.2177 44.322 76.1757 44.796 76.0917 45.192C76.0077 45.588 75.8517 45.942 75.6237 46.254C75.3957 46.566 75.0897 46.86 74.7057 47.136C74.3217 47.412 73.8297 47.7 73.2297 48L72.6897 46.956C73.1577 46.692 73.5357 46.452 73.8237 46.236C74.1117 46.02 74.3337 45.798 74.4897 45.57C74.6457 45.342 74.7477 45.084 74.7957 44.796C74.8557 44.52 74.8857 44.172 74.8857 43.752ZM76.2177 32.952H74.8857V31.386H76.2177V32.952Z" fill="#78716C"/>
<path d="M78.4092 39.468C78.4092 38.64 78.4752 37.932 78.6072 37.344C78.7512 36.756 78.9792 36.276 79.2912 35.904C79.6032 35.52 80.0052 35.244 80.4972 35.076C80.9892 34.896 81.5832 34.806 82.2792 34.806C82.9752 34.806 83.5632 34.896 84.0432 35.076C84.5352 35.244 84.9312 35.52 85.2312 35.904C85.5432 36.276 85.7652 36.756 85.8972 37.344C86.0412 37.932 86.1132 38.64 86.1132 39.468C86.1132 40.296 86.0472 41.004 85.9152 41.592C85.7952 42.18 85.5852 42.666 85.2852 43.05C84.9852 43.434 84.5892 43.716 84.0972 43.896C83.6052 44.076 82.9932 44.166 82.2612 44.166C81.5292 44.166 80.9172 44.076 80.4252 43.896C79.9332 43.716 79.5372 43.434 79.2372 43.05C78.9372 42.666 78.7212 42.18 78.5892 41.592C78.4692 41.004 78.4092 40.296 78.4092 39.468ZM79.7952 39.432C79.7952 40.092 79.8252 40.65 79.8852 41.106C79.9572 41.55 80.0832 41.916 80.2632 42.204C80.4552 42.48 80.7132 42.684 81.0372 42.816C81.3612 42.936 81.7752 42.996 82.2792 42.996C82.7832 42.996 83.1912 42.936 83.5032 42.816C83.8272 42.696 84.0792 42.498 84.2592 42.222C84.4392 41.934 84.5592 41.568 84.6192 41.124C84.6912 40.668 84.7272 40.11 84.7272 39.45C84.7272 38.79 84.6852 38.238 84.6012 37.794C84.5292 37.35 84.3972 36.996 84.2052 36.732C84.0132 36.456 83.7612 36.264 83.4492 36.156C83.1372 36.036 82.7472 35.976 82.2792 35.976C81.8112 35.976 81.4152 36.036 81.0912 36.156C80.7792 36.264 80.5272 36.456 80.3352 36.732C80.1432 36.996 80.0052 37.35 79.9212 37.794C79.8372 38.226 79.7952 38.772 79.7952 39.432Z" fill="#78716C"/>
<path d="M93.931 42.294V34.986H95.281V43.986H93.931V43.356C93.031 43.896 92.143 44.166 91.267 44.166C90.655 44.166 90.151 44.094 89.755 43.95C89.359 43.806 89.047 43.56 88.819 43.212C88.603 42.864 88.447 42.408 88.351 41.844C88.267 41.268 88.225 40.548 88.225 39.684V34.986H89.575V39.666C89.575 40.314 89.599 40.854 89.647 41.286C89.695 41.706 89.785 42.042 89.917 42.294C90.049 42.546 90.241 42.72 90.493 42.816C90.745 42.912 91.069 42.96 91.465 42.96C91.861 42.96 92.263 42.906 92.671 42.798C93.079 42.678 93.391 42.564 93.607 42.456L93.931 42.294Z" fill="#78716C"/>
<path d="M99.3355 43.986V31.062H97.9855V43.986H99.3355Z" fill="#78716C"/>
<path d="M108.164 42.87L108.686 42.816L108.722 43.878C108.038 43.974 107.402 44.046 106.814 44.094C106.238 44.142 105.704 44.166 105.212 44.166C103.916 44.166 102.998 43.794 102.458 43.05C101.918 42.294 101.648 41.124 101.648 39.54C101.648 36.384 102.902 34.806 105.41 34.806C106.634 34.806 107.54 35.148 108.128 35.832C108.728 36.504 109.028 37.566 109.028 39.018L108.956 40.044H103.016C103.016 41.052 103.196 41.796 103.556 42.276C103.916 42.744 104.546 42.978 105.446 42.978C106.346 42.978 107.252 42.942 108.164 42.87ZM102.998 38.964H107.678C107.678 37.86 107.498 37.08 107.138 36.624C106.79 36.168 106.22 35.94 105.428 35.94C104.624 35.94 104.018 36.18 103.61 36.66C103.214 37.14 103.01 37.908 102.998 38.964Z" fill="#78716C"/>
<path d="M112.823 43.986H115.523L118.061 34.986H116.675L114.497 42.816H113.831L111.725 34.986H110.285L112.823 43.986Z" fill="#78716C"/>
<path d="M121.183 43.986V41.934H119.707V43.986H121.183Z" fill="#78716C"/>
<path d="M129.262 31.062H130.594V43.986H129.262V43.374C128.338 43.902 127.426 44.166 126.526 44.166C125.842 44.166 125.29 44.046 124.87 43.806C124.45 43.566 124.12 43.242 123.88 42.834C123.652 42.426 123.496 41.958 123.412 41.43C123.328 40.89 123.286 40.326 123.286 39.738C123.286 37.986 123.574 36.726 124.15 35.958C124.738 35.19 125.704 34.806 127.048 34.806C127.78 34.806 128.518 34.884 129.262 35.04V31.062ZM126.76 42.96C126.928 42.96 127.108 42.948 127.3 42.924C127.504 42.888 127.702 42.846 127.894 42.798C128.098 42.738 128.284 42.678 128.452 42.618C128.632 42.558 128.782 42.504 128.902 42.456L129.262 42.294V36.192C128.494 36.048 127.78 35.976 127.12 35.976C126.208 35.976 125.572 36.264 125.212 36.84C124.852 37.416 124.672 38.322 124.672 39.558C124.672 39.942 124.69 40.338 124.726 40.746C124.762 41.142 124.846 41.508 124.978 41.844C125.122 42.168 125.332 42.438 125.608 42.654C125.896 42.858 126.28 42.96 126.76 42.96Z" fill="#78716C"/>
<path d="M139.33 42.87L139.852 42.816L139.888 43.878C139.204 43.974 138.568 44.046 137.98 44.094C137.404 44.142 136.87 44.166 136.378 44.166C135.082 44.166 134.164 43.794 133.624 43.05C133.084 42.294 132.814 41.124 132.814 39.54C132.814 36.384 134.068 34.806 136.576 34.806C137.8 34.806 138.706 35.148 139.294 35.832C139.894 36.504 140.194 37.566 140.194 39.018L140.122 40.044H134.182C134.182 41.052 134.362 41.796 134.722 42.276C135.082 42.744 135.712 42.978 136.612 42.978C137.512 42.978 138.418 42.942 139.33 42.87ZM134.164 38.964H138.844C138.844 37.86 138.664 37.08 138.304 36.624C137.956 36.168 137.386 35.94 136.594 35.94C135.79 35.94 135.184 36.18 134.776 36.66C134.38 37.14 134.176 37.908 134.164 38.964Z" fill="#78716C"/>
<path d="M143.989 43.986H146.689L149.227 34.986H147.841L145.663 42.816H144.997L142.891 34.986H141.451L143.989 43.986Z" fill="#78716C"/>
</svg>
