<svg width="150" height="48" viewBox="0 0 150 48" fill="none" xmlns="http://www.w3.org/2000/svg">
<path d="M2.39054 32.4746C1.43835 33.0455 0.227417 32.3595 0.227417 31.2494V16.7437C0.227417 15.635 1.4354 14.9489 2.38764 15.5167L14.5181 22.7501C15.4461 23.3034 15.4476 24.6468 14.521 25.2023L2.39054 32.4746Z" fill="#fafafa"/>
<path d="M24.7488 18.4334C25.1482 18.698 25.3883 19.1452 25.3883 19.6243V28.3087C25.3883 28.7869 25.149 29.2334 24.7508 29.4983L0.867518 45.3819C-0.310098 46.1651 0.244352 48 1.65862 48H16.3886C16.6679 48 16.9412 47.9181 17.1745 47.7644L36.5933 34.9711C36.9945 34.7068 37.236 34.2585 37.236 33.7781V14.229C37.236 13.7448 36.9906 13.2935 36.5842 13.0301L16.8284 0.229666C16.5971 0.0797621 16.3273 -2.59446e-07 16.0516 0L1.67335 1.35319e-05C0.257855 1.48641e-05 -0.295705 1.83753 0.884238 2.61943L24.7488 18.4334Z" fill="#fafafa"/>
<path d="M72.444 7.08V20.52H74.388V7.08H72.444ZM69.204 0.839999C69.9 2.4 70.524 4.44 70.668 5.76L72.564 5.136C72.372 3.816 71.748 1.776 70.98 0.263999L69.204 0.839999ZM70.692 14.616L69.228 15.144C70.404 20.904 72.78 22.08 75.732 22.08H77.652C77.724 21.552 77.988 20.592 78.252 20.112C77.7 20.112 76.308 20.136 75.9 20.136C73.692 20.136 71.628 19.296 70.692 14.616ZM73.308 12V13.968H77.58V12H73.308ZM68.7 5.856V7.872H77.82V5.856H68.7ZM75.132 0.0719991C74.868 1.632 74.268 3.84 73.74 5.232L75.564 5.664C76.14 4.344 76.788 2.304 77.34 0.527999L75.132 0.0719991ZM69.036 10.728V13.152C69.036 15.408 68.844 18.504 67.044 21.048C67.572 21.384 68.268 21.912 68.604 22.344C70.572 19.488 70.788 15.96 70.788 13.176V10.728H69.036ZM66.084 0.0959988C65.316 1.776 64.092 3.552 62.868 4.752C63.276 5.088 63.996 5.856 64.308 6.192C65.604 4.824 67.02 2.64 67.956 0.696L66.084 0.0959988ZM66.78 4.944C65.964 6.984 64.572 9 63.084 10.32C63.468 10.704 64.092 11.592 64.308 11.976C65.964 10.392 67.596 7.92 68.58 5.472L66.78 4.944ZM58.86 0.0719991C58.404 1.704 57.468 4.008 56.7 5.4L58.236 6C59.028 4.656 60.036 2.52 60.852 0.743999L58.86 0.0719991ZM61.404 2.952C60.252 5.496 58.164 9 56.532 11.136L57.852 11.856C59.556 9.816 61.668 6.456 63.252 3.792L61.404 2.952ZM55.596 5.28C56.82 6.456 58.188 8.136 58.764 9.288L59.868 7.44C59.316 6.384 57.876 4.8 56.628 3.672L55.596 5.28ZM60.492 8.52C61.356 10.104 62.172 12.216 62.436 13.512L64.116 12.816C63.852 11.496 62.964 9.48 62.076 7.92L60.492 8.52ZM55.428 10.632L55.836 12.672C57.876 12.552 60.348 12.384 62.796 12.192L62.868 10.536C60.084 10.584 57.348 10.632 55.428 10.632ZM61.212 14.376C61.764 15.888 62.292 17.856 62.46 19.128L64.14 18.624C63.924 17.352 63.372 15.408 62.772 13.92L61.212 14.376ZM56.508 13.944C56.316 16.008 55.932 18.168 55.236 19.608C55.668 19.776 56.484 20.16 56.868 20.4C57.564 18.864 58.044 16.512 58.308 14.256L56.508 13.944ZM58.836 11.592V22.32H60.78V11.592H58.836ZM65.148 9.096V22.32H67.092V7.632L66.756 7.488L65.148 9.096Z" fill="#fafafa"/>
<path d="M83.124 14.76V22.392H85.332V16.272H96.516V22.368H98.82V14.76H83.124ZM84.276 17.472V18.864H97.356V17.472H84.276ZM84.276 20.136V21.648H97.356V20.136H84.276ZM89.58 0V13.2H91.86V0H89.58ZM82.596 1.608V3.024H96.444V7.008H82.332V8.424H98.7V1.608H82.596ZM80.1 4.176V5.808H101.556V4.176H80.1ZM81.732 9.552V10.992H99.876V9.552H81.732ZM80.052 12.168V13.8H101.556V12.168H80.052Z" fill="#fafafa"/>
<path d="M106.956 3.528L107.1 5.712C110.628 6.048 113.964 6.048 116.412 5.832C118.404 5.664 120.468 5.256 122.1 4.8L121.788 2.616C119.94 3.216 117.972 3.6 115.908 3.768C113.412 3.984 110.364 3.936 106.956 3.528ZM106.5 8.496L106.644 10.752C110.868 11.04 115.404 10.968 118.404 10.608C120.372 10.392 122.172 10.032 123.54 9.672L123.156 7.44C121.836 7.824 119.964 8.304 117.54 8.544C114.708 8.856 110.7 8.928 106.5 8.496ZM114.636 3.648C114.948 4.824 115.26 5.928 115.86 7.584C116.508 9.456 117.468 11.664 118.788 13.776C118.044 13.68 116.604 13.536 115.428 13.416L115.236 15.24C116.94 15.432 119.34 15.696 120.684 16.008L121.884 14.208C121.5 13.848 121.188 13.512 120.9 13.104C119.7 11.328 118.596 8.928 117.972 7.152C117.372 5.376 116.7 3.096 116.436 0.959999L113.892 1.272C114.18 2.064 114.42 2.856 114.636 3.648ZM110.484 13.848L108.132 13.368C107.58 14.472 107.124 15.552 107.148 16.992C107.196 20.232 109.98 21.624 114.708 21.624C116.724 21.624 118.74 21.48 120.42 21.192L120.54 18.792C118.812 19.128 116.94 19.296 114.684 19.296C111.18 19.296 109.452 18.432 109.452 16.536C109.452 15.48 109.908 14.664 110.484 13.848Z" fill="#fafafa"/>
<path d="M62.166 37.704V42.312C62.202 42.756 62.55 43.02 63.21 43.104L63.156 44.166C62.208 44.166 61.494 43.926 61.014 43.446C59.946 43.926 58.866 44.166 57.774 44.166C56.946 44.166 56.316 43.932 55.884 43.464C55.452 42.996 55.236 42.324 55.236 41.448C55.236 40.572 55.458 39.93 55.902 39.522C56.346 39.102 57.042 38.844 57.99 38.748L60.816 38.478V37.704C60.816 37.092 60.684 36.654 60.42 36.39C60.156 36.126 59.796 35.994 59.34 35.994C58.86 35.994 58.368 36.012 57.864 36.048C57.372 36.072 56.868 36.114 56.352 36.174L55.794 36.228L55.74 35.202C57.024 34.938 58.194 34.806 59.25 34.806C60.27 34.806 61.008 35.04 61.464 35.508C61.932 35.964 62.166 36.696 62.166 37.704ZM56.622 41.376C56.622 42.48 57.078 43.032 57.99 43.032C58.794 43.032 59.598 42.894 60.402 42.618L60.816 42.474V39.504L58.152 39.756C57.612 39.804 57.222 39.96 56.982 40.224C56.742 40.488 56.622 40.872 56.622 41.376Z" fill="#71717a"/>
<path d="M69.4915 34.986V36.156H66.6295V40.458C66.6295 41.502 66.7075 42.18 66.8635 42.492C67.0075 42.816 67.3615 42.978 67.9255 42.978L69.5275 42.87L69.6175 43.986C69.2095 44.046 68.8495 44.094 68.5375 44.13C68.2375 44.166 67.9855 44.184 67.7815 44.184C67.3135 44.184 66.9175 44.13 66.5935 44.022C66.2815 43.926 66.0295 43.752 65.8375 43.5C65.6455 43.248 65.5075 42.912 65.4235 42.492C65.3395 42.072 65.2975 41.538 65.2975 40.89V36.156H64.0195V34.986H65.2975V32.232H66.6295V34.986H69.4915Z" fill="#71717a"/>
<path d="M75.1132 43.752V34.986H76.4452V43.77C76.4452 44.322 76.4032 44.796 76.3192 45.192C76.2352 45.588 76.0792 45.942 75.8512 46.254C75.6232 46.566 75.3172 46.86 74.9332 47.136C74.5492 47.412 74.0572 47.7 73.4572 48L72.9172 46.956C73.3852 46.692 73.7632 46.452 74.0512 46.236C74.3392 46.02 74.5612 45.798 74.7172 45.57C74.8732 45.342 74.9752 45.084 75.0232 44.796C75.0832 44.52 75.1132 44.172 75.1132 43.752ZM76.4452 32.952H75.1132V31.386H76.4452V32.952Z" fill="#71717a"/>
<path d="M78.6367 39.468C78.6367 38.64 78.7027 37.932 78.8347 37.344C78.9787 36.756 79.2067 36.276 79.5187 35.904C79.8307 35.52 80.2327 35.244 80.7247 35.076C81.2167 34.896 81.8107 34.806 82.5067 34.806C83.2027 34.806 83.7907 34.896 84.2707 35.076C84.7627 35.244 85.1587 35.52 85.4587 35.904C85.7707 36.276 85.9927 36.756 86.1247 37.344C86.2687 37.932 86.3407 38.64 86.3407 39.468C86.3407 40.296 86.2747 41.004 86.1427 41.592C86.0227 42.18 85.8127 42.666 85.5127 43.05C85.2127 43.434 84.8167 43.716 84.3247 43.896C83.8327 44.076 83.2207 44.166 82.4887 44.166C81.7567 44.166 81.1447 44.076 80.6527 43.896C80.1607 43.716 79.7647 43.434 79.4647 43.05C79.1647 42.666 78.9487 42.18 78.8167 41.592C78.6967 41.004 78.6367 40.296 78.6367 39.468ZM80.0227 39.432C80.0227 40.092 80.0527 40.65 80.1127 41.106C80.1847 41.55 80.3107 41.916 80.4907 42.204C80.6827 42.48 80.9407 42.684 81.2647 42.816C81.5887 42.936 82.0027 42.996 82.5067 42.996C83.0107 42.996 83.4187 42.936 83.7307 42.816C84.0547 42.696 84.3067 42.498 84.4867 42.222C84.6667 41.934 84.7867 41.568 84.8467 41.124C84.9187 40.668 84.9547 40.11 84.9547 39.45C84.9547 38.79 84.9127 38.238 84.8287 37.794C84.7567 37.35 84.6247 36.996 84.4327 36.732C84.2407 36.456 83.9887 36.264 83.6767 36.156C83.3647 36.036 82.9747 35.976 82.5067 35.976C82.0387 35.976 81.6427 36.036 81.3187 36.156C81.0067 36.264 80.7547 36.456 80.5627 36.732C80.3707 36.996 80.2327 37.35 80.1487 37.794C80.0647 38.226 80.0227 38.772 80.0227 39.432Z" fill="#71717a"/>
<path d="M94.1584 42.294V34.986H95.5084V43.986H94.1584V43.356C93.2584 43.896 92.3704 44.166 91.4944 44.166C90.8824 44.166 90.3784 44.094 89.9824 43.95C89.5864 43.806 89.2744 43.56 89.0464 43.212C88.8304 42.864 88.6744 42.408 88.5784 41.844C88.4944 41.268 88.4524 40.548 88.4524 39.684V34.986H89.8024V39.666C89.8024 40.314 89.8264 40.854 89.8744 41.286C89.9224 41.706 90.0124 42.042 90.1444 42.294C90.2764 42.546 90.4684 42.72 90.7204 42.816C90.9724 42.912 91.2964 42.96 91.6924 42.96C92.0884 42.96 92.4904 42.906 92.8984 42.798C93.3064 42.678 93.6184 42.564 93.8344 42.456L94.1584 42.294Z" fill="#71717a"/>
<path d="M99.5629 43.986V31.062H98.2129V43.986H99.5629Z" fill="#71717a"/>
<path d="M108.391 42.87L108.913 42.816L108.949 43.878C108.265 43.974 107.629 44.046 107.041 44.094C106.465 44.142 105.931 44.166 105.439 44.166C104.143 44.166 103.225 43.794 102.685 43.05C102.145 42.294 101.875 41.124 101.875 39.54C101.875 36.384 103.129 34.806 105.637 34.806C106.861 34.806 107.767 35.148 108.355 35.832C108.955 36.504 109.255 37.566 109.255 39.018L109.183 40.044H103.243C103.243 41.052 103.423 41.796 103.783 42.276C104.143 42.744 104.773 42.978 105.673 42.978C106.573 42.978 107.479 42.942 108.391 42.87ZM103.225 38.964H107.905C107.905 37.86 107.725 37.08 107.365 36.624C107.017 36.168 106.447 35.94 105.655 35.94C104.851 35.94 104.245 36.18 103.837 36.66C103.441 37.14 103.237 37.908 103.225 38.964Z" fill="#71717a"/>
<path d="M113.051 43.986H115.751L118.289 34.986H116.903L114.725 42.816H114.059L111.953 34.986H110.513L113.051 43.986Z" fill="#71717a"/>
<path d="M121.411 43.986V41.934H119.935V43.986H121.411Z" fill="#71717a"/>
<path d="M129.49 31.062H130.822V43.986H129.49V43.374C128.566 43.902 127.654 44.166 126.754 44.166C126.07 44.166 125.518 44.046 125.098 43.806C124.678 43.566 124.348 43.242 124.108 42.834C123.88 42.426 123.724 41.958 123.64 41.43C123.556 40.89 123.514 40.326 123.514 39.738C123.514 37.986 123.802 36.726 124.378 35.958C124.966 35.19 125.932 34.806 127.276 34.806C128.008 34.806 128.746 34.884 129.49 35.04V31.062ZM126.988 42.96C127.156 42.96 127.336 42.948 127.528 42.924C127.732 42.888 127.93 42.846 128.122 42.798C128.326 42.738 128.512 42.678 128.68 42.618C128.86 42.558 129.01 42.504 129.13 42.456L129.49 42.294V36.192C128.722 36.048 128.008 35.976 127.348 35.976C126.436 35.976 125.8 36.264 125.44 36.84C125.08 37.416 124.9 38.322 124.9 39.558C124.9 39.942 124.918 40.338 124.954 40.746C124.99 41.142 125.074 41.508 125.206 41.844C125.35 42.168 125.56 42.438 125.836 42.654C126.124 42.858 126.508 42.96 126.988 42.96Z" fill="#71717a"/>
<path d="M139.557 42.87L140.079 42.816L140.115 43.878C139.431 43.974 138.795 44.046 138.207 44.094C137.631 44.142 137.097 44.166 136.605 44.166C135.309 44.166 134.391 43.794 133.851 43.05C133.311 42.294 133.041 41.124 133.041 39.54C133.041 36.384 134.295 34.806 136.803 34.806C138.027 34.806 138.933 35.148 139.521 35.832C140.121 36.504 140.421 37.566 140.421 39.018L140.349 40.044H134.409C134.409 41.052 134.589 41.796 134.949 42.276C135.309 42.744 135.939 42.978 136.839 42.978C137.739 42.978 138.645 42.942 139.557 42.87ZM134.391 38.964H139.071C139.071 37.86 138.891 37.08 138.531 36.624C138.183 36.168 137.613 35.94 136.821 35.94C136.017 35.94 135.411 36.18 135.003 36.66C134.607 37.14 134.403 37.908 134.391 38.964Z" fill="#71717a"/>
<path d="M144.217 43.986H146.917L149.455 34.986H148.069L145.891 42.816H145.225L143.119 34.986H141.679L144.217 43.986Z" fill="#71717a"/>
</svg>
