<svg width="133" height="48" viewBox="0 0 133 48" fill="none" xmlns="http://www.w3.org/2000/svg">
<path d="M2.17679 32.4746C1.22461 33.0455 0.0136719 32.3595 0.0136719 31.2494V16.7437C0.0136719 15.635 1.22166 14.9489 2.1739 15.5167L14.3044 22.7501C15.2323 23.3034 15.2339 24.6468 14.3073 25.2023L2.17679 32.4746Z" fill="#F5F5F4"/>
<path d="M24.5351 18.4334C24.9344 18.698 25.1745 19.1452 25.1745 19.6243V28.3087C25.1745 28.7869 24.9352 29.2334 24.5371 29.4983L0.653773 45.3819C-0.523843 46.1651 0.0306067 48 1.44487 48H16.1748C16.4542 48 16.7274 47.9181 16.9607 47.7644L36.3796 34.9711C36.7807 34.7068 37.0222 34.2585 37.0222 33.7781V14.229C37.0222 13.7448 36.7769 13.2935 36.3705 13.0301L16.6147 0.229666C16.3833 0.0797621 16.1136 -2.59446e-07 15.8379 0L1.4596 1.35319e-05C0.0441101 1.48641e-05 -0.50945 1.83753 0.670493 2.61943L24.5351 18.4334Z" fill="#F5F5F4"/>
<path d="M67.0822 23.955V30.795C67.1022 31.235 67.2122 31.565 67.4122 31.785C67.6322 31.985 67.9622 32.115 68.4022 32.175L68.3122 34.665C66.5722 34.665 65.2422 34.295 64.3222 33.555C62.7622 34.295 61.1522 34.665 59.4922 34.665C56.5122 34.665 55.0222 33.075 55.0222 29.895C55.0222 28.375 55.4222 27.275 56.2222 26.595C57.0222 25.915 58.2722 25.505 59.9722 25.365L63.8422 25.035V23.955C63.8422 23.155 63.6622 22.595 63.3022 22.275C62.9622 21.955 62.4522 21.795 61.7722 21.795C61.1322 21.795 60.4122 21.815 59.6122 21.855C58.8122 21.895 57.9322 21.955 56.9722 22.035L56.0122 22.095L55.8922 19.785C58.1322 19.265 60.1422 19.005 61.9222 19.005C63.7622 19.005 65.0822 19.395 65.8822 20.175C66.6822 20.955 67.0822 22.215 67.0822 23.955ZM63.8422 27.345L60.3622 27.675C58.9822 27.795 58.2922 28.545 58.2922 29.925C58.2922 31.305 58.9022 31.995 60.1222 31.995C61.1622 31.995 62.2222 31.835 63.3022 31.515L63.8422 31.335V27.345Z" fill="#F5F5F4"/>
<path d="M74.4573 22.695V34.335H71.1873V19.335H74.4273V20.265C75.9073 19.425 77.2873 19.005 78.5673 19.005C79.5673 19.005 80.3973 19.145 81.0573 19.425C81.7173 19.685 82.2473 20.115 82.6473 20.715C83.0473 21.295 83.3273 22.045 83.4873 22.965C83.6673 23.885 83.7573 24.995 83.7573 26.295V34.335H80.5173V26.385C80.5173 25.565 80.4773 24.875 80.3973 24.315C80.3173 23.755 80.1773 23.295 79.9773 22.935C79.7973 22.575 79.5273 22.315 79.1673 22.155C78.8273 21.995 78.3873 21.915 77.8473 21.915C76.8473 21.915 75.8673 22.115 74.9073 22.515L74.4573 22.695Z" fill="#F5F5F4"/>
<path d="M90.8342 34.335V19.335H87.5642V34.335H90.8342ZM90.8342 16.785V13.335H87.5642V16.785H90.8342Z" fill="#F5F5F4"/>
<path d="M98.0706 22.695V34.335H94.8006V19.335H98.0406V20.265C99.4606 19.425 100.761 19.005 101.941 19.005C103.681 19.005 104.951 19.495 105.751 20.475C107.571 19.495 109.381 19.005 111.181 19.005C112.081 19.005 112.841 19.135 113.461 19.395C114.101 19.655 114.611 20.085 114.991 20.685C115.391 21.265 115.671 22.015 115.831 22.935C116.011 23.855 116.101 24.975 116.101 26.295V34.335H112.861V26.385C112.861 24.765 112.691 23.615 112.351 22.935C112.031 22.255 111.351 21.915 110.311 21.915C109.451 21.915 108.481 22.115 107.401 22.515L106.891 22.725C107.051 23.145 107.131 24.425 107.131 26.565V34.335H103.891V26.625C103.891 25.725 103.851 24.975 103.771 24.375C103.711 23.775 103.591 23.295 103.411 22.935C103.231 22.575 102.971 22.315 102.631 22.155C102.291 21.995 101.851 21.915 101.311 21.915C100.351 21.915 99.4206 22.115 98.5206 22.515L98.0706 22.695Z" fill="#F5F5F4"/>
<path d="M130.617 31.635L131.457 31.545L131.517 33.975C130.377 34.195 129.307 34.365 128.307 34.485C127.307 34.605 126.357 34.665 125.457 34.665C123.237 34.665 121.637 34.055 120.657 32.835C119.697 31.615 119.217 29.665 119.217 26.985C119.217 21.665 121.387 19.005 125.727 19.005C129.927 19.005 132.027 21.295 132.027 25.875L131.817 28.215H122.517C122.537 29.455 122.807 30.365 123.327 30.945C123.847 31.525 124.817 31.815 126.237 31.815C127.657 31.815 129.117 31.755 130.617 31.635ZM122.487 25.695H128.817C128.817 24.195 128.587 23.155 128.127 22.575C127.667 21.995 126.867 21.705 125.727 21.705C124.587 21.705 123.767 22.015 123.267 22.635C122.767 23.235 122.507 24.255 122.487 25.695Z" fill="#F5F5F4"/>
</svg>
