<svg width="133" height="48" viewBox="0 0 133 48" fill="none" xmlns="http://www.w3.org/2000/svg">
<path d="M2.16312 32.4746C1.21094 33.0455 4.46666e-08 32.3595 4.46666e-08 31.2494V16.7437C4.46666e-08 15.635 1.20799 14.9489 2.16022 15.5167L14.2907 22.7501C15.2186 23.3034 15.2202 24.6468 14.2936 25.2023L2.16312 32.4746Z" fill="#1C1917"/>
<path d="M24.5214 18.4334C24.9207 18.698 25.1609 19.1452 25.1609 19.6243V28.3087C25.1609 28.7869 24.9216 29.2334 24.5234 29.4983L0.640101 45.3819C-0.537515 46.1651 0.0169348 48 1.4312 48H16.1611C16.4405 48 16.7138 47.9181 16.9471 47.7644L36.3659 34.9711C36.7671 34.7068 37.0085 34.2585 37.0085 33.7781V14.229C37.0085 13.7448 36.7632 13.2935 36.3568 13.0301L16.601 0.229666C16.3697 0.0797621 16.0999 -2.59446e-07 15.8242 0L1.44593 1.35319e-05C0.0304382 1.48641e-05 -0.523122 1.83753 0.656821 2.61943L24.5214 18.4334Z" fill="#1C1917"/>
<path d="M67.0685 23.955V30.795C67.0885 31.235 67.1985 31.565 67.3985 31.785C67.6185 31.985 67.9485 32.115 68.3885 32.175L68.2985 34.665C66.5585 34.665 65.2285 34.295 64.3085 33.555C62.7485 34.295 61.1385 34.665 59.4785 34.665C56.4985 34.665 55.0085 33.075 55.0085 29.895C55.0085 28.375 55.4085 27.275 56.2085 26.595C57.0085 25.915 58.2585 25.505 59.9585 25.365L63.8285 25.035V23.955C63.8285 23.155 63.6485 22.595 63.2885 22.275C62.9485 21.955 62.4385 21.795 61.7585 21.795C61.1185 21.795 60.3985 21.815 59.5985 21.855C58.7985 21.895 57.9185 21.955 56.9585 22.035L55.9985 22.095L55.8785 19.785C58.1185 19.265 60.1285 19.005 61.9085 19.005C63.7485 19.005 65.0685 19.395 65.8685 20.175C66.6685 20.955 67.0685 22.215 67.0685 23.955ZM63.8285 27.345L60.3485 27.675C58.9685 27.795 58.2785 28.545 58.2785 29.925C58.2785 31.305 58.8885 31.995 60.1085 31.995C61.1485 31.995 62.2085 31.835 63.2885 31.515L63.8285 31.335V27.345Z" fill="#1C1917"/>
<path d="M74.4436 22.695V34.335H71.1736V19.335H74.4136V20.265C75.8936 19.425 77.2736 19.005 78.5536 19.005C79.5536 19.005 80.3836 19.145 81.0436 19.425C81.7036 19.685 82.2336 20.115 82.6336 20.715C83.0336 21.295 83.3136 22.045 83.4736 22.965C83.6536 23.885 83.7436 24.995 83.7436 26.295V34.335H80.5036V26.385C80.5036 25.565 80.4636 24.875 80.3836 24.315C80.3036 23.755 80.1636 23.295 79.9636 22.935C79.7836 22.575 79.5136 22.315 79.1536 22.155C78.8136 21.995 78.3736 21.915 77.8336 21.915C76.8336 21.915 75.8536 22.115 74.8936 22.515L74.4436 22.695Z" fill="#1C1917"/>
<path d="M90.8206 34.335V19.335H87.5506V34.335H90.8206ZM90.8206 16.785V13.335H87.5506V16.785H90.8206Z" fill="#1C1917"/>
<path d="M98.0569 22.695V34.335H94.7869V19.335H98.0269V20.265C99.4469 19.425 100.747 19.005 101.927 19.005C103.667 19.005 104.937 19.495 105.737 20.475C107.557 19.495 109.367 19.005 111.167 19.005C112.067 19.005 112.827 19.135 113.447 19.395C114.087 19.655 114.597 20.085 114.977 20.685C115.377 21.265 115.657 22.015 115.817 22.935C115.997 23.855 116.087 24.975 116.087 26.295V34.335H112.847V26.385C112.847 24.765 112.677 23.615 112.337 22.935C112.017 22.255 111.337 21.915 110.297 21.915C109.437 21.915 108.467 22.115 107.387 22.515L106.877 22.725C107.037 23.145 107.117 24.425 107.117 26.565V34.335H103.877V26.625C103.877 25.725 103.837 24.975 103.757 24.375C103.697 23.775 103.577 23.295 103.397 22.935C103.217 22.575 102.957 22.315 102.617 22.155C102.277 21.995 101.837 21.915 101.297 21.915C100.337 21.915 99.4069 22.115 98.5069 22.515L98.0569 22.695Z" fill="#1C1917"/>
<path d="M130.604 31.635L131.444 31.545L131.504 33.975C130.364 34.195 129.294 34.365 128.294 34.485C127.294 34.605 126.344 34.665 125.444 34.665C123.224 34.665 121.624 34.055 120.644 32.835C119.684 31.615 119.204 29.665 119.204 26.985C119.204 21.665 121.374 19.005 125.714 19.005C129.914 19.005 132.014 21.295 132.014 25.875L131.804 28.215H122.504C122.524 29.455 122.794 30.365 123.314 30.945C123.834 31.525 124.804 31.815 126.224 31.815C127.644 31.815 129.104 31.755 130.604 31.635ZM122.474 25.695H128.804C128.804 24.195 128.574 23.155 128.114 22.575C127.654 21.995 126.854 21.705 125.714 21.705C124.574 21.705 123.754 22.015 123.254 22.635C122.754 23.235 122.494 24.255 122.474 25.695Z" fill="#1C1917"/>
</svg>
