<svg width="216" height="49" viewBox="0 0 216 49" fill="none" xmlns="http://www.w3.org/2000/svg">
<path d="M2.45658 33.0266C1.50439 33.5975 0.293457 32.9115 0.293457 31.8014V17.2957C0.293457 16.187 1.50144 15.5009 2.45368 16.0687L14.5841 23.3021C15.5121 23.8554 15.5137 25.1988 14.587 25.7543L2.45658 33.0266Z" fill="#F5F5F4"/>
<path d="M24.8149 18.9854C25.2142 19.25 25.4543 19.6972 25.4543 20.1763V28.8607C25.4543 29.3389 25.215 29.7854 24.8168 30.0503L0.933559 45.9339C-0.244058 46.7171 0.310392 48.552 1.72466 48.552H16.4546C16.734 48.552 17.0072 48.4701 17.2405 48.3164L36.6594 35.5231C37.0605 35.2588 37.302 34.8106 37.302 34.3301V14.781C37.302 14.2968 37.0567 13.8455 36.6502 13.5821L16.8945 0.781668C16.6631 0.631764 16.3933 0.552002 16.1177 0.552002L1.73939 0.552015C0.323895 0.552017 -0.229665 2.38954 0.950278 3.17143L24.8149 18.9854Z" fill="#F5F5F4"/>
<path d="M58.572 38.277H55.302V16.827H58.542V17.757C59.922 16.917 61.212 16.497 62.412 16.497C63.412 16.497 64.272 16.647 64.992 16.947C65.712 17.227 66.302 17.687 66.762 18.327C67.222 18.947 67.562 19.757 67.782 20.757C68.022 21.757 68.142 22.967 68.142 24.387C68.142 25.807 68.012 27.017 67.752 28.017C67.512 28.997 67.122 29.797 66.582 30.417C66.042 31.017 65.342 31.457 64.482 31.737C63.642 32.017 62.622 32.157 61.422 32.157C60.602 32.157 59.652 32.067 58.572 31.887V38.277ZM61.842 19.407C60.902 19.407 59.962 19.617 59.022 20.037L58.572 20.247V29.097C58.972 29.177 59.392 29.237 59.832 29.277C60.272 29.317 60.732 29.337 61.212 29.337C61.892 29.337 62.462 29.247 62.922 29.067C63.382 28.867 63.752 28.567 64.032 28.167C64.312 27.747 64.512 27.217 64.632 26.577C64.752 25.917 64.812 25.117 64.812 24.177C64.812 20.997 63.822 19.407 61.842 19.407Z" fill="#F5F5F4"/>
<path d="M74.6853 31.827H71.4153V16.827H74.6553V18.627C76.3353 17.547 78.0353 16.837 79.7553 16.497V19.767C78.0953 20.087 76.6253 20.527 75.3453 21.087L74.6853 21.357V31.827Z" fill="#F5F5F4"/>
<path d="M92.9351 29.127L93.7751 29.037L93.8351 31.467C92.6951 31.687 91.6251 31.857 90.6251 31.977C89.6251 32.097 88.6751 32.157 87.7751 32.157C85.5551 32.157 83.9551 31.547 82.9751 30.327C82.0151 29.107 81.5351 27.157 81.5351 24.477C81.5351 19.157 83.7051 16.497 88.0451 16.497C92.2451 16.497 94.3451 18.787 94.3451 23.367L94.1351 25.707H84.8351C84.8551 26.947 85.1251 27.857 85.6451 28.437C86.1651 29.017 87.1351 29.307 88.5551 29.307C89.9751 29.307 91.4351 29.247 92.9351 29.127ZM84.8051 23.187H91.1351C91.1351 21.687 90.9051 20.647 90.4451 20.067C89.9851 19.487 89.1851 19.197 88.0451 19.197C86.9051 19.197 86.0851 19.507 85.5851 20.127C85.0851 20.727 84.8251 21.747 84.8051 23.187Z" fill="#F5F5F4"/>
<path d="M107.96 17.187L107.9 19.917C106.7 19.757 105.67 19.637 104.81 19.557C103.97 19.477 103.29 19.437 102.77 19.437C101.69 19.437 100.95 19.567 100.55 19.827C100.15 20.067 99.9495 20.457 99.9495 20.997C99.9495 21.537 100.18 21.917 100.64 22.137C100.86 22.237 101.23 22.357 101.75 22.497C102.29 22.617 102.98 22.747 103.82 22.887C104.66 23.027 105.37 23.207 105.95 23.427C106.53 23.647 107 23.937 107.36 24.297C107.72 24.637 107.98 25.077 108.14 25.617C108.32 26.137 108.41 26.787 108.41 27.567C108.41 29.147 107.9 30.307 106.88 31.047C105.88 31.787 104.41 32.157 102.47 32.157C101.85 32.157 101.16 32.107 100.4 32.007C99.6395 31.927 98.7895 31.807 97.8495 31.647L96.9195 31.497L97.0395 28.767C98.2395 28.927 99.2695 29.047 100.13 29.127C101.01 29.207 101.71 29.247 102.23 29.247C103.31 29.247 104.07 29.117 104.51 28.857C104.95 28.597 105.17 28.167 105.17 27.567C105.17 26.967 104.96 26.547 104.54 26.307C104.32 26.207 103.95 26.097 103.43 25.977C102.93 25.837 102.27 25.697 101.45 25.557C100.63 25.417 99.9195 25.257 99.3195 25.077C98.7395 24.877 98.2495 24.617 97.8495 24.297C97.4695 23.957 97.1795 23.537 96.9795 23.037C96.7995 22.537 96.7095 21.897 96.7095 21.117C96.7095 20.337 96.8495 19.667 97.1295 19.107C97.4095 18.527 97.7895 18.047 98.2695 17.667C98.7695 17.287 99.3595 17.007 100.04 16.827C100.74 16.627 101.5 16.527 102.32 16.527C102.96 16.527 103.67 16.567 104.45 16.647C105.23 16.727 106.09 16.847 107.03 17.007L107.96 17.187Z" fill="#F5F5F4"/>
<path d="M122.232 29.127L123.072 29.037L123.132 31.467C121.992 31.687 120.922 31.857 119.922 31.977C118.922 32.097 117.972 32.157 117.072 32.157C114.852 32.157 113.252 31.547 112.272 30.327C111.312 29.107 110.832 27.157 110.832 24.477C110.832 19.157 113.002 16.497 117.342 16.497C121.542 16.497 123.642 18.787 123.642 23.367L123.432 25.707H114.132C114.152 26.947 114.422 27.857 114.942 28.437C115.462 29.017 116.432 29.307 117.852 29.307C119.272 29.307 120.732 29.247 122.232 29.127ZM114.102 23.187H120.432C120.432 21.687 120.202 20.647 119.742 20.067C119.282 19.487 118.482 19.197 117.342 19.197C116.202 19.197 115.382 19.507 114.882 20.127C114.382 20.727 114.122 21.747 114.102 23.187Z" fill="#F5F5F4"/>
<path d="M130.056 20.187V31.827H126.786V16.827H130.026V17.757C131.506 16.917 132.886 16.497 134.166 16.497C135.166 16.497 135.996 16.637 136.656 16.917C137.316 17.177 137.846 17.607 138.246 18.207C138.646 18.787 138.926 19.537 139.086 20.457C139.266 21.377 139.356 22.487 139.356 23.787V31.827H136.116V23.877C136.116 23.057 136.076 22.367 135.996 21.807C135.916 21.247 135.776 20.787 135.576 20.427C135.396 20.067 135.126 19.807 134.766 19.647C134.426 19.487 133.986 19.407 133.446 19.407C132.446 19.407 131.466 19.607 130.506 20.007L130.056 20.187Z" fill="#F5F5F4"/>
<path d="M151.233 16.827V19.617H147.093V26.217C147.093 26.817 147.103 27.317 147.123 27.717C147.163 28.117 147.243 28.427 147.363 28.647C147.483 28.867 147.653 29.027 147.873 29.127C148.093 29.207 148.383 29.247 148.743 29.247L151.203 29.157L151.353 31.767C150.053 32.027 149.033 32.157 148.293 32.157C147.453 32.157 146.743 32.067 146.163 31.887C145.603 31.707 145.143 31.407 144.783 30.987C144.443 30.567 144.203 29.997 144.063 29.277C143.923 28.557 143.853 27.657 143.853 26.577V19.617H141.933V16.827H143.853V12.477H147.093V16.827H151.233Z" fill="#F5F5F4"/>
<path d="M165.015 21.447V28.287C165.035 28.727 165.145 29.057 165.345 29.277C165.565 29.477 165.895 29.607 166.335 29.667L166.245 32.157C164.505 32.157 163.175 31.787 162.255 31.047C160.695 31.787 159.085 32.157 157.425 32.157C154.445 32.157 152.955 30.567 152.955 27.387C152.955 25.867 153.355 24.767 154.155 24.087C154.955 23.407 156.205 22.997 157.905 22.857L161.775 22.527V21.447C161.775 20.647 161.595 20.087 161.235 19.767C160.895 19.447 160.385 19.287 159.705 19.287C159.065 19.287 158.345 19.307 157.545 19.347C156.745 19.387 155.865 19.447 154.905 19.527L153.945 19.587L153.825 17.277C156.065 16.757 158.075 16.497 159.855 16.497C161.695 16.497 163.015 16.887 163.815 17.667C164.615 18.447 165.015 19.707 165.015 21.447ZM161.775 24.837L158.295 25.167C156.915 25.287 156.225 26.037 156.225 27.417C156.225 28.797 156.835 29.487 158.055 29.487C159.095 29.487 160.155 29.327 161.235 29.007L161.775 28.827V24.837Z" fill="#F5F5F4"/>
<path d="M177.19 16.827V19.617H173.05V26.217C173.05 26.817 173.06 27.317 173.08 27.717C173.12 28.117 173.2 28.427 173.32 28.647C173.44 28.867 173.61 29.027 173.83 29.127C174.05 29.207 174.34 29.247 174.7 29.247L177.16 29.157L177.31 31.767C176.01 32.027 174.99 32.157 174.25 32.157C173.41 32.157 172.7 32.067 172.12 31.887C171.56 31.707 171.1 31.407 170.74 30.987C170.4 30.567 170.16 29.997 170.02 29.277C169.88 28.557 169.81 27.657 169.81 26.577V19.617H167.89V16.827H169.81V12.477H173.05V16.827H177.19Z" fill="#F5F5F4"/>
<path d="M183.142 31.827V16.827H179.872V31.827H183.142ZM183.142 14.277V10.827H179.872V14.277H183.142Z" fill="#F5F5F4"/>
<path d="M193.079 16.497C195.479 16.497 197.189 17.147 198.209 18.447C199.249 19.747 199.769 21.697 199.769 24.297C199.769 25.597 199.649 26.737 199.409 27.717C199.169 28.697 198.789 29.517 198.269 30.177C197.749 30.837 197.059 31.337 196.199 31.677C195.359 31.997 194.319 32.157 193.079 32.157C191.859 32.157 190.819 31.997 189.959 31.677C189.099 31.337 188.409 30.837 187.889 30.177C187.369 29.517 186.989 28.697 186.749 27.717C186.509 26.737 186.389 25.597 186.389 24.297C186.389 23.117 186.499 22.047 186.719 21.087C186.939 20.127 187.299 19.307 187.799 18.627C188.319 17.947 189.009 17.427 189.869 17.067C190.729 16.687 191.799 16.497 193.079 16.497ZM190.379 28.197C190.819 28.997 191.719 29.397 193.079 29.397C193.739 29.397 194.289 29.307 194.729 29.127C195.169 28.927 195.519 28.617 195.779 28.197C196.039 27.777 196.219 27.247 196.319 26.607C196.419 25.947 196.469 25.167 196.469 24.267C196.469 22.447 196.219 21.157 195.719 20.397C195.239 19.637 194.359 19.257 193.079 19.257C191.799 19.257 190.909 19.637 190.409 20.397C189.929 21.157 189.689 22.447 189.689 24.267C189.689 26.067 189.919 27.377 190.379 28.197Z" fill="#F5F5F4"/>
<path d="M206.287 20.187V31.827H203.017V16.827H206.257V17.757C207.737 16.917 209.117 16.497 210.397 16.497C211.397 16.497 212.227 16.637 212.887 16.917C213.547 17.177 214.077 17.607 214.477 18.207C214.877 18.787 215.157 19.537 215.317 20.457C215.497 21.377 215.587 22.487 215.587 23.787V31.827H212.347V23.877C212.347 23.057 212.307 22.367 212.227 21.807C212.147 21.247 212.007 20.787 211.807 20.427C211.627 20.067 211.357 19.807 210.997 19.647C210.657 19.487 210.217 19.407 209.677 19.407C208.677 19.407 207.697 19.607 206.737 20.007L206.287 20.187Z" fill="#F5F5F4"/>
</svg>
