<svg width="216" height="48" viewBox="0 0 216 48" fill="none" xmlns="http://www.w3.org/2000/svg">
<path d="M2.45658 32.4746C1.50439 33.0455 0.293457 32.3595 0.293457 31.2494V16.7437C0.293457 15.635 1.50144 14.9489 2.45368 15.5167L14.5841 22.7501C15.5121 23.3034 15.5137 24.6468 14.587 25.2023L2.45658 32.4746Z" fill="#F5F5F4"/>
<path d="M24.8149 18.4334C25.2142 18.698 25.4543 19.1452 25.4543 19.6243V28.3087C25.4543 28.7869 25.215 29.2334 24.8168 29.4983L0.933559 45.3819C-0.244058 46.1651 0.310392 48 1.72466 48H16.4546C16.734 48 17.0072 47.9181 17.2405 47.7644L36.6594 34.9711C37.0605 34.7068 37.302 34.2585 37.302 33.7781V14.229C37.302 13.7448 37.0567 13.2935 36.6502 13.0301L16.8945 0.229666C16.6631 0.0797621 16.3933 -2.59446e-07 16.1177 0L1.73939 1.35319e-05C0.323895 1.48641e-05 -0.229665 1.83753 0.950278 2.61943L24.8149 18.4334Z" fill="#F5F5F4"/>
<path d="M58.572 27.45H55.302V6H58.542V6.93C59.922 6.09 61.212 5.67 62.412 5.67C63.412 5.67 64.272 5.82 64.992 6.12C65.712 6.4 66.302 6.86 66.762 7.5C67.222 8.12 67.562 8.93 67.782 9.93C68.022 10.93 68.142 12.14 68.142 13.56C68.142 14.98 68.012 16.19 67.752 17.19C67.512 18.17 67.122 18.97 66.582 19.59C66.042 20.19 65.342 20.63 64.482 20.91C63.642 21.19 62.622 21.33 61.422 21.33C60.602 21.33 59.652 21.24 58.572 21.06V27.45ZM61.842 8.58C60.902 8.58 59.962 8.79 59.022 9.21L58.572 9.42V18.27C58.972 18.35 59.392 18.41 59.832 18.45C60.272 18.49 60.732 18.51 61.212 18.51C61.892 18.51 62.462 18.42 62.922 18.24C63.382 18.04 63.752 17.74 64.032 17.34C64.312 16.92 64.512 16.39 64.632 15.75C64.752 15.09 64.812 14.29 64.812 13.35C64.812 10.17 63.822 8.58 61.842 8.58Z" fill="#F5F5F4"/>
<path d="M74.6853 21H71.4153V6H74.6553V7.8C76.3353 6.72 78.0353 6.01 79.7553 5.67V8.94C78.0953 9.26 76.6253 9.7 75.3453 10.26L74.6853 10.53V21Z" fill="#F5F5F4"/>
<path d="M92.9351 18.3L93.7751 18.21L93.8351 20.64C92.6951 20.86 91.6251 21.03 90.6251 21.15C89.6251 21.27 88.6751 21.33 87.7751 21.33C85.5551 21.33 83.9551 20.72 82.9751 19.5C82.0151 18.28 81.5351 16.33 81.5351 13.65C81.5351 8.33 83.7051 5.67 88.0451 5.67C92.2451 5.67 94.3451 7.96 94.3451 12.54L94.1351 14.88H84.8351C84.8551 16.12 85.1251 17.03 85.6451 17.61C86.1651 18.19 87.1351 18.48 88.5551 18.48C89.9751 18.48 91.4351 18.42 92.9351 18.3ZM84.8051 12.36H91.1351C91.1351 10.86 90.9051 9.82 90.4451 9.24C89.9851 8.66 89.1851 8.37 88.0451 8.37C86.9051 8.37 86.0851 8.68 85.5851 9.3C85.0851 9.9 84.8251 10.92 84.8051 12.36Z" fill="#F5F5F4"/>
<path d="M107.96 6.36L107.9 9.09C106.7 8.93 105.67 8.81 104.81 8.73C103.97 8.65 103.29 8.61 102.77 8.61C101.69 8.61 100.95 8.74 100.55 9C100.15 9.24 99.9495 9.63 99.9495 10.17C99.9495 10.71 100.18 11.09 100.64 11.31C100.86 11.41 101.23 11.53 101.75 11.67C102.29 11.79 102.98 11.92 103.82 12.06C104.66 12.2 105.37 12.38 105.95 12.6C106.53 12.82 107 13.11 107.36 13.47C107.72 13.81 107.98 14.25 108.14 14.79C108.32 15.31 108.41 15.96 108.41 16.74C108.41 18.32 107.9 19.48 106.88 20.22C105.88 20.96 104.41 21.33 102.47 21.33C101.85 21.33 101.16 21.28 100.4 21.18C99.6395 21.1 98.7895 20.98 97.8495 20.82L96.9195 20.67L97.0395 17.94C98.2395 18.1 99.2695 18.22 100.13 18.3C101.01 18.38 101.71 18.42 102.23 18.42C103.31 18.42 104.07 18.29 104.51 18.03C104.95 17.77 105.17 17.34 105.17 16.74C105.17 16.14 104.96 15.72 104.54 15.48C104.32 15.38 103.95 15.27 103.43 15.15C102.93 15.01 102.27 14.87 101.45 14.73C100.63 14.59 99.9195 14.43 99.3195 14.25C98.7395 14.05 98.2495 13.79 97.8495 13.47C97.4695 13.13 97.1795 12.71 96.9795 12.21C96.7995 11.71 96.7095 11.07 96.7095 10.29C96.7095 9.51 96.8495 8.84 97.1295 8.28C97.4095 7.7 97.7895 7.22 98.2695 6.84C98.7695 6.46 99.3595 6.18 100.04 6C100.74 5.8 101.5 5.7 102.32 5.7C102.96 5.7 103.67 5.74 104.45 5.82C105.23 5.9 106.09 6.02 107.03 6.18L107.96 6.36Z" fill="#F5F5F4"/>
<path d="M122.232 18.3L123.072 18.21L123.132 20.64C121.992 20.86 120.922 21.03 119.922 21.15C118.922 21.27 117.972 21.33 117.072 21.33C114.852 21.33 113.252 20.72 112.272 19.5C111.312 18.28 110.832 16.33 110.832 13.65C110.832 8.33 113.002 5.67 117.342 5.67C121.542 5.67 123.642 7.96 123.642 12.54L123.432 14.88H114.132C114.152 16.12 114.422 17.03 114.942 17.61C115.462 18.19 116.432 18.48 117.852 18.48C119.272 18.48 120.732 18.42 122.232 18.3ZM114.102 12.36H120.432C120.432 10.86 120.202 9.82 119.742 9.24C119.282 8.66 118.482 8.37 117.342 8.37C116.202 8.37 115.382 8.68 114.882 9.3C114.382 9.9 114.122 10.92 114.102 12.36Z" fill="#F5F5F4"/>
<path d="M130.056 9.36V21H126.786V6H130.026V6.93C131.506 6.09 132.886 5.67 134.166 5.67C135.166 5.67 135.996 5.81 136.656 6.09C137.316 6.35 137.846 6.78 138.246 7.38C138.646 7.96 138.926 8.71 139.086 9.63C139.266 10.55 139.356 11.66 139.356 12.96V21H136.116V13.05C136.116 12.23 136.076 11.54 135.996 10.98C135.916 10.42 135.776 9.96 135.576 9.6C135.396 9.24 135.126 8.98 134.766 8.82C134.426 8.66 133.986 8.58 133.446 8.58C132.446 8.58 131.466 8.78 130.506 9.18L130.056 9.36Z" fill="#F5F5F4"/>
<path d="M151.233 6V8.79H147.093V15.39C147.093 15.99 147.103 16.49 147.123 16.89C147.163 17.29 147.243 17.6 147.363 17.82C147.483 18.04 147.653 18.2 147.873 18.3C148.093 18.38 148.383 18.42 148.743 18.42L151.203 18.33L151.353 20.94C150.053 21.2 149.033 21.33 148.293 21.33C147.453 21.33 146.743 21.24 146.163 21.06C145.603 20.88 145.143 20.58 144.783 20.16C144.443 19.74 144.203 19.17 144.063 18.45C143.923 17.73 143.853 16.83 143.853 15.75V8.79H141.933V6H143.853V1.65H147.093V6H151.233Z" fill="#F5F5F4"/>
<path d="M165.015 10.62V17.46C165.035 17.9 165.145 18.23 165.345 18.45C165.565 18.65 165.895 18.78 166.335 18.84L166.245 21.33C164.505 21.33 163.175 20.96 162.255 20.22C160.695 20.96 159.085 21.33 157.425 21.33C154.445 21.33 152.955 19.74 152.955 16.56C152.955 15.04 153.355 13.94 154.155 13.26C154.955 12.58 156.205 12.17 157.905 12.03L161.775 11.7V10.62C161.775 9.82 161.595 9.26 161.235 8.94C160.895 8.62 160.385 8.46 159.705 8.46C159.065 8.46 158.345 8.48 157.545 8.52C156.745 8.56 155.865 8.62 154.905 8.7L153.945 8.76L153.825 6.45C156.065 5.93 158.075 5.67 159.855 5.67C161.695 5.67 163.015 6.06 163.815 6.84C164.615 7.62 165.015 8.88 165.015 10.62ZM161.775 14.01L158.295 14.34C156.915 14.46 156.225 15.21 156.225 16.59C156.225 17.97 156.835 18.66 158.055 18.66C159.095 18.66 160.155 18.5 161.235 18.18L161.775 18V14.01Z" fill="#F5F5F4"/>
<path d="M177.19 6V8.79H173.05V15.39C173.05 15.99 173.06 16.49 173.08 16.89C173.12 17.29 173.2 17.6 173.32 17.82C173.44 18.04 173.61 18.2 173.83 18.3C174.05 18.38 174.34 18.42 174.7 18.42L177.16 18.33L177.31 20.94C176.01 21.2 174.99 21.33 174.25 21.33C173.41 21.33 172.7 21.24 172.12 21.06C171.56 20.88 171.1 20.58 170.74 20.16C170.4 19.74 170.16 19.17 170.02 18.45C169.88 17.73 169.81 16.83 169.81 15.75V8.79H167.89V6H169.81V1.65H173.05V6H177.19Z" fill="#F5F5F4"/>
<path d="M183.142 21V6H179.872V21H183.142ZM183.142 3.45V0H179.872V3.45H183.142Z" fill="#F5F5F4"/>
<path d="M193.079 5.67C195.479 5.67 197.189 6.32 198.209 7.62C199.249 8.92 199.769 10.87 199.769 13.47C199.769 14.77 199.649 15.91 199.409 16.89C199.169 17.87 198.789 18.69 198.269 19.35C197.749 20.01 197.059 20.51 196.199 20.85C195.359 21.17 194.319 21.33 193.079 21.33C191.859 21.33 190.819 21.17 189.959 20.85C189.099 20.51 188.409 20.01 187.889 19.35C187.369 18.69 186.989 17.87 186.749 16.89C186.509 15.91 186.389 14.77 186.389 13.47C186.389 12.29 186.499 11.22 186.719 10.26C186.939 9.3 187.299 8.48 187.799 7.8C188.319 7.12 189.009 6.6 189.869 6.24C190.729 5.86 191.799 5.67 193.079 5.67ZM190.379 17.37C190.819 18.17 191.719 18.57 193.079 18.57C193.739 18.57 194.289 18.48 194.729 18.3C195.169 18.1 195.519 17.79 195.779 17.37C196.039 16.95 196.219 16.42 196.319 15.78C196.419 15.12 196.469 14.34 196.469 13.44C196.469 11.62 196.219 10.33 195.719 9.57C195.239 8.81 194.359 8.43 193.079 8.43C191.799 8.43 190.909 8.81 190.409 9.57C189.929 10.33 189.689 11.62 189.689 13.44C189.689 15.24 189.919 16.55 190.379 17.37Z" fill="#F5F5F4"/>
<path d="M206.287 9.36V21H203.017V6H206.257V6.93C207.737 6.09 209.117 5.67 210.397 5.67C211.397 5.67 212.227 5.81 212.887 6.09C213.547 6.35 214.077 6.78 214.477 7.38C214.877 7.96 215.157 8.71 215.317 9.63C215.497 10.55 215.587 11.66 215.587 12.96V21H212.347V13.05C212.347 12.23 212.307 11.54 212.227 10.98C212.147 10.42 212.007 9.96 211.807 9.6C211.627 9.24 211.357 8.98 210.997 8.82C210.657 8.66 210.217 8.58 209.677 8.58C208.677 8.58 207.697 8.78 206.737 9.18L206.287 9.36Z" fill="#F5F5F4"/>
<path d="M62.232 37.704V42.312C62.268 42.756 62.616 43.02 63.276 43.104L63.222 44.166C62.274 44.166 61.56 43.926 61.08 43.446C60.012 43.926 58.932 44.166 57.84 44.166C57.012 44.166 56.382 43.932 55.95 43.464C55.518 42.996 55.302 42.324 55.302 41.448C55.302 40.572 55.524 39.93 55.968 39.522C56.412 39.102 57.108 38.844 58.056 38.748L60.882 38.478V37.704C60.882 37.092 60.75 36.654 60.486 36.39C60.222 36.126 59.862 35.994 59.406 35.994C58.926 35.994 58.434 36.012 57.93 36.048C57.438 36.072 56.934 36.114 56.418 36.174L55.86 36.228L55.806 35.202C57.09 34.938 58.26 34.806 59.316 34.806C60.336 34.806 61.074 35.04 61.53 35.508C61.998 35.964 62.232 36.696 62.232 37.704ZM56.688 41.376C56.688 42.48 57.144 43.032 58.056 43.032C58.86 43.032 59.664 42.894 60.468 42.618L60.882 42.474V39.504L58.218 39.756C57.678 39.804 57.288 39.96 57.048 40.224C56.808 40.488 56.688 40.872 56.688 41.376Z" fill="#78716C"/>
<path d="M69.5576 34.986V36.156H66.6956V40.458C66.6956 41.502 66.7736 42.18 66.9296 42.492C67.0736 42.816 67.4276 42.978 67.9916 42.978L69.5936 42.87L69.6836 43.986C69.2756 44.046 68.9156 44.094 68.6036 44.13C68.3036 44.166 68.0516 44.184 67.8476 44.184C67.3796 44.184 66.9836 44.13 66.6596 44.022C66.3476 43.926 66.0956 43.752 65.9036 43.5C65.7116 43.248 65.5736 42.912 65.4896 42.492C65.4056 42.072 65.3636 41.538 65.3636 40.89V36.156H64.0856V34.986H65.3636V32.232H66.6956V34.986H69.5576Z" fill="#78716C"/>
<path d="M75.1792 43.752V34.986H76.5112V43.77C76.5112 44.322 76.4692 44.796 76.3852 45.192C76.3012 45.588 76.1452 45.942 75.9172 46.254C75.6892 46.566 75.3832 46.86 74.9992 47.136C74.6152 47.412 74.1232 47.7 73.5232 48L72.9832 46.956C73.4512 46.692 73.8292 46.452 74.1172 46.236C74.4052 46.02 74.6272 45.798 74.7832 45.57C74.9392 45.342 75.0412 45.084 75.0892 44.796C75.1492 44.52 75.1792 44.172 75.1792 43.752ZM76.5112 32.952H75.1792V31.386H76.5112V32.952Z" fill="#78716C"/>
<path d="M78.7027 39.468C78.7027 38.64 78.7687 37.932 78.9007 37.344C79.0447 36.756 79.2727 36.276 79.5847 35.904C79.8967 35.52 80.2987 35.244 80.7907 35.076C81.2827 34.896 81.8767 34.806 82.5727 34.806C83.2687 34.806 83.8567 34.896 84.3367 35.076C84.8287 35.244 85.2247 35.52 85.5247 35.904C85.8367 36.276 86.0587 36.756 86.1907 37.344C86.3347 37.932 86.4067 38.64 86.4067 39.468C86.4067 40.296 86.3407 41.004 86.2087 41.592C86.0887 42.18 85.8787 42.666 85.5787 43.05C85.2787 43.434 84.8827 43.716 84.3907 43.896C83.8987 44.076 83.2867 44.166 82.5547 44.166C81.8227 44.166 81.2107 44.076 80.7187 43.896C80.2267 43.716 79.8307 43.434 79.5307 43.05C79.2307 42.666 79.0147 42.18 78.8827 41.592C78.7627 41.004 78.7027 40.296 78.7027 39.468ZM80.0887 39.432C80.0887 40.092 80.1187 40.65 80.1787 41.106C80.2507 41.55 80.3767 41.916 80.5567 42.204C80.7487 42.48 81.0067 42.684 81.3307 42.816C81.6547 42.936 82.0687 42.996 82.5727 42.996C83.0767 42.996 83.4847 42.936 83.7967 42.816C84.1207 42.696 84.3727 42.498 84.5527 42.222C84.7327 41.934 84.8527 41.568 84.9127 41.124C84.9847 40.668 85.0207 40.11 85.0207 39.45C85.0207 38.79 84.9787 38.238 84.8947 37.794C84.8227 37.35 84.6907 36.996 84.4987 36.732C84.3067 36.456 84.0547 36.264 83.7427 36.156C83.4307 36.036 83.0407 35.976 82.5727 35.976C82.1047 35.976 81.7087 36.036 81.3847 36.156C81.0727 36.264 80.8207 36.456 80.6287 36.732C80.4367 36.996 80.2987 37.35 80.2147 37.794C80.1307 38.226 80.0887 38.772 80.0887 39.432Z" fill="#78716C"/>
<path d="M94.2245 42.294V34.986H95.5745V43.986H94.2245V43.356C93.3245 43.896 92.4365 44.166 91.5605 44.166C90.9485 44.166 90.4445 44.094 90.0485 43.95C89.6525 43.806 89.3405 43.56 89.1125 43.212C88.8965 42.864 88.7405 42.408 88.6445 41.844C88.5605 41.268 88.5185 40.548 88.5185 39.684V34.986H89.8685V39.666C89.8685 40.314 89.8925 40.854 89.9405 41.286C89.9885 41.706 90.0785 42.042 90.2105 42.294C90.3425 42.546 90.5345 42.72 90.7865 42.816C91.0385 42.912 91.3625 42.96 91.7585 42.96C92.1545 42.96 92.5565 42.906 92.9645 42.798C93.3725 42.678 93.6845 42.564 93.9005 42.456L94.2245 42.294Z" fill="#78716C"/>
<path d="M99.629 43.986V31.062H98.279V43.986H99.629Z" fill="#78716C"/>
<path d="M108.457 42.87L108.979 42.816L109.015 43.878C108.331 43.974 107.695 44.046 107.107 44.094C106.531 44.142 105.997 44.166 105.505 44.166C104.209 44.166 103.291 43.794 102.751 43.05C102.211 42.294 101.941 41.124 101.941 39.54C101.941 36.384 103.195 34.806 105.703 34.806C106.927 34.806 107.833 35.148 108.421 35.832C109.021 36.504 109.321 37.566 109.321 39.018L109.249 40.044H103.309C103.309 41.052 103.489 41.796 103.849 42.276C104.209 42.744 104.839 42.978 105.739 42.978C106.639 42.978 107.545 42.942 108.457 42.87ZM103.291 38.964H107.971C107.971 37.86 107.791 37.08 107.431 36.624C107.083 36.168 106.513 35.94 105.721 35.94C104.917 35.94 104.311 36.18 103.903 36.66C103.507 37.14 103.303 37.908 103.291 38.964Z" fill="#78716C"/>
<path d="M113.117 43.986H115.817L118.355 34.986H116.969L114.791 42.816H114.125L112.019 34.986H110.579L113.117 43.986Z" fill="#78716C"/>
<path d="M121.477 43.986V41.934H120.001V43.986H121.477Z" fill="#78716C"/>
<path d="M129.556 31.062H130.888V43.986H129.556V43.374C128.632 43.902 127.72 44.166 126.82 44.166C126.136 44.166 125.584 44.046 125.164 43.806C124.744 43.566 124.414 43.242 124.174 42.834C123.946 42.426 123.79 41.958 123.706 41.43C123.622 40.89 123.58 40.326 123.58 39.738C123.58 37.986 123.868 36.726 124.444 35.958C125.032 35.19 125.998 34.806 127.342 34.806C128.074 34.806 128.812 34.884 129.556 35.04V31.062ZM127.054 42.96C127.222 42.96 127.402 42.948 127.594 42.924C127.798 42.888 127.996 42.846 128.188 42.798C128.392 42.738 128.578 42.678 128.746 42.618C128.926 42.558 129.076 42.504 129.196 42.456L129.556 42.294V36.192C128.788 36.048 128.074 35.976 127.414 35.976C126.502 35.976 125.866 36.264 125.506 36.84C125.146 37.416 124.966 38.322 124.966 39.558C124.966 39.942 124.984 40.338 125.02 40.746C125.056 41.142 125.14 41.508 125.272 41.844C125.416 42.168 125.626 42.438 125.902 42.654C126.19 42.858 126.574 42.96 127.054 42.96Z" fill="#78716C"/>
<path d="M139.623 42.87L140.145 42.816L140.181 43.878C139.497 43.974 138.861 44.046 138.273 44.094C137.697 44.142 137.163 44.166 136.671 44.166C135.375 44.166 134.457 43.794 133.917 43.05C133.377 42.294 133.107 41.124 133.107 39.54C133.107 36.384 134.361 34.806 136.869 34.806C138.093 34.806 138.999 35.148 139.587 35.832C140.187 36.504 140.487 37.566 140.487 39.018L140.415 40.044H134.475C134.475 41.052 134.655 41.796 135.015 42.276C135.375 42.744 136.005 42.978 136.905 42.978C137.805 42.978 138.711 42.942 139.623 42.87ZM134.457 38.964H139.137C139.137 37.86 138.957 37.08 138.597 36.624C138.249 36.168 137.679 35.94 136.887 35.94C136.083 35.94 135.477 36.18 135.069 36.66C134.673 37.14 134.469 37.908 134.457 38.964Z" fill="#78716C"/>
<path d="M144.283 43.986H146.983L149.521 34.986H148.135L145.957 42.816H145.291L143.185 34.986H141.745L144.283 43.986Z" fill="#78716C"/>
</svg>
