<svg width="221" height="49" viewBox="0 0 221 49" fill="none" xmlns="http://www.w3.org/2000/svg">
<path d="M2.17167 33.0266C1.21948 33.5975 0.00854497 32.9115 0.00854497 31.8014V17.2957C0.00854497 16.187 1.21653 15.5009 2.16877 16.0687L14.2992 23.3021C15.2272 23.8554 15.2288 25.1988 14.3021 25.7543L2.17167 33.0266Z" fill="#F5F5F4"/>
<path d="M24.5299 18.9854C24.9293 19.25 25.1694 19.6972 25.1694 20.1763V28.8607C25.1694 29.3389 24.9301 29.7854 24.5319 30.0503L0.648646 45.9339C-0.52897 46.7171 0.0254797 48.552 1.43975 48.552H16.1697C16.4491 48.552 16.7223 48.4701 16.9556 48.3164L36.3744 35.5231C36.7756 35.2588 37.0171 34.8106 37.0171 34.3301V14.781C37.0171 14.2968 36.7717 13.8455 36.3653 13.5821L16.6096 0.781668C16.3782 0.631764 16.1084 0.552002 15.8328 0.552002L1.45448 0.552015C0.0389831 0.552017 -0.514577 2.38954 0.665366 3.17143L24.5299 18.9854Z" fill="#F5F5F4"/>
<path d="M60.2671 39.002H56.9971V17.552H60.2371V18.482C61.6171 17.642 62.9071 17.222 64.1071 17.222C65.1071 17.222 65.9671 17.372 66.6871 17.672C67.4071 17.952 67.9971 18.412 68.4571 19.052C68.9171 19.672 69.2571 20.482 69.4771 21.482C69.7171 22.482 69.8371 23.692 69.8371 25.112C69.8371 26.532 69.7071 27.742 69.4471 28.742C69.2071 29.722 68.8171 30.522 68.2771 31.142C67.7371 31.742 67.0371 32.182 66.1771 32.462C65.3371 32.742 64.3171 32.882 63.1171 32.882C62.2971 32.882 61.3471 32.792 60.2671 32.612V39.002ZM63.5371 20.132C62.5971 20.132 61.6571 20.342 60.7171 20.762L60.2671 20.972V29.822C60.6671 29.902 61.0871 29.962 61.5271 30.002C61.9671 30.042 62.4271 30.062 62.9071 30.062C63.5871 30.062 64.1571 29.972 64.6171 29.792C65.0771 29.592 65.4471 29.292 65.7271 28.892C66.0071 28.472 66.2071 27.942 66.3271 27.302C66.4471 26.642 66.5071 25.842 66.5071 24.902C66.5071 21.722 65.5171 20.132 63.5371 20.132ZM76.3804 32.552H73.1104V17.552H76.3504V19.352C78.0304 18.272 79.7304 17.562 81.4504 17.222V20.492C79.7904 20.812 78.3204 21.252 77.0404 21.812L76.3804 22.082V32.552ZM94.6302 29.852L95.4702 29.762L95.5302 32.192C94.3902 32.412 93.3202 32.582 92.3202 32.702C91.3202 32.822 90.3702 32.882 89.4702 32.882C87.2502 32.882 85.6502 32.272 84.6702 31.052C83.7102 29.832 83.2302 27.882 83.2302 25.202C83.2302 19.882 85.4002 17.222 89.7402 17.222C93.9402 17.222 96.0402 19.512 96.0402 24.092L95.8302 26.432H86.5302C86.5502 27.672 86.8202 28.582 87.3402 29.162C87.8602 29.742 88.8302 30.032 90.2502 30.032C91.6702 30.032 93.1302 29.972 94.6302 29.852ZM86.5002 23.912H92.8302C92.8302 22.412 92.6002 21.372 92.1402 20.792C91.6802 20.212 90.8802 19.922 89.7402 19.922C88.6002 19.922 87.7802 20.232 87.2802 20.852C86.7802 21.452 86.5202 22.472 86.5002 23.912ZM109.655 17.912L109.595 20.642C108.395 20.482 107.365 20.362 106.505 20.282C105.665 20.202 104.985 20.162 104.465 20.162C103.385 20.162 102.645 20.292 102.245 20.552C101.845 20.792 101.645 21.182 101.645 21.722C101.645 22.262 101.875 22.642 102.335 22.862C102.555 22.962 102.925 23.082 103.445 23.222C103.985 23.342 104.675 23.472 105.515 23.612C106.355 23.752 107.065 23.932 107.645 24.152C108.225 24.372 108.695 24.662 109.055 25.022C109.415 25.362 109.675 25.802 109.835 26.342C110.015 26.862 110.105 27.512 110.105 28.292C110.105 29.872 109.595 31.032 108.575 31.772C107.575 32.512 106.105 32.882 104.165 32.882C103.545 32.882 102.855 32.832 102.095 32.732C101.335 32.652 100.485 32.532 99.5446 32.372L98.6146 32.222L98.7346 29.492C99.9346 29.652 100.965 29.772 101.825 29.852C102.705 29.932 103.405 29.972 103.925 29.972C105.005 29.972 105.765 29.842 106.205 29.582C106.645 29.322 106.865 28.892 106.865 28.292C106.865 27.692 106.655 27.272 106.235 27.032C106.015 26.932 105.645 26.822 105.125 26.702C104.625 26.562 103.965 26.422 103.145 26.282C102.325 26.142 101.615 25.982 101.015 25.802C100.435 25.602 99.9446 25.342 99.5446 25.022C99.1646 24.682 98.8746 24.262 98.6746 23.762C98.4946 23.262 98.4046 22.622 98.4046 21.842C98.4046 21.062 98.5446 20.392 98.8246 19.832C99.1046 19.252 99.4846 18.772 99.9646 18.392C100.465 18.012 101.055 17.732 101.735 17.552C102.435 17.352 103.195 17.252 104.015 17.252C104.655 17.252 105.365 17.292 106.145 17.372C106.925 17.452 107.785 17.572 108.725 17.732L109.655 17.912ZM123.927 29.852L124.767 29.762L124.827 32.192C123.687 32.412 122.617 32.582 121.617 32.702C120.617 32.822 119.667 32.882 118.767 32.882C116.547 32.882 114.947 32.272 113.967 31.052C113.007 29.832 112.527 27.882 112.527 25.202C112.527 19.882 114.697 17.222 119.037 17.222C123.237 17.222 125.337 19.512 125.337 24.092L125.127 26.432H115.827C115.847 27.672 116.117 28.582 116.637 29.162C117.157 29.742 118.127 30.032 119.547 30.032C120.967 30.032 122.427 29.972 123.927 29.852ZM115.797 23.912H122.127C122.127 22.412 121.897 21.372 121.437 20.792C120.977 20.212 120.177 19.922 119.037 19.922C117.897 19.922 117.077 20.232 116.577 20.852C116.077 21.452 115.817 22.472 115.797 23.912ZM131.751 20.912V32.552H128.481V17.552H131.721V18.482C133.201 17.642 134.581 17.222 135.861 17.222C136.861 17.222 137.691 17.362 138.351 17.642C139.011 17.902 139.541 18.332 139.941 18.932C140.341 19.512 140.621 20.262 140.781 21.182C140.961 22.102 141.051 23.212 141.051 24.512V32.552H137.811V24.602C137.811 23.782 137.771 23.092 137.691 22.532C137.611 21.972 137.471 21.512 137.271 21.152C137.091 20.792 136.821 20.532 136.461 20.372C136.121 20.212 135.681 20.132 135.141 20.132C134.141 20.132 133.161 20.332 132.201 20.732L131.751 20.912ZM152.928 17.552V20.342H148.788V26.942C148.788 27.542 148.798 28.042 148.818 28.442C148.858 28.842 148.938 29.152 149.058 29.372C149.178 29.592 149.348 29.752 149.568 29.852C149.788 29.932 150.078 29.972 150.438 29.972L152.898 29.882L153.048 32.492C151.748 32.752 150.728 32.882 149.988 32.882C149.148 32.882 148.438 32.792 147.858 32.612C147.298 32.432 146.838 32.132 146.478 31.712C146.138 31.292 145.898 30.722 145.758 30.002C145.618 29.282 145.548 28.382 145.548 27.302V20.342H143.628V17.552H145.548V13.202H148.788V17.552H152.928ZM166.71 22.172V29.012C166.73 29.452 166.84 29.782 167.04 30.002C167.26 30.202 167.59 30.332 168.03 30.392L167.94 32.882C166.2 32.882 164.87 32.512 163.95 31.772C162.39 32.512 160.78 32.882 159.12 32.882C156.14 32.882 154.65 31.292 154.65 28.112C154.65 26.592 155.05 25.492 155.85 24.812C156.65 24.132 157.9 23.722 159.6 23.582L163.47 23.252V22.172C163.47 21.372 163.29 20.812 162.93 20.492C162.59 20.172 162.08 20.012 161.4 20.012C160.76 20.012 160.04 20.032 159.24 20.072C158.44 20.112 157.56 20.172 156.6 20.252L155.64 20.312L155.52 18.002C157.76 17.482 159.77 17.222 161.55 17.222C163.39 17.222 164.71 17.612 165.51 18.392C166.31 19.172 166.71 20.432 166.71 22.172ZM163.47 25.562L159.99 25.892C158.61 26.012 157.92 26.762 157.92 28.142C157.92 29.522 158.53 30.212 159.75 30.212C160.79 30.212 161.85 30.052 162.93 29.732L163.47 29.552V25.562ZM178.885 17.552V20.342H174.745V26.942C174.745 27.542 174.755 28.042 174.775 28.442C174.815 28.842 174.895 29.152 175.015 29.372C175.135 29.592 175.305 29.752 175.525 29.852C175.745 29.932 176.035 29.972 176.395 29.972L178.855 29.882L179.005 32.492C177.705 32.752 176.685 32.882 175.945 32.882C175.105 32.882 174.395 32.792 173.815 32.612C173.255 32.432 172.795 32.132 172.435 31.712C172.095 31.292 171.855 30.722 171.715 30.002C171.575 29.282 171.505 28.382 171.505 27.302V20.342H169.585V17.552H171.505V13.202H174.745V17.552H178.885ZM184.837 32.552V17.552H181.567V32.552H184.837ZM184.837 15.002V11.552H181.567V15.002H184.837ZM194.774 17.222C197.174 17.222 198.884 17.872 199.904 19.172C200.944 20.472 201.464 22.422 201.464 25.022C201.464 26.322 201.344 27.462 201.104 28.442C200.864 29.422 200.484 30.242 199.964 30.902C199.444 31.562 198.754 32.062 197.894 32.402C197.054 32.722 196.014 32.882 194.774 32.882C193.554 32.882 192.514 32.722 191.654 32.402C190.794 32.062 190.104 31.562 189.584 30.902C189.064 30.242 188.684 29.422 188.444 28.442C188.204 27.462 188.084 26.322 188.084 25.022C188.084 23.842 188.194 22.772 188.414 21.812C188.634 20.852 188.994 20.032 189.494 19.352C190.014 18.672 190.704 18.152 191.564 17.792C192.424 17.412 193.494 17.222 194.774 17.222ZM192.074 28.922C192.514 29.722 193.414 30.122 194.774 30.122C195.434 30.122 195.984 30.032 196.424 29.852C196.864 29.652 197.214 29.342 197.474 28.922C197.734 28.502 197.914 27.972 198.014 27.332C198.114 26.672 198.164 25.892 198.164 24.992C198.164 23.172 197.914 21.882 197.414 21.122C196.934 20.362 196.054 19.982 194.774 19.982C193.494 19.982 192.604 20.362 192.104 21.122C191.624 21.882 191.384 23.172 191.384 24.992C191.384 26.792 191.614 28.102 192.074 28.922ZM207.982 20.912V32.552H204.712V17.552H207.952V18.482C209.432 17.642 210.812 17.222 212.092 17.222C213.092 17.222 213.922 17.362 214.582 17.642C215.242 17.902 215.772 18.332 216.172 18.932C216.572 19.512 216.852 20.262 217.012 21.182C217.192 22.102 217.282 23.212 217.282 24.512V32.552H214.042V24.602C214.042 23.782 214.002 23.092 213.922 22.532C213.842 21.972 213.702 21.512 213.502 21.152C213.322 20.792 213.052 20.532 212.692 20.372C212.352 20.212 211.912 20.132 211.372 20.132C210.372 20.132 209.392 20.332 208.432 20.732L207.982 20.912Z" fill="#F5F5F4"/>
</svg>
