<svg width="216" height="49" viewBox="0 0 216 49" fill="none" xmlns="http://www.w3.org/2000/svg">
<path d="M2.16312 33.0266C1.21094 33.5975 4.46666e-08 32.9115 4.46666e-08 31.8014V17.2957C4.46666e-08 16.187 1.20799 15.5009 2.16022 16.0687L14.2907 23.3021C15.2186 23.8554 15.2202 25.1988 14.2936 25.7543L2.16312 33.0266Z" fill="#1C1917"/>
<path d="M24.5214 18.9854C24.9207 19.25 25.1609 19.6972 25.1609 20.1763V28.8607C25.1609 29.3389 24.9216 29.7854 24.5234 30.0503L0.640101 45.9339C-0.537515 46.7171 0.0169348 48.552 1.4312 48.552H16.1611C16.4405 48.552 16.7138 48.4701 16.9471 48.3164L36.3659 35.5231C36.7671 35.2588 37.0085 34.8106 37.0085 34.3301V14.781C37.0085 14.2968 36.7632 13.8455 36.3568 13.5821L16.601 0.781668C16.3697 0.631764 16.0999 0.552002 15.8242 0.552002L1.44593 0.552015C0.0304382 0.552017 -0.523122 2.38954 0.656821 3.17143L24.5214 18.9854Z" fill="#1C1917"/>
<path d="M58.2785 38.277H55.0085V16.827H58.2485V17.757C59.6285 16.917 60.9185 16.497 62.1185 16.497C63.1185 16.497 63.9785 16.647 64.6985 16.947C65.4185 17.227 66.0085 17.687 66.4685 18.327C66.9285 18.947 67.2685 19.757 67.4885 20.757C67.7285 21.757 67.8485 22.967 67.8485 24.387C67.8485 25.807 67.7185 27.017 67.4585 28.017C67.2185 28.997 66.8285 29.797 66.2885 30.417C65.7485 31.017 65.0485 31.457 64.1885 31.737C63.3485 32.017 62.3285 32.157 61.1285 32.157C60.3085 32.157 59.3585 32.067 58.2785 31.887V38.277ZM61.5485 19.407C60.6085 19.407 59.6685 19.617 58.7285 20.037L58.2785 20.247V29.097C58.6785 29.177 59.0985 29.237 59.5385 29.277C59.9785 29.317 60.4385 29.337 60.9185 29.337C61.5985 29.337 62.1685 29.247 62.6285 29.067C63.0885 28.867 63.4585 28.567 63.7385 28.167C64.0185 27.747 64.2185 27.217 64.3385 26.577C64.4585 25.917 64.5185 25.117 64.5185 24.177C64.5185 20.997 63.5285 19.407 61.5485 19.407Z" fill="#1C1917"/>
<path d="M74.3918 31.827H71.1218V16.827H74.3618V18.627C76.0418 17.547 77.7418 16.837 79.4618 16.497V19.767C77.8018 20.087 76.3318 20.527 75.0518 21.087L74.3918 21.357V31.827Z" fill="#1C1917"/>
<path d="M92.6417 29.127L93.4817 29.037L93.5417 31.467C92.4017 31.687 91.3317 31.857 90.3317 31.977C89.3317 32.097 88.3817 32.157 87.4817 32.157C85.2617 32.157 83.6617 31.547 82.6817 30.327C81.7217 29.107 81.2417 27.157 81.2417 24.477C81.2417 19.157 83.4117 16.497 87.7517 16.497C91.9517 16.497 94.0517 18.787 94.0517 23.367L93.8417 25.707H84.5417C84.5617 26.947 84.8317 27.857 85.3517 28.437C85.8717 29.017 86.8417 29.307 88.2617 29.307C89.6817 29.307 91.1417 29.247 92.6417 29.127ZM84.5117 23.187H90.8417C90.8417 21.687 90.6117 20.647 90.1517 20.067C89.6917 19.487 88.8917 19.197 87.7517 19.197C86.6117 19.197 85.7917 19.507 85.2917 20.127C84.7917 20.727 84.5317 21.747 84.5117 23.187Z" fill="#1C1917"/>
<path d="M107.666 17.187L107.606 19.917C106.406 19.757 105.376 19.637 104.516 19.557C103.676 19.477 102.996 19.437 102.476 19.437C101.396 19.437 100.656 19.567 100.256 19.827C99.856 20.067 99.656 20.457 99.656 20.997C99.656 21.537 99.886 21.917 100.346 22.137C100.566 22.237 100.936 22.357 101.456 22.497C101.996 22.617 102.686 22.747 103.526 22.887C104.366 23.027 105.076 23.207 105.656 23.427C106.236 23.647 106.706 23.937 107.066 24.297C107.426 24.637 107.686 25.077 107.846 25.617C108.026 26.137 108.116 26.787 108.116 27.567C108.116 29.147 107.606 30.307 106.586 31.047C105.586 31.787 104.116 32.157 102.176 32.157C101.556 32.157 100.866 32.107 100.106 32.007C99.346 31.927 98.496 31.807 97.556 31.647L96.626 31.497L96.746 28.767C97.946 28.927 98.976 29.047 99.836 29.127C100.716 29.207 101.416 29.247 101.936 29.247C103.016 29.247 103.776 29.117 104.216 28.857C104.656 28.597 104.876 28.167 104.876 27.567C104.876 26.967 104.666 26.547 104.246 26.307C104.026 26.207 103.656 26.097 103.136 25.977C102.636 25.837 101.976 25.697 101.156 25.557C100.336 25.417 99.626 25.257 99.026 25.077C98.446 24.877 97.956 24.617 97.556 24.297C97.176 23.957 96.886 23.537 96.686 23.037C96.506 22.537 96.416 21.897 96.416 21.117C96.416 20.337 96.556 19.667 96.836 19.107C97.116 18.527 97.496 18.047 97.976 17.667C98.476 17.287 99.066 17.007 99.746 16.827C100.446 16.627 101.206 16.527 102.026 16.527C102.666 16.527 103.376 16.567 104.156 16.647C104.936 16.727 105.796 16.847 106.736 17.007L107.666 17.187Z" fill="#1C1917"/>
<path d="M121.939 29.127L122.779 29.037L122.839 31.467C121.699 31.687 120.629 31.857 119.629 31.977C118.629 32.097 117.679 32.157 116.779 32.157C114.559 32.157 112.959 31.547 111.979 30.327C111.019 29.107 110.539 27.157 110.539 24.477C110.539 19.157 112.709 16.497 117.049 16.497C121.249 16.497 123.349 18.787 123.349 23.367L123.139 25.707H113.839C113.859 26.947 114.129 27.857 114.649 28.437C115.169 29.017 116.139 29.307 117.559 29.307C118.979 29.307 120.439 29.247 121.939 29.127ZM113.809 23.187H120.139C120.139 21.687 119.909 20.647 119.449 20.067C118.989 19.487 118.189 19.197 117.049 19.197C115.909 19.197 115.089 19.507 114.589 20.127C114.089 20.727 113.829 21.747 113.809 23.187Z" fill="#1C1917"/>
<path d="M129.763 20.187V31.827H126.493V16.827H129.733V17.757C131.213 16.917 132.593 16.497 133.873 16.497C134.873 16.497 135.703 16.637 136.363 16.917C137.023 17.177 137.553 17.607 137.953 18.207C138.353 18.787 138.633 19.537 138.793 20.457C138.973 21.377 139.063 22.487 139.063 23.787V31.827H135.823V23.877C135.823 23.057 135.783 22.367 135.703 21.807C135.623 21.247 135.483 20.787 135.283 20.427C135.103 20.067 134.833 19.807 134.473 19.647C134.133 19.487 133.693 19.407 133.153 19.407C132.153 19.407 131.173 19.607 130.213 20.007L129.763 20.187Z" fill="#1C1917"/>
<path d="M150.94 16.827V19.617H146.8V26.217C146.8 26.817 146.81 27.317 146.83 27.717C146.87 28.117 146.95 28.427 147.07 28.647C147.19 28.867 147.36 29.027 147.58 29.127C147.8 29.207 148.09 29.247 148.45 29.247L150.91 29.157L151.06 31.767C149.76 32.027 148.74 32.157 148 32.157C147.16 32.157 146.45 32.067 145.87 31.887C145.31 31.707 144.85 31.407 144.49 30.987C144.15 30.567 143.91 29.997 143.77 29.277C143.63 28.557 143.56 27.657 143.56 26.577V19.617H141.64V16.827H143.56V12.477H146.8V16.827H150.94Z" fill="#1C1917"/>
<path d="M164.722 21.447V28.287C164.742 28.727 164.852 29.057 165.052 29.277C165.272 29.477 165.602 29.607 166.042 29.667L165.952 32.157C164.212 32.157 162.882 31.787 161.962 31.047C160.402 31.787 158.792 32.157 157.132 32.157C154.152 32.157 152.662 30.567 152.662 27.387C152.662 25.867 153.062 24.767 153.862 24.087C154.662 23.407 155.912 22.997 157.612 22.857L161.482 22.527V21.447C161.482 20.647 161.302 20.087 160.942 19.767C160.602 19.447 160.092 19.287 159.412 19.287C158.772 19.287 158.052 19.307 157.252 19.347C156.452 19.387 155.572 19.447 154.612 19.527L153.652 19.587L153.532 17.277C155.772 16.757 157.782 16.497 159.562 16.497C161.402 16.497 162.722 16.887 163.522 17.667C164.322 18.447 164.722 19.707 164.722 21.447ZM161.482 24.837L158.002 25.167C156.622 25.287 155.932 26.037 155.932 27.417C155.932 28.797 156.542 29.487 157.762 29.487C158.802 29.487 159.862 29.327 160.942 29.007L161.482 28.827V24.837Z" fill="#1C1917"/>
<path d="M176.897 16.827V19.617H172.757V26.217C172.757 26.817 172.767 27.317 172.787 27.717C172.827 28.117 172.907 28.427 173.027 28.647C173.147 28.867 173.317 29.027 173.537 29.127C173.757 29.207 174.047 29.247 174.407 29.247L176.867 29.157L177.017 31.767C175.717 32.027 174.697 32.157 173.957 32.157C173.117 32.157 172.407 32.067 171.827 31.887C171.267 31.707 170.807 31.407 170.447 30.987C170.107 30.567 169.867 29.997 169.727 29.277C169.587 28.557 169.517 27.657 169.517 26.577V19.617H167.597V16.827H169.517V12.477H172.757V16.827H176.897Z" fill="#1C1917"/>
<path d="M182.849 31.827V16.827H179.579V31.827H182.849ZM182.849 14.277V10.827H179.579V14.277H182.849Z" fill="#1C1917"/>
<path d="M192.785 16.497C195.185 16.497 196.895 17.147 197.915 18.447C198.955 19.747 199.475 21.697 199.475 24.297C199.475 25.597 199.355 26.737 199.115 27.717C198.875 28.697 198.495 29.517 197.975 30.177C197.455 30.837 196.765 31.337 195.905 31.677C195.065 31.997 194.025 32.157 192.785 32.157C191.565 32.157 190.525 31.997 189.665 31.677C188.805 31.337 188.115 30.837 187.595 30.177C187.075 29.517 186.695 28.697 186.455 27.717C186.215 26.737 186.095 25.597 186.095 24.297C186.095 23.117 186.205 22.047 186.425 21.087C186.645 20.127 187.005 19.307 187.505 18.627C188.025 17.947 188.715 17.427 189.575 17.067C190.435 16.687 191.505 16.497 192.785 16.497ZM190.085 28.197C190.525 28.997 191.425 29.397 192.785 29.397C193.445 29.397 193.995 29.307 194.435 29.127C194.875 28.927 195.225 28.617 195.485 28.197C195.745 27.777 195.925 27.247 196.025 26.607C196.125 25.947 196.175 25.167 196.175 24.267C196.175 22.447 195.925 21.157 195.425 20.397C194.945 19.637 194.065 19.257 192.785 19.257C191.505 19.257 190.615 19.637 190.115 20.397C189.635 21.157 189.395 22.447 189.395 24.267C189.395 26.067 189.625 27.377 190.085 28.197Z" fill="#1C1917"/>
<path d="M205.993 20.187V31.827H202.723V16.827H205.963V17.757C207.443 16.917 208.823 16.497 210.103 16.497C211.103 16.497 211.933 16.637 212.593 16.917C213.253 17.177 213.783 17.607 214.183 18.207C214.583 18.787 214.863 19.537 215.023 20.457C215.203 21.377 215.293 22.487 215.293 23.787V31.827H212.053V23.877C212.053 23.057 212.013 22.367 211.933 21.807C211.853 21.247 211.713 20.787 211.513 20.427C211.333 20.067 211.063 19.807 210.703 19.647C210.363 19.487 209.923 19.407 209.383 19.407C208.383 19.407 207.403 19.607 206.443 20.007L205.993 20.187Z" fill="#1C1917"/>
</svg>
