<svg width="221" height="49" viewBox="0 0 221 49" fill="none" xmlns="http://www.w3.org/2000/svg">
<path d="M2.16312 33.0266C1.21094 33.5975 4.46666e-08 32.9115 4.46666e-08 31.8014V17.2957C4.46666e-08 16.187 1.20799 15.5009 2.16022 16.0687L14.2907 23.3021C15.2186 23.8554 15.2202 25.1988 14.2936 25.7543L2.16312 33.0266Z" fill="#1C1917"/>
<path d="M24.5214 18.9854C24.9207 19.25 25.1609 19.6972 25.1609 20.1763V28.8607C25.1609 29.3389 24.9216 29.7854 24.5234 30.0503L0.640101 45.9339C-0.537515 46.7171 0.0169348 48.552 1.4312 48.552H16.1611C16.4405 48.552 16.7138 48.4701 16.9471 48.3164L36.3659 35.5231C36.7671 35.2588 37.0085 34.8106 37.0085 34.3301V14.781C37.0085 14.2968 36.7632 13.8455 36.3568 13.5821L16.601 0.781668C16.3697 0.631764 16.0999 0.552002 15.8242 0.552002L1.44593 0.552015C0.0304382 0.552017 -0.523122 2.38954 0.656821 3.17143L24.5214 18.9854Z" fill="#1C1917"/>
<path d="M60.2585 39.002H56.9885V17.552H60.2285V18.482C61.6085 17.642 62.8985 17.222 64.0985 17.222C65.0985 17.222 65.9585 17.372 66.6785 17.672C67.3985 17.952 67.9885 18.412 68.4485 19.052C68.9085 19.672 69.2485 20.482 69.4685 21.482C69.7085 22.482 69.8285 23.692 69.8285 25.112C69.8285 26.532 69.6985 27.742 69.4385 28.742C69.1985 29.722 68.8085 30.522 68.2685 31.142C67.7285 31.742 67.0285 32.182 66.1685 32.462C65.3285 32.742 64.3085 32.882 63.1085 32.882C62.2885 32.882 61.3385 32.792 60.2585 32.612V39.002ZM63.5285 20.132C62.5885 20.132 61.6485 20.342 60.7085 20.762L60.2585 20.972V29.822C60.6585 29.902 61.0785 29.962 61.5185 30.002C61.9585 30.042 62.4185 30.062 62.8985 30.062C63.5785 30.062 64.1485 29.972 64.6085 29.792C65.0685 29.592 65.4385 29.292 65.7185 28.892C65.9985 28.472 66.1985 27.942 66.3185 27.302C66.4385 26.642 66.4985 25.842 66.4985 24.902C66.4985 21.722 65.5085 20.132 63.5285 20.132ZM76.3718 32.552H73.1018V17.552H76.3418V19.352C78.0218 18.272 79.7218 17.562 81.4418 17.222V20.492C79.7818 20.812 78.3118 21.252 77.0318 21.812L76.3718 22.082V32.552ZM94.6217 29.852L95.4617 29.762L95.5217 32.192C94.3817 32.412 93.3117 32.582 92.3117 32.702C91.3117 32.822 90.3617 32.882 89.4617 32.882C87.2417 32.882 85.6417 32.272 84.6617 31.052C83.7017 29.832 83.2217 27.882 83.2217 25.202C83.2217 19.882 85.3917 17.222 89.7317 17.222C93.9317 17.222 96.0317 19.512 96.0317 24.092L95.8217 26.432H86.5217C86.5417 27.672 86.8117 28.582 87.3317 29.162C87.8517 29.742 88.8217 30.032 90.2417 30.032C91.6617 30.032 93.1217 29.972 94.6217 29.852ZM86.4917 23.912H92.8217C92.8217 22.412 92.5917 21.372 92.1317 20.792C91.6717 20.212 90.8717 19.922 89.7317 19.922C88.5917 19.922 87.7717 20.232 87.2717 20.852C86.7717 21.452 86.5117 22.472 86.4917 23.912ZM109.646 17.912L109.586 20.642C108.386 20.482 107.356 20.362 106.496 20.282C105.656 20.202 104.976 20.162 104.456 20.162C103.376 20.162 102.636 20.292 102.236 20.552C101.836 20.792 101.636 21.182 101.636 21.722C101.636 22.262 101.866 22.642 102.326 22.862C102.546 22.962 102.916 23.082 103.436 23.222C103.976 23.342 104.666 23.472 105.506 23.612C106.346 23.752 107.056 23.932 107.636 24.152C108.216 24.372 108.686 24.662 109.046 25.022C109.406 25.362 109.666 25.802 109.826 26.342C110.006 26.862 110.096 27.512 110.096 28.292C110.096 29.872 109.586 31.032 108.566 31.772C107.566 32.512 106.096 32.882 104.156 32.882C103.536 32.882 102.846 32.832 102.086 32.732C101.326 32.652 100.476 32.532 99.536 32.372L98.606 32.222L98.726 29.492C99.926 29.652 100.956 29.772 101.816 29.852C102.696 29.932 103.396 29.972 103.916 29.972C104.996 29.972 105.756 29.842 106.196 29.582C106.636 29.322 106.856 28.892 106.856 28.292C106.856 27.692 106.646 27.272 106.226 27.032C106.006 26.932 105.636 26.822 105.116 26.702C104.616 26.562 103.956 26.422 103.136 26.282C102.316 26.142 101.606 25.982 101.006 25.802C100.426 25.602 99.936 25.342 99.536 25.022C99.156 24.682 98.866 24.262 98.666 23.762C98.486 23.262 98.396 22.622 98.396 21.842C98.396 21.062 98.536 20.392 98.816 19.832C99.096 19.252 99.476 18.772 99.956 18.392C100.456 18.012 101.046 17.732 101.726 17.552C102.426 17.352 103.186 17.252 104.006 17.252C104.646 17.252 105.356 17.292 106.136 17.372C106.916 17.452 107.776 17.572 108.716 17.732L109.646 17.912ZM123.919 29.852L124.759 29.762L124.819 32.192C123.679 32.412 122.609 32.582 121.609 32.702C120.609 32.822 119.659 32.882 118.759 32.882C116.539 32.882 114.939 32.272 113.959 31.052C112.999 29.832 112.519 27.882 112.519 25.202C112.519 19.882 114.689 17.222 119.029 17.222C123.229 17.222 125.329 19.512 125.329 24.092L125.119 26.432H115.819C115.839 27.672 116.109 28.582 116.629 29.162C117.149 29.742 118.119 30.032 119.539 30.032C120.959 30.032 122.419 29.972 123.919 29.852ZM115.789 23.912H122.119C122.119 22.412 121.889 21.372 121.429 20.792C120.969 20.212 120.169 19.922 119.029 19.922C117.889 19.922 117.069 20.232 116.569 20.852C116.069 21.452 115.809 22.472 115.789 23.912ZM131.743 20.912V32.552H128.473V17.552H131.713V18.482C133.193 17.642 134.573 17.222 135.853 17.222C136.853 17.222 137.683 17.362 138.343 17.642C139.003 17.902 139.533 18.332 139.933 18.932C140.333 19.512 140.613 20.262 140.773 21.182C140.953 22.102 141.043 23.212 141.043 24.512V32.552H137.803V24.602C137.803 23.782 137.763 23.092 137.683 22.532C137.603 21.972 137.463 21.512 137.263 21.152C137.083 20.792 136.813 20.532 136.453 20.372C136.113 20.212 135.673 20.132 135.133 20.132C134.133 20.132 133.153 20.332 132.193 20.732L131.743 20.912ZM152.92 17.552V20.342H148.78V26.942C148.78 27.542 148.79 28.042 148.81 28.442C148.85 28.842 148.93 29.152 149.05 29.372C149.17 29.592 149.34 29.752 149.56 29.852C149.78 29.932 150.07 29.972 150.43 29.972L152.89 29.882L153.04 32.492C151.74 32.752 150.72 32.882 149.98 32.882C149.14 32.882 148.43 32.792 147.85 32.612C147.29 32.432 146.83 32.132 146.47 31.712C146.13 31.292 145.89 30.722 145.75 30.002C145.61 29.282 145.54 28.382 145.54 27.302V20.342H143.62V17.552H145.54V13.202H148.78V17.552H152.92ZM166.702 22.172V29.012C166.722 29.452 166.832 29.782 167.032 30.002C167.252 30.202 167.582 30.332 168.022 30.392L167.932 32.882C166.192 32.882 164.862 32.512 163.942 31.772C162.382 32.512 160.772 32.882 159.112 32.882C156.132 32.882 154.642 31.292 154.642 28.112C154.642 26.592 155.042 25.492 155.842 24.812C156.642 24.132 157.892 23.722 159.592 23.582L163.462 23.252V22.172C163.462 21.372 163.282 20.812 162.922 20.492C162.582 20.172 162.072 20.012 161.392 20.012C160.752 20.012 160.032 20.032 159.232 20.072C158.432 20.112 157.552 20.172 156.592 20.252L155.632 20.312L155.512 18.002C157.752 17.482 159.762 17.222 161.542 17.222C163.382 17.222 164.702 17.612 165.502 18.392C166.302 19.172 166.702 20.432 166.702 22.172ZM163.462 25.562L159.982 25.892C158.602 26.012 157.912 26.762 157.912 28.142C157.912 29.522 158.522 30.212 159.742 30.212C160.782 30.212 161.842 30.052 162.922 29.732L163.462 29.552V25.562ZM178.877 17.552V20.342H174.737V26.942C174.737 27.542 174.747 28.042 174.767 28.442C174.807 28.842 174.887 29.152 175.007 29.372C175.127 29.592 175.297 29.752 175.517 29.852C175.737 29.932 176.027 29.972 176.387 29.972L178.847 29.882L178.997 32.492C177.697 32.752 176.677 32.882 175.937 32.882C175.097 32.882 174.387 32.792 173.807 32.612C173.247 32.432 172.787 32.132 172.427 31.712C172.087 31.292 171.847 30.722 171.707 30.002C171.567 29.282 171.497 28.382 171.497 27.302V20.342H169.577V17.552H171.497V13.202H174.737V17.552H178.877ZM184.829 32.552V17.552H181.559V32.552H184.829ZM184.829 15.002V11.552H181.559V15.002H184.829ZM194.765 17.222C197.165 17.222 198.875 17.872 199.895 19.172C200.935 20.472 201.455 22.422 201.455 25.022C201.455 26.322 201.335 27.462 201.095 28.442C200.855 29.422 200.475 30.242 199.955 30.902C199.435 31.562 198.745 32.062 197.885 32.402C197.045 32.722 196.005 32.882 194.765 32.882C193.545 32.882 192.505 32.722 191.645 32.402C190.785 32.062 190.095 31.562 189.575 30.902C189.055 30.242 188.675 29.422 188.435 28.442C188.195 27.462 188.075 26.322 188.075 25.022C188.075 23.842 188.185 22.772 188.405 21.812C188.625 20.852 188.985 20.032 189.485 19.352C190.005 18.672 190.695 18.152 191.555 17.792C192.415 17.412 193.485 17.222 194.765 17.222ZM192.065 28.922C192.505 29.722 193.405 30.122 194.765 30.122C195.425 30.122 195.975 30.032 196.415 29.852C196.855 29.652 197.205 29.342 197.465 28.922C197.725 28.502 197.905 27.972 198.005 27.332C198.105 26.672 198.155 25.892 198.155 24.992C198.155 23.172 197.905 21.882 197.405 21.122C196.925 20.362 196.045 19.982 194.765 19.982C193.485 19.982 192.595 20.362 192.095 21.122C191.615 21.882 191.375 23.172 191.375 24.992C191.375 26.792 191.605 28.102 192.065 28.922ZM207.973 20.912V32.552H204.703V17.552H207.943V18.482C209.423 17.642 210.803 17.222 212.083 17.222C213.083 17.222 213.913 17.362 214.573 17.642C215.233 17.902 215.763 18.332 216.163 18.932C216.563 19.512 216.843 20.262 217.003 21.182C217.183 22.102 217.273 23.212 217.273 24.512V32.552H214.033V24.602C214.033 23.782 213.993 23.092 213.913 22.532C213.833 21.972 213.693 21.512 213.493 21.152C213.313 20.792 213.043 20.532 212.683 20.372C212.343 20.212 211.903 20.132 211.363 20.132C210.363 20.132 209.383 20.332 208.423 20.732L207.973 20.912Z" fill="#1C1917"/>
</svg>
