<svg width="216" height="48" viewBox="0 0 216 48" fill="none" xmlns="http://www.w3.org/2000/svg">
<path d="M2.16312 32.4746C1.21094 33.0455 4.46666e-08 32.3595 4.46666e-08 31.2494V16.7437C4.46666e-08 15.635 1.20799 14.9489 2.16022 15.5167L14.2907 22.7501C15.2186 23.3034 15.2202 24.6468 14.2936 25.2023L2.16312 32.4746Z" fill="#1C1917"/>
<path d="M24.5214 18.4334C24.9207 18.698 25.1609 19.1452 25.1609 19.6243V28.3087C25.1609 28.7869 24.9216 29.2334 24.5234 29.4983L0.640101 45.3819C-0.537515 46.1651 0.0169348 48 1.4312 48H16.1611C16.4405 48 16.7138 47.9181 16.9471 47.7644L36.3659 34.9711C36.7671 34.7068 37.0085 34.2585 37.0085 33.7781V14.229C37.0085 13.7448 36.7632 13.2935 36.3568 13.0301L16.601 0.229666C16.3697 0.0797621 16.0999 -2.59446e-07 15.8242 0L1.44593 1.35319e-05C0.0304382 1.48641e-05 -0.523122 1.83753 0.656821 2.61943L24.5214 18.4334Z" fill="#1C1917"/>
<path d="M58.2785 27.45H55.0085V6H58.2485V6.93C59.6285 6.09 60.9185 5.67 62.1185 5.67C63.1185 5.67 63.9785 5.82 64.6985 6.12C65.4185 6.4 66.0085 6.86 66.4685 7.5C66.9285 8.12 67.2685 8.93 67.4885 9.93C67.7285 10.93 67.8485 12.14 67.8485 13.56C67.8485 14.98 67.7185 16.19 67.4585 17.19C67.2185 18.17 66.8285 18.97 66.2885 19.59C65.7485 20.19 65.0485 20.63 64.1885 20.91C63.3485 21.19 62.3285 21.33 61.1285 21.33C60.3085 21.33 59.3585 21.24 58.2785 21.06V27.45ZM61.5485 8.58C60.6085 8.58 59.6685 8.79 58.7285 9.21L58.2785 9.42V18.27C58.6785 18.35 59.0985 18.41 59.5385 18.45C59.9785 18.49 60.4385 18.51 60.9185 18.51C61.5985 18.51 62.1685 18.42 62.6285 18.24C63.0885 18.04 63.4585 17.74 63.7385 17.34C64.0185 16.92 64.2185 16.39 64.3385 15.75C64.4585 15.09 64.5185 14.29 64.5185 13.35C64.5185 10.17 63.5285 8.58 61.5485 8.58Z" fill="#1C1917"/>
<path d="M74.3918 21H71.1218V6H74.3618V7.8C76.0418 6.72 77.7418 6.01 79.4618 5.67V8.94C77.8018 9.26 76.3318 9.7 75.0518 10.26L74.3918 10.53V21Z" fill="#1C1917"/>
<path d="M92.6417 18.3L93.4817 18.21L93.5417 20.64C92.4017 20.86 91.3317 21.03 90.3317 21.15C89.3317 21.27 88.3817 21.33 87.4817 21.33C85.2617 21.33 83.6617 20.72 82.6817 19.5C81.7217 18.28 81.2417 16.33 81.2417 13.65C81.2417 8.33 83.4117 5.67 87.7517 5.67C91.9517 5.67 94.0517 7.96 94.0517 12.54L93.8417 14.88H84.5417C84.5617 16.12 84.8317 17.03 85.3517 17.61C85.8717 18.19 86.8417 18.48 88.2617 18.48C89.6817 18.48 91.1417 18.42 92.6417 18.3ZM84.5117 12.36H90.8417C90.8417 10.86 90.6117 9.82 90.1517 9.24C89.6917 8.66 88.8917 8.37 87.7517 8.37C86.6117 8.37 85.7917 8.68 85.2917 9.3C84.7917 9.9 84.5317 10.92 84.5117 12.36Z" fill="#1C1917"/>
<path d="M107.666 6.36L107.606 9.09C106.406 8.93 105.376 8.81 104.516 8.73C103.676 8.65 102.996 8.61 102.476 8.61C101.396 8.61 100.656 8.74 100.256 9C99.856 9.24 99.656 9.63 99.656 10.17C99.656 10.71 99.886 11.09 100.346 11.31C100.566 11.41 100.936 11.53 101.456 11.67C101.996 11.79 102.686 11.92 103.526 12.06C104.366 12.2 105.076 12.38 105.656 12.6C106.236 12.82 106.706 13.11 107.066 13.47C107.426 13.81 107.686 14.25 107.846 14.79C108.026 15.31 108.116 15.96 108.116 16.74C108.116 18.32 107.606 19.48 106.586 20.22C105.586 20.96 104.116 21.33 102.176 21.33C101.556 21.33 100.866 21.28 100.106 21.18C99.346 21.1 98.496 20.98 97.556 20.82L96.626 20.67L96.746 17.94C97.946 18.1 98.976 18.22 99.836 18.3C100.716 18.38 101.416 18.42 101.936 18.42C103.016 18.42 103.776 18.29 104.216 18.03C104.656 17.77 104.876 17.34 104.876 16.74C104.876 16.14 104.666 15.72 104.246 15.48C104.026 15.38 103.656 15.27 103.136 15.15C102.636 15.01 101.976 14.87 101.156 14.73C100.336 14.59 99.626 14.43 99.026 14.25C98.446 14.05 97.956 13.79 97.556 13.47C97.176 13.13 96.886 12.71 96.686 12.21C96.506 11.71 96.416 11.07 96.416 10.29C96.416 9.51 96.556 8.84 96.836 8.28C97.116 7.7 97.496 7.22 97.976 6.84C98.476 6.46 99.066 6.18 99.746 6C100.446 5.8 101.206 5.7 102.026 5.7C102.666 5.7 103.376 5.74 104.156 5.82C104.936 5.9 105.796 6.02 106.736 6.18L107.666 6.36Z" fill="#1C1917"/>
<path d="M121.939 18.3L122.779 18.21L122.839 20.64C121.699 20.86 120.629 21.03 119.629 21.15C118.629 21.27 117.679 21.33 116.779 21.33C114.559 21.33 112.959 20.72 111.979 19.5C111.019 18.28 110.539 16.33 110.539 13.65C110.539 8.33 112.709 5.67 117.049 5.67C121.249 5.67 123.349 7.96 123.349 12.54L123.139 14.88H113.839C113.859 16.12 114.129 17.03 114.649 17.61C115.169 18.19 116.139 18.48 117.559 18.48C118.979 18.48 120.439 18.42 121.939 18.3ZM113.809 12.36H120.139C120.139 10.86 119.909 9.82 119.449 9.24C118.989 8.66 118.189 8.37 117.049 8.37C115.909 8.37 115.089 8.68 114.589 9.3C114.089 9.9 113.829 10.92 113.809 12.36Z" fill="#1C1917"/>
<path d="M129.763 9.36V21H126.493V6H129.733V6.93C131.213 6.09 132.593 5.67 133.873 5.67C134.873 5.67 135.703 5.81 136.363 6.09C137.023 6.35 137.553 6.78 137.953 7.38C138.353 7.96 138.633 8.71 138.793 9.63C138.973 10.55 139.063 11.66 139.063 12.96V21H135.823V13.05C135.823 12.23 135.783 11.54 135.703 10.98C135.623 10.42 135.483 9.96 135.283 9.6C135.103 9.24 134.833 8.98 134.473 8.82C134.133 8.66 133.693 8.58 133.153 8.58C132.153 8.58 131.173 8.78 130.213 9.18L129.763 9.36Z" fill="#1C1917"/>
<path d="M150.94 6V8.79H146.8V15.39C146.8 15.99 146.81 16.49 146.83 16.89C146.87 17.29 146.95 17.6 147.07 17.82C147.19 18.04 147.36 18.2 147.58 18.3C147.8 18.38 148.09 18.42 148.45 18.42L150.91 18.33L151.06 20.94C149.76 21.2 148.74 21.33 148 21.33C147.16 21.33 146.45 21.24 145.87 21.06C145.31 20.88 144.85 20.58 144.49 20.16C144.15 19.74 143.91 19.17 143.77 18.45C143.63 17.73 143.56 16.83 143.56 15.75V8.79H141.64V6H143.56V1.65H146.8V6H150.94Z" fill="#1C1917"/>
<path d="M164.722 10.62V17.46C164.742 17.9 164.852 18.23 165.052 18.45C165.272 18.65 165.602 18.78 166.042 18.84L165.952 21.33C164.212 21.33 162.882 20.96 161.962 20.22C160.402 20.96 158.792 21.33 157.132 21.33C154.152 21.33 152.662 19.74 152.662 16.56C152.662 15.04 153.062 13.94 153.862 13.26C154.662 12.58 155.912 12.17 157.612 12.03L161.482 11.7V10.62C161.482 9.82 161.302 9.26 160.942 8.94C160.602 8.62 160.092 8.46 159.412 8.46C158.772 8.46 158.052 8.48 157.252 8.52C156.452 8.56 155.572 8.62 154.612 8.7L153.652 8.76L153.532 6.45C155.772 5.93 157.782 5.67 159.562 5.67C161.402 5.67 162.722 6.06 163.522 6.84C164.322 7.62 164.722 8.88 164.722 10.62ZM161.482 14.01L158.002 14.34C156.622 14.46 155.932 15.21 155.932 16.59C155.932 17.97 156.542 18.66 157.762 18.66C158.802 18.66 159.862 18.5 160.942 18.18L161.482 18V14.01Z" fill="#1C1917"/>
<path d="M176.897 6V8.79H172.757V15.39C172.757 15.99 172.767 16.49 172.787 16.89C172.827 17.29 172.907 17.6 173.027 17.82C173.147 18.04 173.317 18.2 173.537 18.3C173.757 18.38 174.047 18.42 174.407 18.42L176.867 18.33L177.017 20.94C175.717 21.2 174.697 21.33 173.957 21.33C173.117 21.33 172.407 21.24 171.827 21.06C171.267 20.88 170.807 20.58 170.447 20.16C170.107 19.74 169.867 19.17 169.727 18.45C169.587 17.73 169.517 16.83 169.517 15.75V8.79H167.597V6H169.517V1.65H172.757V6H176.897Z" fill="#1C1917"/>
<path d="M182.849 21V6H179.579V21H182.849ZM182.849 3.45V0H179.579V3.45H182.849Z" fill="#1C1917"/>
<path d="M192.785 5.67C195.185 5.67 196.895 6.32 197.915 7.62C198.955 8.92 199.475 10.87 199.475 13.47C199.475 14.77 199.355 15.91 199.115 16.89C198.875 17.87 198.495 18.69 197.975 19.35C197.455 20.01 196.765 20.51 195.905 20.85C195.065 21.17 194.025 21.33 192.785 21.33C191.565 21.33 190.525 21.17 189.665 20.85C188.805 20.51 188.115 20.01 187.595 19.35C187.075 18.69 186.695 17.87 186.455 16.89C186.215 15.91 186.095 14.77 186.095 13.47C186.095 12.29 186.205 11.22 186.425 10.26C186.645 9.3 187.005 8.48 187.505 7.8C188.025 7.12 188.715 6.6 189.575 6.24C190.435 5.86 191.505 5.67 192.785 5.67ZM190.085 17.37C190.525 18.17 191.425 18.57 192.785 18.57C193.445 18.57 193.995 18.48 194.435 18.3C194.875 18.1 195.225 17.79 195.485 17.37C195.745 16.95 195.925 16.42 196.025 15.78C196.125 15.12 196.175 14.34 196.175 13.44C196.175 11.62 195.925 10.33 195.425 9.57C194.945 8.81 194.065 8.43 192.785 8.43C191.505 8.43 190.615 8.81 190.115 9.57C189.635 10.33 189.395 11.62 189.395 13.44C189.395 15.24 189.625 16.55 190.085 17.37Z" fill="#1C1917"/>
<path d="M205.993 9.36V21H202.723V6H205.963V6.93C207.443 6.09 208.823 5.67 210.103 5.67C211.103 5.67 211.933 5.81 212.593 6.09C213.253 6.35 213.783 6.78 214.183 7.38C214.583 7.96 214.863 8.71 215.023 9.63C215.203 10.55 215.293 11.66 215.293 12.96V21H212.053V13.05C212.053 12.23 212.013 11.54 211.933 10.98C211.853 10.42 211.713 9.96 211.513 9.6C211.333 9.24 211.063 8.98 210.703 8.82C210.363 8.66 209.923 8.58 209.383 8.58C208.383 8.58 207.403 8.78 206.443 9.18L205.993 9.36Z" fill="#1C1917"/>
<path d="M61.9385 37.704V42.312C61.9745 42.756 62.3225 43.02 62.9825 43.104L62.9285 44.166C61.9805 44.166 61.2665 43.926 60.7865 43.446C59.7185 43.926 58.6385 44.166 57.5465 44.166C56.7185 44.166 56.0885 43.932 55.6565 43.464C55.2245 42.996 55.0085 42.324 55.0085 41.448C55.0085 40.572 55.2305 39.93 55.6745 39.522C56.1185 39.102 56.8145 38.844 57.7625 38.748L60.5885 38.478V37.704C60.5885 37.092 60.4565 36.654 60.1925 36.39C59.9285 36.126 59.5685 35.994 59.1125 35.994C58.6325 35.994 58.1405 36.012 57.6365 36.048C57.1445 36.072 56.6405 36.114 56.1245 36.174L55.5665 36.228L55.5125 35.202C56.7965 34.938 57.9665 34.806 59.0225 34.806C60.0425 34.806 60.7805 35.04 61.2365 35.508C61.7045 35.964 61.9385 36.696 61.9385 37.704ZM56.3945 41.376C56.3945 42.48 56.8505 43.032 57.7625 43.032C58.5665 43.032 59.3705 42.894 60.1745 42.618L60.5885 42.474V39.504L57.9245 39.756C57.3845 39.804 56.9945 39.96 56.7545 40.224C56.5145 40.488 56.3945 40.872 56.3945 41.376Z" fill="#78716C"/>
<path d="M69.2641 34.986V36.156H66.4021V40.458C66.4021 41.502 66.4801 42.18 66.6361 42.492C66.7801 42.816 67.1341 42.978 67.6981 42.978L69.3001 42.87L69.3901 43.986C68.9821 44.046 68.6221 44.094 68.3101 44.13C68.0101 44.166 67.7581 44.184 67.5541 44.184C67.0861 44.184 66.6901 44.13 66.3661 44.022C66.0541 43.926 65.8021 43.752 65.6101 43.5C65.4181 43.248 65.2801 42.912 65.1961 42.492C65.1121 42.072 65.0701 41.538 65.0701 40.89V36.156H63.7921V34.986H65.0701V32.232H66.4021V34.986H69.2641Z" fill="#78716C"/>
<path d="M74.8857 43.752V34.986H76.2177V43.77C76.2177 44.322 76.1757 44.796 76.0917 45.192C76.0077 45.588 75.8517 45.942 75.6237 46.254C75.3957 46.566 75.0897 46.86 74.7057 47.136C74.3217 47.412 73.8297 47.7 73.2297 48L72.6897 46.956C73.1577 46.692 73.5357 46.452 73.8237 46.236C74.1117 46.02 74.3337 45.798 74.4897 45.57C74.6457 45.342 74.7477 45.084 74.7957 44.796C74.8557 44.52 74.8857 44.172 74.8857 43.752ZM76.2177 32.952H74.8857V31.386H76.2177V32.952Z" fill="#78716C"/>
<path d="M78.4092 39.468C78.4092 38.64 78.4752 37.932 78.6072 37.344C78.7512 36.756 78.9792 36.276 79.2912 35.904C79.6032 35.52 80.0052 35.244 80.4972 35.076C80.9892 34.896 81.5832 34.806 82.2792 34.806C82.9752 34.806 83.5632 34.896 84.0432 35.076C84.5352 35.244 84.9312 35.52 85.2312 35.904C85.5432 36.276 85.7652 36.756 85.8972 37.344C86.0412 37.932 86.1132 38.64 86.1132 39.468C86.1132 40.296 86.0472 41.004 85.9152 41.592C85.7952 42.18 85.5852 42.666 85.2852 43.05C84.9852 43.434 84.5892 43.716 84.0972 43.896C83.6052 44.076 82.9932 44.166 82.2612 44.166C81.5292 44.166 80.9172 44.076 80.4252 43.896C79.9332 43.716 79.5372 43.434 79.2372 43.05C78.9372 42.666 78.7212 42.18 78.5892 41.592C78.4692 41.004 78.4092 40.296 78.4092 39.468ZM79.7952 39.432C79.7952 40.092 79.8252 40.65 79.8852 41.106C79.9572 41.55 80.0832 41.916 80.2632 42.204C80.4552 42.48 80.7132 42.684 81.0372 42.816C81.3612 42.936 81.7752 42.996 82.2792 42.996C82.7832 42.996 83.1912 42.936 83.5032 42.816C83.8272 42.696 84.0792 42.498 84.2592 42.222C84.4392 41.934 84.5592 41.568 84.6192 41.124C84.6912 40.668 84.7272 40.11 84.7272 39.45C84.7272 38.79 84.6852 38.238 84.6012 37.794C84.5292 37.35 84.3972 36.996 84.2052 36.732C84.0132 36.456 83.7612 36.264 83.4492 36.156C83.1372 36.036 82.7472 35.976 82.2792 35.976C81.8112 35.976 81.4152 36.036 81.0912 36.156C80.7792 36.264 80.5272 36.456 80.3352 36.732C80.1432 36.996 80.0052 37.35 79.9212 37.794C79.8372 38.226 79.7952 38.772 79.7952 39.432Z" fill="#78716C"/>
<path d="M93.931 42.294V34.986H95.281V43.986H93.931V43.356C93.031 43.896 92.143 44.166 91.267 44.166C90.655 44.166 90.151 44.094 89.755 43.95C89.359 43.806 89.047 43.56 88.819 43.212C88.603 42.864 88.447 42.408 88.351 41.844C88.267 41.268 88.225 40.548 88.225 39.684V34.986H89.575V39.666C89.575 40.314 89.599 40.854 89.647 41.286C89.695 41.706 89.785 42.042 89.917 42.294C90.049 42.546 90.241 42.72 90.493 42.816C90.745 42.912 91.069 42.96 91.465 42.96C91.861 42.96 92.263 42.906 92.671 42.798C93.079 42.678 93.391 42.564 93.607 42.456L93.931 42.294Z" fill="#78716C"/>
<path d="M99.3355 43.986V31.062H97.9855V43.986H99.3355Z" fill="#78716C"/>
<path d="M108.164 42.87L108.686 42.816L108.722 43.878C108.038 43.974 107.402 44.046 106.814 44.094C106.238 44.142 105.704 44.166 105.212 44.166C103.916 44.166 102.998 43.794 102.458 43.05C101.918 42.294 101.648 41.124 101.648 39.54C101.648 36.384 102.902 34.806 105.41 34.806C106.634 34.806 107.54 35.148 108.128 35.832C108.728 36.504 109.028 37.566 109.028 39.018L108.956 40.044H103.016C103.016 41.052 103.196 41.796 103.556 42.276C103.916 42.744 104.546 42.978 105.446 42.978C106.346 42.978 107.252 42.942 108.164 42.87ZM102.998 38.964H107.678C107.678 37.86 107.498 37.08 107.138 36.624C106.79 36.168 106.22 35.94 105.428 35.94C104.624 35.94 104.018 36.18 103.61 36.66C103.214 37.14 103.01 37.908 102.998 38.964Z" fill="#78716C"/>
<path d="M112.823 43.986H115.523L118.061 34.986H116.675L114.497 42.816H113.831L111.725 34.986H110.285L112.823 43.986Z" fill="#78716C"/>
<path d="M121.183 43.986V41.934H119.707V43.986H121.183Z" fill="#78716C"/>
<path d="M129.262 31.062H130.594V43.986H129.262V43.374C128.338 43.902 127.426 44.166 126.526 44.166C125.842 44.166 125.29 44.046 124.87 43.806C124.45 43.566 124.12 43.242 123.88 42.834C123.652 42.426 123.496 41.958 123.412 41.43C123.328 40.89 123.286 40.326 123.286 39.738C123.286 37.986 123.574 36.726 124.15 35.958C124.738 35.19 125.704 34.806 127.048 34.806C127.78 34.806 128.518 34.884 129.262 35.04V31.062ZM126.76 42.96C126.928 42.96 127.108 42.948 127.3 42.924C127.504 42.888 127.702 42.846 127.894 42.798C128.098 42.738 128.284 42.678 128.452 42.618C128.632 42.558 128.782 42.504 128.902 42.456L129.262 42.294V36.192C128.494 36.048 127.78 35.976 127.12 35.976C126.208 35.976 125.572 36.264 125.212 36.84C124.852 37.416 124.672 38.322 124.672 39.558C124.672 39.942 124.69 40.338 124.726 40.746C124.762 41.142 124.846 41.508 124.978 41.844C125.122 42.168 125.332 42.438 125.608 42.654C125.896 42.858 126.28 42.96 126.76 42.96Z" fill="#78716C"/>
<path d="M139.33 42.87L139.852 42.816L139.888 43.878C139.204 43.974 138.568 44.046 137.98 44.094C137.404 44.142 136.87 44.166 136.378 44.166C135.082 44.166 134.164 43.794 133.624 43.05C133.084 42.294 132.814 41.124 132.814 39.54C132.814 36.384 134.068 34.806 136.576 34.806C137.8 34.806 138.706 35.148 139.294 35.832C139.894 36.504 140.194 37.566 140.194 39.018L140.122 40.044H134.182C134.182 41.052 134.362 41.796 134.722 42.276C135.082 42.744 135.712 42.978 136.612 42.978C137.512 42.978 138.418 42.942 139.33 42.87ZM134.164 38.964H138.844C138.844 37.86 138.664 37.08 138.304 36.624C137.956 36.168 137.386 35.94 136.594 35.94C135.79 35.94 135.184 36.18 134.776 36.66C134.38 37.14 134.176 37.908 134.164 38.964Z" fill="#78716C"/>
<path d="M143.989 43.986H146.689L149.227 34.986H147.841L145.663 42.816H144.997L142.891 34.986H141.451L143.989 43.986Z" fill="#78716C"/>
</svg>
