<svg width="38" height="49" viewBox="0 0 38 49" fill="none" xmlns="http://www.w3.org/2000/svg">
<path d="M2.16312 33.0266C1.21094 33.5975 4.46666e-08 32.9115 4.46666e-08 31.8014V17.2957C4.46666e-08 16.187 1.20799 15.5009 2.16022 16.0687L14.2907 23.3021C15.2186 23.8554 15.2202 25.1988 14.2936 25.7543L2.16312 33.0266Z" fill="#09090b"/>
<path d="M24.5214 18.9854C24.9207 19.25 25.1609 19.6972 25.1609 20.1763V28.8607C25.1609 29.3389 24.9216 29.7854 24.5234 30.0503L0.640101 45.9339C-0.537515 46.7171 0.0169348 48.552 1.4312 48.552H16.1611C16.4405 48.552 16.7138 48.4701 16.9471 48.3164L36.3659 35.5231C36.7671 35.2588 37.0085 34.8106 37.0085 34.3301V14.781C37.0085 14.2968 36.7632 13.8455 36.3568 13.5821L16.601 0.781668C16.3697 0.631764 16.0999 0.552002 15.8242 0.552002L1.44593 0.552015C0.0304382 0.552017 -0.523122 2.38954 0.656821 3.17143L24.5214 18.9854Z" fill="#09090b"/>
</svg>
