<svg width="150" height="48" viewBox="0 0 150 48" fill="none" xmlns="http://www.w3.org/2000/svg">
<path d="M2.16312 32.4746C1.21094 33.0455 4.46666e-08 32.3595 4.46666e-08 31.2494V16.7437C4.46666e-08 15.635 1.20799 14.9489 2.16022 15.5167L14.2907 22.7501C15.2186 23.3034 15.2202 24.6468 14.2936 25.2023L2.16312 32.4746Z" fill="#1C1917"/>
<path d="M24.5214 18.4334C24.9207 18.698 25.1609 19.1452 25.1609 19.6243V28.3087C25.1609 28.7869 24.9216 29.2334 24.5234 29.4983L0.640101 45.3819C-0.537515 46.1651 0.0169348 48 1.4312 48H16.1611C16.4405 48 16.7138 47.9181 16.9471 47.7644L36.3659 34.9711C36.7671 34.7068 37.0085 34.2585 37.0085 33.7781V14.229C37.0085 13.7448 36.7632 13.2935 36.3568 13.0301L16.601 0.229666C16.3697 0.0797621 16.0999 -2.59446e-07 15.8242 0L1.44593 1.35319e-05C0.0304382 1.48641e-05 -0.523122 1.83753 0.656821 2.61943L24.5214 18.4334Z" fill="#1C1917"/>
<path d="M58.2785 21.24V0H55.0085V21.24H58.2785Z" fill="#1C1917"/>
<path d="M65.6864 21.24V6.24H62.4164V21.24H65.6864ZM65.6864 3.69V0.239999H62.4164V3.69H65.6864Z" fill="#1C1917"/>
<path d="M72.9228 9.6V21.24H69.6528V6.24H72.8928V7.17C74.3728 6.33 75.7528 5.91 77.0328 5.91C78.0328 5.91 78.8628 6.05 79.5228 6.33C80.1828 6.59 80.7128 7.02 81.1128 7.62C81.5128 8.2 81.7928 8.95 81.9528 9.87C82.1328 10.79 82.2228 11.9 82.2228 13.2V21.24H78.9828V13.29C78.9828 12.47 78.9428 11.78 78.8628 11.22C78.7828 10.66 78.6428 10.2 78.4428 9.84C78.2628 9.48 77.9928 9.22 77.6328 9.06C77.2928 8.9 76.8528 8.82 76.3128 8.82C75.3128 8.82 74.3328 9.02 73.3728 9.42L72.9228 9.6Z" fill="#1C1917"/>
<path d="M89.2997 15.12L91.2497 14.91L94.9097 21.24H98.5997L94.0397 13.26L98.3597 6.24H94.6997L91.1597 12.09L89.2997 12.27V0H86.0297V21.24H89.2997V15.12Z" fill="#1C1917"/>
<path d="M61.9385 37.704V42.312C61.9745 42.756 62.3225 43.02 62.9825 43.104L62.9285 44.166C61.9805 44.166 61.2665 43.926 60.7865 43.446C59.7185 43.926 58.6385 44.166 57.5465 44.166C56.7185 44.166 56.0885 43.932 55.6565 43.464C55.2245 42.996 55.0085 42.324 55.0085 41.448C55.0085 40.572 55.2305 39.93 55.6745 39.522C56.1185 39.102 56.8145 38.844 57.7625 38.748L60.5885 38.478V37.704C60.5885 37.092 60.4565 36.654 60.1925 36.39C59.9285 36.126 59.5685 35.994 59.1125 35.994C58.6325 35.994 58.1405 36.012 57.6365 36.048C57.1445 36.072 56.6405 36.114 56.1245 36.174L55.5665 36.228L55.5125 35.202C56.7965 34.938 57.9665 34.806 59.0225 34.806C60.0425 34.806 60.7805 35.04 61.2365 35.508C61.7045 35.964 61.9385 36.696 61.9385 37.704ZM56.3945 41.376C56.3945 42.48 56.8505 43.032 57.7625 43.032C58.5665 43.032 59.3705 42.894 60.1745 42.618L60.5885 42.474V39.504L57.9245 39.756C57.3845 39.804 56.9945 39.96 56.7545 40.224C56.5145 40.488 56.3945 40.872 56.3945 41.376Z" fill="#78716C"/>
<path d="M69.2641 34.986V36.156H66.4021V40.458C66.4021 41.502 66.4801 42.18 66.6361 42.492C66.7801 42.816 67.1341 42.978 67.6981 42.978L69.3001 42.87L69.3901 43.986C68.9821 44.046 68.6221 44.094 68.3101 44.13C68.0101 44.166 67.7581 44.184 67.5541 44.184C67.0861 44.184 66.6901 44.13 66.3661 44.022C66.0541 43.926 65.8021 43.752 65.6101 43.5C65.4181 43.248 65.2801 42.912 65.1961 42.492C65.1121 42.072 65.0701 41.538 65.0701 40.89V36.156H63.7921V34.986H65.0701V32.232H66.4021V34.986H69.2641Z" fill="#78716C"/>
<path d="M74.8857 43.752V34.986H76.2177V43.77C76.2177 44.322 76.1757 44.796 76.0917 45.192C76.0077 45.588 75.8517 45.942 75.6237 46.254C75.3957 46.566 75.0897 46.86 74.7057 47.136C74.3217 47.412 73.8297 47.7 73.2297 48L72.6897 46.956C73.1577 46.692 73.5357 46.452 73.8237 46.236C74.1117 46.02 74.3337 45.798 74.4897 45.57C74.6457 45.342 74.7477 45.084 74.7957 44.796C74.8557 44.52 74.8857 44.172 74.8857 43.752ZM76.2177 32.952H74.8857V31.386H76.2177V32.952Z" fill="#78716C"/>
<path d="M78.4092 39.468C78.4092 38.64 78.4752 37.932 78.6072 37.344C78.7512 36.756 78.9792 36.276 79.2912 35.904C79.6032 35.52 80.0052 35.244 80.4972 35.076C80.9892 34.896 81.5832 34.806 82.2792 34.806C82.9752 34.806 83.5632 34.896 84.0432 35.076C84.5352 35.244 84.9312 35.52 85.2312 35.904C85.5432 36.276 85.7652 36.756 85.8972 37.344C86.0412 37.932 86.1132 38.64 86.1132 39.468C86.1132 40.296 86.0472 41.004 85.9152 41.592C85.7952 42.18 85.5852 42.666 85.2852 43.05C84.9852 43.434 84.5892 43.716 84.0972 43.896C83.6052 44.076 82.9932 44.166 82.2612 44.166C81.5292 44.166 80.9172 44.076 80.4252 43.896C79.9332 43.716 79.5372 43.434 79.2372 43.05C78.9372 42.666 78.7212 42.18 78.5892 41.592C78.4692 41.004 78.4092 40.296 78.4092 39.468ZM79.7952 39.432C79.7952 40.092 79.8252 40.65 79.8852 41.106C79.9572 41.55 80.0832 41.916 80.2632 42.204C80.4552 42.48 80.7132 42.684 81.0372 42.816C81.3612 42.936 81.7752 42.996 82.2792 42.996C82.7832 42.996 83.1912 42.936 83.5032 42.816C83.8272 42.696 84.0792 42.498 84.2592 42.222C84.4392 41.934 84.5592 41.568 84.6192 41.124C84.6912 40.668 84.7272 40.11 84.7272 39.45C84.7272 38.79 84.6852 38.238 84.6012 37.794C84.5292 37.35 84.3972 36.996 84.2052 36.732C84.0132 36.456 83.7612 36.264 83.4492 36.156C83.1372 36.036 82.7472 35.976 82.2792 35.976C81.8112 35.976 81.4152 36.036 81.0912 36.156C80.7792 36.264 80.5272 36.456 80.3352 36.732C80.1432 36.996 80.0052 37.35 79.9212 37.794C79.8372 38.226 79.7952 38.772 79.7952 39.432Z" fill="#78716C"/>
<path d="M93.931 42.294V34.986H95.281V43.986H93.931V43.356C93.031 43.896 92.143 44.166 91.267 44.166C90.655 44.166 90.151 44.094 89.755 43.95C89.359 43.806 89.047 43.56 88.819 43.212C88.603 42.864 88.447 42.408 88.351 41.844C88.267 41.268 88.225 40.548 88.225 39.684V34.986H89.575V39.666C89.575 40.314 89.599 40.854 89.647 41.286C89.695 41.706 89.785 42.042 89.917 42.294C90.049 42.546 90.241 42.72 90.493 42.816C90.745 42.912 91.069 42.96 91.465 42.96C91.861 42.96 92.263 42.906 92.671 42.798C93.079 42.678 93.391 42.564 93.607 42.456L93.931 42.294Z" fill="#78716C"/>
<path d="M99.3355 43.986V31.062H97.9855V43.986H99.3355Z" fill="#78716C"/>
<path d="M108.164 42.87L108.686 42.816L108.722 43.878C108.038 43.974 107.402 44.046 106.814 44.094C106.238 44.142 105.704 44.166 105.212 44.166C103.916 44.166 102.998 43.794 102.458 43.05C101.918 42.294 101.648 41.124 101.648 39.54C101.648 36.384 102.902 34.806 105.41 34.806C106.634 34.806 107.54 35.148 108.128 35.832C108.728 36.504 109.028 37.566 109.028 39.018L108.956 40.044H103.016C103.016 41.052 103.196 41.796 103.556 42.276C103.916 42.744 104.546 42.978 105.446 42.978C106.346 42.978 107.252 42.942 108.164 42.87ZM102.998 38.964H107.678C107.678 37.86 107.498 37.08 107.138 36.624C106.79 36.168 106.22 35.94 105.428 35.94C104.624 35.94 104.018 36.18 103.61 36.66C103.214 37.14 103.01 37.908 102.998 38.964Z" fill="#78716C"/>
<path d="M112.823 43.986H115.523L118.061 34.986H116.675L114.497 42.816H113.831L111.725 34.986H110.285L112.823 43.986Z" fill="#78716C"/>
<path d="M121.183 43.986V41.934H119.707V43.986H121.183Z" fill="#78716C"/>
<path d="M129.262 31.062H130.594V43.986H129.262V43.374C128.338 43.902 127.426 44.166 126.526 44.166C125.842 44.166 125.29 44.046 124.87 43.806C124.45 43.566 124.12 43.242 123.88 42.834C123.652 42.426 123.496 41.958 123.412 41.43C123.328 40.89 123.286 40.326 123.286 39.738C123.286 37.986 123.574 36.726 124.15 35.958C124.738 35.19 125.704 34.806 127.048 34.806C127.78 34.806 128.518 34.884 129.262 35.04V31.062ZM126.76 42.96C126.928 42.96 127.108 42.948 127.3 42.924C127.504 42.888 127.702 42.846 127.894 42.798C128.098 42.738 128.284 42.678 128.452 42.618C128.632 42.558 128.782 42.504 128.902 42.456L129.262 42.294V36.192C128.494 36.048 127.78 35.976 127.12 35.976C126.208 35.976 125.572 36.264 125.212 36.84C124.852 37.416 124.672 38.322 124.672 39.558C124.672 39.942 124.69 40.338 124.726 40.746C124.762 41.142 124.846 41.508 124.978 41.844C125.122 42.168 125.332 42.438 125.608 42.654C125.896 42.858 126.28 42.96 126.76 42.96Z" fill="#78716C"/>
<path d="M139.33 42.87L139.852 42.816L139.888 43.878C139.204 43.974 138.568 44.046 137.98 44.094C137.404 44.142 136.87 44.166 136.378 44.166C135.082 44.166 134.164 43.794 133.624 43.05C133.084 42.294 132.814 41.124 132.814 39.54C132.814 36.384 134.068 34.806 136.576 34.806C137.8 34.806 138.706 35.148 139.294 35.832C139.894 36.504 140.194 37.566 140.194 39.018L140.122 40.044H134.182C134.182 41.052 134.362 41.796 134.722 42.276C135.082 42.744 135.712 42.978 136.612 42.978C137.512 42.978 138.418 42.942 139.33 42.87ZM134.164 38.964H138.844C138.844 37.86 138.664 37.08 138.304 36.624C137.956 36.168 137.386 35.94 136.594 35.94C135.79 35.94 135.184 36.18 134.776 36.66C134.38 37.14 134.176 37.908 134.164 38.964Z" fill="#78716C"/>
<path d="M143.989 43.986H146.689L149.227 34.986H147.841L145.663 42.816H144.997L142.891 34.986H141.451L143.989 43.986Z" fill="#78716C"/>
</svg>
