<svg width="125" height="49" viewBox="0 0 125 49" fill="none" xmlns="http://www.w3.org/2000/svg">
<path d="M3.06949 33.0266C2.11731 33.5975 0.906372 32.9115 0.906372 31.8014V17.2957C0.906372 16.187 2.11436 15.5009 3.0666 16.0687L15.1971 23.3021C16.125 23.8554 16.1266 25.1988 15.2 25.7543L3.06949 33.0266Z" fill="#F5F5F4"/>
<path d="M25.4278 18.9854C25.8271 19.25 26.0672 19.6972 26.0672 20.1763V28.8607C26.0672 29.3389 25.828 29.7854 25.4298 30.0503L1.54647 45.9339C0.368857 46.7171 0.923307 48.552 2.33757 48.552H17.0675C17.3469 48.552 17.6201 48.4701 17.8534 48.3164L37.2723 35.5231C37.6734 35.2588 37.9149 34.8106 37.9149 34.3301V14.781C37.9149 14.2968 37.6696 13.8455 37.2632 13.5821L17.5074 0.781668C17.276 0.631764 17.0063 0.552002 16.7306 0.552002L2.35231 0.552015C0.93681 0.552017 0.38325 2.38954 1.56319 3.17143L25.4278 18.9854Z" fill="#F5F5F4"/>
<path d="M67.1649 20.247L67.1049 22.977C65.9049 22.817 64.8749 22.697 64.0149 22.617C63.1749 22.537 62.4949 22.497 61.9749 22.497C60.8949 22.497 60.1549 22.627 59.7549 22.887C59.3549 23.127 59.1549 23.517 59.1549 24.057C59.1549 24.597 59.3849 24.977 59.8449 25.197C60.0649 25.297 60.4349 25.417 60.9549 25.557C61.4949 25.677 62.1849 25.807 63.0249 25.947C63.8649 26.087 64.5749 26.267 65.1549 26.487C65.7349 26.707 66.2049 26.997 66.5649 27.357C66.9249 27.697 67.1849 28.137 67.3449 28.677C67.5249 29.197 67.6149 29.847 67.6149 30.627C67.6149 32.207 67.1049 33.367 66.0849 34.107C65.0849 34.847 63.6149 35.217 61.6749 35.217C61.0549 35.217 60.3649 35.167 59.6049 35.067C58.8449 34.987 57.9949 34.867 57.0549 34.707L56.1249 34.557L56.2449 31.827C57.4449 31.987 58.4749 32.107 59.3349 32.187C60.2149 32.267 60.9149 32.307 61.4349 32.307C62.5149 32.307 63.2749 32.177 63.7149 31.917C64.1549 31.657 64.3749 31.227 64.3749 30.627C64.3749 30.027 64.1649 29.607 63.7449 29.367C63.5249 29.267 63.1549 29.157 62.6349 29.037C62.1349 28.897 61.4749 28.757 60.6549 28.617C59.8349 28.477 59.1249 28.317 58.5249 28.137C57.9449 27.937 57.4549 27.677 57.0549 27.357C56.6749 27.017 56.3849 26.597 56.1849 26.097C56.0049 25.597 55.9149 24.957 55.9149 24.177C55.9149 23.397 56.0549 22.727 56.3349 22.167C56.6149 21.587 56.9949 21.107 57.4749 20.727C57.9749 20.347 58.5649 20.067 59.2449 19.887C59.9449 19.687 60.7049 19.587 61.5249 19.587C62.1649 19.587 62.8749 19.627 63.6549 19.707C64.4349 19.787 65.2949 19.907 66.2349 20.067L67.1649 20.247Z" fill="#F5F5F4"/>
<path d="M78.8274 19.887V22.677H74.6874V29.277C74.6874 29.877 74.6974 30.377 74.7174 30.777C74.7574 31.177 74.8374 31.487 74.9574 31.707C75.0774 31.927 75.2474 32.087 75.4674 32.187C75.6874 32.267 75.9774 32.307 76.3374 32.307L78.7974 32.217L78.9474 34.827C77.6474 35.087 76.6274 35.217 75.8874 35.217C75.0474 35.217 74.3374 35.127 73.7574 34.947C73.1974 34.767 72.7374 34.467 72.3774 34.047C72.0374 33.627 71.7974 33.057 71.6574 32.337C71.5174 31.617 71.4474 30.717 71.4474 29.637V22.677H69.5274V19.887H71.4474V15.537H74.6874V19.887H78.8274Z" fill="#F5F5F4"/>
<path d="M92.6094 24.507V31.347C92.6294 31.787 92.7394 32.117 92.9394 32.337C93.1594 32.537 93.4894 32.667 93.9294 32.727L93.8394 35.217C92.0994 35.217 90.7694 34.847 89.8494 34.107C88.2894 34.847 86.6794 35.217 85.0194 35.217C82.0394 35.217 80.5494 33.627 80.5494 30.447C80.5494 28.927 80.9494 27.827 81.7494 27.147C82.5494 26.467 83.7994 26.057 85.4994 25.917L89.3694 25.587V24.507C89.3694 23.707 89.1894 23.147 88.8294 22.827C88.4894 22.507 87.9794 22.347 87.2994 22.347C86.6594 22.347 85.9394 22.367 85.1394 22.407C84.3394 22.447 83.4594 22.507 82.4994 22.587L81.5394 22.647L81.4194 20.337C83.6594 19.817 85.6694 19.557 87.4494 19.557C89.2894 19.557 90.6094 19.947 91.4094 20.727C92.2094 21.507 92.6094 22.767 92.6094 24.507ZM89.3694 27.897L85.8894 28.227C84.5094 28.347 83.8194 29.097 83.8194 30.477C83.8194 31.857 84.4294 32.547 85.6494 32.547C86.6894 32.547 87.7494 32.387 88.8294 32.067L89.3694 31.887V27.897Z" fill="#F5F5F4"/>
<path d="M104.784 19.887V22.677H100.644V29.277C100.644 29.877 100.654 30.377 100.674 30.777C100.714 31.177 100.794 31.487 100.914 31.707C101.034 31.927 101.204 32.087 101.424 32.187C101.644 32.267 101.934 32.307 102.294 32.307L104.754 32.217L104.904 34.827C103.604 35.087 102.584 35.217 101.844 35.217C101.004 35.217 100.294 35.127 99.7144 34.947C99.1544 34.767 98.6944 34.467 98.3344 34.047C97.9944 33.627 97.7544 33.057 97.6144 32.337C97.4744 31.617 97.4044 30.717 97.4044 29.637V22.677H95.4844V19.887H97.4044V15.537H100.644V19.887H104.784Z" fill="#F5F5F4"/>
<path d="M110.736 34.887V19.887H107.466V34.887H110.736ZM110.736 17.337V13.887H107.466V17.337H110.736Z" fill="#F5F5F4"/>
<path d="M120.313 19.557C121.313 19.557 122.563 19.697 124.063 19.977L124.813 20.127L124.693 22.707C123.893 22.627 123.203 22.567 122.623 22.527C122.043 22.487 121.563 22.467 121.183 22.467C120.423 22.467 119.793 22.547 119.293 22.707C118.813 22.847 118.423 23.107 118.123 23.487C117.843 23.867 117.643 24.367 117.523 24.987C117.403 25.607 117.343 26.387 117.343 27.327C117.343 28.267 117.393 29.057 117.493 29.697C117.613 30.317 117.813 30.827 118.093 31.227C118.373 31.607 118.763 31.887 119.263 32.067C119.783 32.227 120.433 32.307 121.213 32.307L124.723 32.067L124.813 34.677C122.813 35.037 121.293 35.217 120.253 35.217C119.113 35.217 118.143 35.067 117.343 34.767C116.563 34.467 115.923 34.007 115.423 33.387C114.943 32.747 114.593 31.927 114.373 30.927C114.153 29.927 114.043 28.727 114.043 27.327C114.043 25.927 114.163 24.737 114.403 23.757C114.643 22.757 115.013 21.947 115.513 21.327C116.013 20.707 116.663 20.257 117.463 19.977C118.263 19.697 119.213 19.557 120.313 19.557Z" fill="#F5F5F4"/>
</svg>
