<svg width="150" height="48" viewBox="0 0 150 48" fill="none" xmlns="http://www.w3.org/2000/svg">
<path d="M2.39054 32.4746C1.43835 33.0455 0.227417 32.3595 0.227417 31.2494V16.7437C0.227417 15.635 1.4354 14.9489 2.38764 15.5167L14.5181 22.7501C15.4461 23.3034 15.4476 24.6468 14.521 25.2023L2.39054 32.4746Z" fill="#fafafa"/>
<path d="M24.7488 18.4334C25.1482 18.698 25.3883 19.1452 25.3883 19.6243V28.3087C25.3883 28.7869 25.149 29.2334 24.7508 29.4983L0.867518 45.3819C-0.310098 46.1651 0.244352 48 1.65862 48H16.3886C16.6679 48 16.9412 47.9181 17.1745 47.7644L36.5933 34.9711C36.9945 34.7068 37.236 34.2585 37.236 33.7781V14.229C37.236 13.7448 36.9906 13.2935 36.5842 13.0301L16.8284 0.229666C16.5971 0.0797621 16.3273 -2.59446e-07 16.0516 0L1.67335 1.35319e-05C0.257855 1.48641e-05 -0.295705 1.83753 0.884238 2.61943L24.7488 18.4334Z" fill="#fafafa"/>
<path d="M66.486 6.36L66.426 9.09C65.226 8.93 64.196 8.81 63.336 8.73C62.496 8.65 61.816 8.61 61.296 8.61C60.216 8.61 59.476 8.74 59.076 9C58.676 9.24 58.476 9.63 58.476 10.17C58.476 10.71 58.706 11.09 59.166 11.31C59.386 11.41 59.756 11.53 60.276 11.67C60.816 11.79 61.506 11.92 62.346 12.06C63.186 12.2 63.896 12.38 64.476 12.6C65.056 12.82 65.526 13.11 65.886 13.47C66.246 13.81 66.506 14.25 66.666 14.79C66.846 15.31 66.936 15.96 66.936 16.74C66.936 18.32 66.426 19.48 65.406 20.22C64.406 20.96 62.936 21.33 60.996 21.33C60.376 21.33 59.686 21.28 58.926 21.18C58.166 21.1 57.316 20.98 56.376 20.82L55.446 20.67L55.566 17.94C56.766 18.1 57.796 18.22 58.656 18.3C59.536 18.38 60.236 18.42 60.756 18.42C61.836 18.42 62.596 18.29 63.036 18.03C63.476 17.77 63.696 17.34 63.696 16.74C63.696 16.14 63.486 15.72 63.066 15.48C62.846 15.38 62.476 15.27 61.956 15.15C61.456 15.01 60.796 14.87 59.976 14.73C59.156 14.59 58.446 14.43 57.846 14.25C57.266 14.05 56.776 13.79 56.376 13.47C55.996 13.13 55.706 12.71 55.506 12.21C55.326 11.71 55.236 11.07 55.236 10.29C55.236 9.51 55.376 8.84 55.656 8.28C55.936 7.7 56.316 7.22 56.796 6.84C57.296 6.46 57.886 6.18 58.566 6C59.266 5.8 60.026 5.7 60.846 5.7C61.486 5.7 62.196 5.74 62.976 5.82C63.756 5.9 64.616 6.02 65.556 6.18L66.486 6.36Z" fill="#fafafa"/>
<path d="M78.1485 6V8.79H74.0085V15.39C74.0085 15.99 74.0185 16.49 74.0385 16.89C74.0785 17.29 74.1585 17.6 74.2785 17.82C74.3985 18.04 74.5685 18.2 74.7885 18.3C75.0085 18.38 75.2985 18.42 75.6585 18.42L78.1185 18.33L78.2685 20.94C76.9685 21.2 75.9485 21.33 75.2085 21.33C74.3685 21.33 73.6585 21.24 73.0785 21.06C72.5185 20.88 72.0585 20.58 71.6985 20.16C71.3585 19.74 71.1185 19.17 70.9785 18.45C70.8385 17.73 70.7685 16.83 70.7685 15.75V8.79H68.8485V6H70.7685V1.65H74.0085V6H78.1485Z" fill="#fafafa"/>
<path d="M91.9304 10.62V17.46C91.9504 17.9 92.0604 18.23 92.2604 18.45C92.4804 18.65 92.8104 18.78 93.2504 18.84L93.1604 21.33C91.4204 21.33 90.0904 20.96 89.1704 20.22C87.6104 20.96 86.0004 21.33 84.3404 21.33C81.3604 21.33 79.8704 19.74 79.8704 16.56C79.8704 15.04 80.2704 13.94 81.0704 13.26C81.8704 12.58 83.1204 12.17 84.8204 12.03L88.6904 11.7V10.62C88.6904 9.82 88.5104 9.26 88.1504 8.94C87.8104 8.62 87.3004 8.46 86.6204 8.46C85.9804 8.46 85.2604 8.48 84.4604 8.52C83.6604 8.56 82.7804 8.62 81.8204 8.7L80.8604 8.76L80.7404 6.45C82.9804 5.93 84.9904 5.67 86.7704 5.67C88.6104 5.67 89.9304 6.06 90.7304 6.84C91.5304 7.62 91.9304 8.88 91.9304 10.62ZM88.6904 14.01L85.2104 14.34C83.8304 14.46 83.1404 15.21 83.1404 16.59C83.1404 17.97 83.7504 18.66 84.9704 18.66C86.0104 18.66 87.0704 18.5 88.1504 18.18L88.6904 18V14.01Z" fill="#fafafa"/>
<path d="M104.105 6V8.79H99.9655V15.39C99.9655 15.99 99.9755 16.49 99.9955 16.89C100.035 17.29 100.115 17.6 100.235 17.82C100.355 18.04 100.525 18.2 100.745 18.3C100.965 18.38 101.255 18.42 101.615 18.42L104.075 18.33L104.225 20.94C102.925 21.2 101.905 21.33 101.165 21.33C100.325 21.33 99.6155 21.24 99.0355 21.06C98.4755 20.88 98.0155 20.58 97.6555 20.16C97.3155 19.74 97.0755 19.17 96.9355 18.45C96.7955 17.73 96.7255 16.83 96.7255 15.75V8.79H94.8055V6H96.7255V1.65H99.9655V6H104.105Z" fill="#fafafa"/>
<path d="M110.057 21V6H106.787V21H110.057ZM110.057 3.45V0H106.787V3.45H110.057Z" fill="#fafafa"/>
<path d="M119.634 5.67C120.634 5.67 121.884 5.81 123.384 6.09L124.134 6.24L124.014 8.82C123.214 8.74 122.524 8.68 121.944 8.64C121.364 8.6 120.884 8.58 120.504 8.58C119.744 8.58 119.114 8.66 118.614 8.82C118.134 8.96 117.744 9.22 117.444 9.6C117.164 9.98 116.964 10.48 116.844 11.1C116.724 11.72 116.664 12.5 116.664 13.44C116.664 14.38 116.714 15.17 116.814 15.81C116.934 16.43 117.134 16.94 117.414 17.34C117.694 17.72 118.084 18 118.584 18.18C119.104 18.34 119.754 18.42 120.534 18.42L124.044 18.18L124.134 20.79C122.134 21.15 120.614 21.33 119.574 21.33C118.434 21.33 117.464 21.18 116.664 20.88C115.884 20.58 115.244 20.12 114.744 19.5C114.264 18.86 113.914 18.04 113.694 17.04C113.474 16.04 113.364 14.84 113.364 13.44C113.364 12.04 113.484 10.85 113.724 9.87C113.964 8.87 114.334 8.06 114.834 7.44C115.334 6.82 115.984 6.37 116.784 6.09C117.584 5.81 118.534 5.67 119.634 5.67Z" fill="#fafafa"/>
<path d="M62.166 37.704V42.312C62.202 42.756 62.55 43.02 63.21 43.104L63.156 44.166C62.208 44.166 61.494 43.926 61.014 43.446C59.946 43.926 58.866 44.166 57.774 44.166C56.946 44.166 56.316 43.932 55.884 43.464C55.452 42.996 55.236 42.324 55.236 41.448C55.236 40.572 55.458 39.93 55.902 39.522C56.346 39.102 57.042 38.844 57.99 38.748L60.816 38.478V37.704C60.816 37.092 60.684 36.654 60.42 36.39C60.156 36.126 59.796 35.994 59.34 35.994C58.86 35.994 58.368 36.012 57.864 36.048C57.372 36.072 56.868 36.114 56.352 36.174L55.794 36.228L55.74 35.202C57.024 34.938 58.194 34.806 59.25 34.806C60.27 34.806 61.008 35.04 61.464 35.508C61.932 35.964 62.166 36.696 62.166 37.704ZM56.622 41.376C56.622 42.48 57.078 43.032 57.99 43.032C58.794 43.032 59.598 42.894 60.402 42.618L60.816 42.474V39.504L58.152 39.756C57.612 39.804 57.222 39.96 56.982 40.224C56.742 40.488 56.622 40.872 56.622 41.376Z" fill="#71717a"/>
<path d="M69.4915 34.986V36.156H66.6295V40.458C66.6295 41.502 66.7075 42.18 66.8635 42.492C67.0075 42.816 67.3615 42.978 67.9255 42.978L69.5275 42.87L69.6175 43.986C69.2095 44.046 68.8495 44.094 68.5375 44.13C68.2375 44.166 67.9855 44.184 67.7815 44.184C67.3135 44.184 66.9175 44.13 66.5935 44.022C66.2815 43.926 66.0295 43.752 65.8375 43.5C65.6455 43.248 65.5075 42.912 65.4235 42.492C65.3395 42.072 65.2975 41.538 65.2975 40.89V36.156H64.0195V34.986H65.2975V32.232H66.6295V34.986H69.4915Z" fill="#71717a"/>
<path d="M75.1132 43.752V34.986H76.4452V43.77C76.4452 44.322 76.4032 44.796 76.3192 45.192C76.2352 45.588 76.0792 45.942 75.8512 46.254C75.6232 46.566 75.3172 46.86 74.9332 47.136C74.5492 47.412 74.0572 47.7 73.4572 48L72.9172 46.956C73.3852 46.692 73.7632 46.452 74.0512 46.236C74.3392 46.02 74.5612 45.798 74.7172 45.57C74.8732 45.342 74.9752 45.084 75.0232 44.796C75.0832 44.52 75.1132 44.172 75.1132 43.752ZM76.4452 32.952H75.1132V31.386H76.4452V32.952Z" fill="#71717a"/>
<path d="M78.6367 39.468C78.6367 38.64 78.7027 37.932 78.8347 37.344C78.9787 36.756 79.2067 36.276 79.5187 35.904C79.8307 35.52 80.2327 35.244 80.7247 35.076C81.2167 34.896 81.8107 34.806 82.5067 34.806C83.2027 34.806 83.7907 34.896 84.2707 35.076C84.7627 35.244 85.1587 35.52 85.4587 35.904C85.7707 36.276 85.9927 36.756 86.1247 37.344C86.2687 37.932 86.3407 38.64 86.3407 39.468C86.3407 40.296 86.2747 41.004 86.1427 41.592C86.0227 42.18 85.8127 42.666 85.5127 43.05C85.2127 43.434 84.8167 43.716 84.3247 43.896C83.8327 44.076 83.2207 44.166 82.4887 44.166C81.7567 44.166 81.1447 44.076 80.6527 43.896C80.1607 43.716 79.7647 43.434 79.4647 43.05C79.1647 42.666 78.9487 42.18 78.8167 41.592C78.6967 41.004 78.6367 40.296 78.6367 39.468ZM80.0227 39.432C80.0227 40.092 80.0527 40.65 80.1127 41.106C80.1847 41.55 80.3107 41.916 80.4907 42.204C80.6827 42.48 80.9407 42.684 81.2647 42.816C81.5887 42.936 82.0027 42.996 82.5067 42.996C83.0107 42.996 83.4187 42.936 83.7307 42.816C84.0547 42.696 84.3067 42.498 84.4867 42.222C84.6667 41.934 84.7867 41.568 84.8467 41.124C84.9187 40.668 84.9547 40.11 84.9547 39.45C84.9547 38.79 84.9127 38.238 84.8287 37.794C84.7567 37.35 84.6247 36.996 84.4327 36.732C84.2407 36.456 83.9887 36.264 83.6767 36.156C83.3647 36.036 82.9747 35.976 82.5067 35.976C82.0387 35.976 81.6427 36.036 81.3187 36.156C81.0067 36.264 80.7547 36.456 80.5627 36.732C80.3707 36.996 80.2327 37.35 80.1487 37.794C80.0647 38.226 80.0227 38.772 80.0227 39.432Z" fill="#71717a"/>
<path d="M94.1584 42.294V34.986H95.5084V43.986H94.1584V43.356C93.2584 43.896 92.3704 44.166 91.4944 44.166C90.8824 44.166 90.3784 44.094 89.9824 43.95C89.5864 43.806 89.2744 43.56 89.0464 43.212C88.8304 42.864 88.6744 42.408 88.5784 41.844C88.4944 41.268 88.4524 40.548 88.4524 39.684V34.986H89.8024V39.666C89.8024 40.314 89.8264 40.854 89.8744 41.286C89.9224 41.706 90.0124 42.042 90.1444 42.294C90.2764 42.546 90.4684 42.72 90.7204 42.816C90.9724 42.912 91.2964 42.96 91.6924 42.96C92.0884 42.96 92.4904 42.906 92.8984 42.798C93.3064 42.678 93.6184 42.564 93.8344 42.456L94.1584 42.294Z" fill="#71717a"/>
<path d="M99.5629 43.986V31.062H98.2129V43.986H99.5629Z" fill="#71717a"/>
<path d="M108.391 42.87L108.913 42.816L108.949 43.878C108.265 43.974 107.629 44.046 107.041 44.094C106.465 44.142 105.931 44.166 105.439 44.166C104.143 44.166 103.225 43.794 102.685 43.05C102.145 42.294 101.875 41.124 101.875 39.54C101.875 36.384 103.129 34.806 105.637 34.806C106.861 34.806 107.767 35.148 108.355 35.832C108.955 36.504 109.255 37.566 109.255 39.018L109.183 40.044H103.243C103.243 41.052 103.423 41.796 103.783 42.276C104.143 42.744 104.773 42.978 105.673 42.978C106.573 42.978 107.479 42.942 108.391 42.87ZM103.225 38.964H107.905C107.905 37.86 107.725 37.08 107.365 36.624C107.017 36.168 106.447 35.94 105.655 35.94C104.851 35.94 104.245 36.18 103.837 36.66C103.441 37.14 103.237 37.908 103.225 38.964Z" fill="#71717a"/>
<path d="M113.051 43.986H115.751L118.289 34.986H116.903L114.725 42.816H114.059L111.953 34.986H110.513L113.051 43.986Z" fill="#71717a"/>
<path d="M121.411 43.986V41.934H119.935V43.986H121.411Z" fill="#71717a"/>
<path d="M129.49 31.062H130.822V43.986H129.49V43.374C128.566 43.902 127.654 44.166 126.754 44.166C126.07 44.166 125.518 44.046 125.098 43.806C124.678 43.566 124.348 43.242 124.108 42.834C123.88 42.426 123.724 41.958 123.64 41.43C123.556 40.89 123.514 40.326 123.514 39.738C123.514 37.986 123.802 36.726 124.378 35.958C124.966 35.19 125.932 34.806 127.276 34.806C128.008 34.806 128.746 34.884 129.49 35.04V31.062ZM126.988 42.96C127.156 42.96 127.336 42.948 127.528 42.924C127.732 42.888 127.93 42.846 128.122 42.798C128.326 42.738 128.512 42.678 128.68 42.618C128.86 42.558 129.01 42.504 129.13 42.456L129.49 42.294V36.192C128.722 36.048 128.008 35.976 127.348 35.976C126.436 35.976 125.8 36.264 125.44 36.84C125.08 37.416 124.9 38.322 124.9 39.558C124.9 39.942 124.918 40.338 124.954 40.746C124.99 41.142 125.074 41.508 125.206 41.844C125.35 42.168 125.56 42.438 125.836 42.654C126.124 42.858 126.508 42.96 126.988 42.96Z" fill="#71717a"/>
<path d="M139.557 42.87L140.079 42.816L140.115 43.878C139.431 43.974 138.795 44.046 138.207 44.094C137.631 44.142 137.097 44.166 136.605 44.166C135.309 44.166 134.391 43.794 133.851 43.05C133.311 42.294 133.041 41.124 133.041 39.54C133.041 36.384 134.295 34.806 136.803 34.806C138.027 34.806 138.933 35.148 139.521 35.832C140.121 36.504 140.421 37.566 140.421 39.018L140.349 40.044H134.409C134.409 41.052 134.589 41.796 134.949 42.276C135.309 42.744 135.939 42.978 136.839 42.978C137.739 42.978 138.645 42.942 139.557 42.87ZM134.391 38.964H139.071C139.071 37.86 138.891 37.08 138.531 36.624C138.183 36.168 137.613 35.94 136.821 35.94C136.017 35.94 135.411 36.18 135.003 36.66C134.607 37.14 134.403 37.908 134.391 38.964Z" fill="#71717a"/>
<path d="M144.217 43.986H146.917L149.455 34.986H148.069L145.891 42.816H145.225L143.119 34.986H141.679L144.217 43.986Z" fill="#71717a"/>
</svg>
