<svg width="124" height="49" viewBox="0 0 124 49" fill="none" xmlns="http://www.w3.org/2000/svg">
<path d="M2.16312 33.0266C1.21094 33.5975 4.46666e-08 32.9115 4.46666e-08 31.8014V17.2957C4.46666e-08 16.187 1.20799 15.5009 2.16022 16.0687L14.2907 23.3021C15.2186 23.8554 15.2202 25.1988 14.2936 25.7543L2.16312 33.0266Z" fill="#1C1917"/>
<path d="M24.5214 18.9854C24.9207 19.25 25.1609 19.6972 25.1609 20.1763V28.8607C25.1609 29.3389 24.9216 29.7854 24.5234 30.0503L0.640101 45.9339C-0.537515 46.7171 0.0169348 48.552 1.4312 48.552H16.1611C16.4405 48.552 16.7138 48.4701 16.9471 48.3164L36.3659 35.5231C36.7671 35.2588 37.0085 34.8106 37.0085 34.3301V14.781C37.0085 14.2968 36.7632 13.8455 36.3568 13.5821L16.601 0.781668C16.3697 0.631764 16.0999 0.552002 15.8242 0.552002L1.44593 0.552015C0.0304382 0.552017 -0.523122 2.38954 0.656821 3.17143L24.5214 18.9854Z" fill="#1C1917"/>
<path d="M66.2585 20.247L66.1985 22.977C64.9985 22.817 63.9685 22.697 63.1085 22.617C62.2685 22.537 61.5885 22.497 61.0685 22.497C59.9885 22.497 59.2485 22.627 58.8485 22.887C58.4485 23.127 58.2485 23.517 58.2485 24.057C58.2485 24.597 58.4785 24.977 58.9385 25.197C59.1585 25.297 59.5285 25.417 60.0485 25.557C60.5885 25.677 61.2785 25.807 62.1185 25.947C62.9585 26.087 63.6685 26.267 64.2485 26.487C64.8285 26.707 65.2985 26.997 65.6585 27.357C66.0185 27.697 66.2785 28.137 66.4385 28.677C66.6185 29.197 66.7085 29.847 66.7085 30.627C66.7085 32.207 66.1985 33.367 65.1785 34.107C64.1785 34.847 62.7085 35.217 60.7685 35.217C60.1485 35.217 59.4585 35.167 58.6985 35.067C57.9385 34.987 57.0885 34.867 56.1485 34.707L55.2185 34.557L55.3385 31.827C56.5385 31.987 57.5685 32.107 58.4285 32.187C59.3085 32.267 60.0085 32.307 60.5285 32.307C61.6085 32.307 62.3685 32.177 62.8085 31.917C63.2485 31.657 63.4685 31.227 63.4685 30.627C63.4685 30.027 63.2585 29.607 62.8385 29.367C62.6185 29.267 62.2485 29.157 61.7285 29.037C61.2285 28.897 60.5685 28.757 59.7485 28.617C58.9285 28.477 58.2185 28.317 57.6185 28.137C57.0385 27.937 56.5485 27.677 56.1485 27.357C55.7685 27.017 55.4785 26.597 55.2785 26.097C55.0985 25.597 55.0085 24.957 55.0085 24.177C55.0085 23.397 55.1485 22.727 55.4285 22.167C55.7085 21.587 56.0885 21.107 56.5685 20.727C57.0685 20.347 57.6585 20.067 58.3385 19.887C59.0385 19.687 59.7985 19.587 60.6185 19.587C61.2585 19.587 61.9685 19.627 62.7485 19.707C63.5285 19.787 64.3885 19.907 65.3285 20.067L66.2585 20.247Z" fill="#1C1917"/>
<path d="M77.921 19.887V22.677H73.781V29.277C73.781 29.877 73.791 30.377 73.811 30.777C73.851 31.177 73.931 31.487 74.051 31.707C74.171 31.927 74.341 32.087 74.561 32.187C74.781 32.267 75.071 32.307 75.431 32.307L77.891 32.217L78.041 34.827C76.741 35.087 75.721 35.217 74.981 35.217C74.141 35.217 73.431 35.127 72.851 34.947C72.291 34.767 71.831 34.467 71.471 34.047C71.131 33.627 70.891 33.057 70.751 32.337C70.611 31.617 70.541 30.717 70.541 29.637V22.677H68.621V19.887H70.541V15.537H73.781V19.887H77.921Z" fill="#1C1917"/>
<path d="M91.703 24.507V31.347C91.723 31.787 91.833 32.117 92.033 32.337C92.253 32.537 92.583 32.667 93.023 32.727L92.933 35.217C91.193 35.217 89.863 34.847 88.943 34.107C87.383 34.847 85.773 35.217 84.113 35.217C81.133 35.217 79.643 33.627 79.643 30.447C79.643 28.927 80.043 27.827 80.843 27.147C81.643 26.467 82.893 26.057 84.593 25.917L88.463 25.587V24.507C88.463 23.707 88.283 23.147 87.923 22.827C87.583 22.507 87.073 22.347 86.393 22.347C85.753 22.347 85.033 22.367 84.233 22.407C83.433 22.447 82.553 22.507 81.593 22.587L80.633 22.647L80.513 20.337C82.753 19.817 84.763 19.557 86.543 19.557C88.383 19.557 89.703 19.947 90.503 20.727C91.303 21.507 91.703 22.767 91.703 24.507ZM88.463 27.897L84.983 28.227C83.603 28.347 82.913 29.097 82.913 30.477C82.913 31.857 83.523 32.547 84.743 32.547C85.783 32.547 86.843 32.387 87.923 32.067L88.463 31.887V27.897Z" fill="#1C1917"/>
<path d="M103.878 19.887V22.677H99.7381V29.277C99.7381 29.877 99.7481 30.377 99.7681 30.777C99.8081 31.177 99.8881 31.487 100.008 31.707C100.128 31.927 100.298 32.087 100.518 32.187C100.738 32.267 101.028 32.307 101.388 32.307L103.848 32.217L103.998 34.827C102.698 35.087 101.678 35.217 100.938 35.217C100.098 35.217 99.3881 35.127 98.8081 34.947C98.2481 34.767 97.7881 34.467 97.4281 34.047C97.0881 33.627 96.8481 33.057 96.7081 32.337C96.5681 31.617 96.4981 30.717 96.4981 29.637V22.677H94.5781V19.887H96.4981V15.537H99.7381V19.887H103.878Z" fill="#1C1917"/>
<path d="M109.83 34.887V19.887H106.56V34.887H109.83ZM109.83 17.337V13.887H106.56V17.337H109.83Z" fill="#1C1917"/>
<path d="M119.406 19.557C120.406 19.557 121.656 19.697 123.156 19.977L123.906 20.127L123.786 22.707C122.986 22.627 122.296 22.567 121.716 22.527C121.136 22.487 120.656 22.467 120.276 22.467C119.516 22.467 118.886 22.547 118.386 22.707C117.906 22.847 117.516 23.107 117.216 23.487C116.936 23.867 116.736 24.367 116.616 24.987C116.496 25.607 116.436 26.387 116.436 27.327C116.436 28.267 116.486 29.057 116.586 29.697C116.706 30.317 116.906 30.827 117.186 31.227C117.466 31.607 117.856 31.887 118.356 32.067C118.876 32.227 119.526 32.307 120.306 32.307L123.816 32.067L123.906 34.677C121.906 35.037 120.386 35.217 119.346 35.217C118.206 35.217 117.236 35.067 116.436 34.767C115.656 34.467 115.016 34.007 114.516 33.387C114.036 32.747 113.686 31.927 113.466 30.927C113.246 29.927 113.136 28.727 113.136 27.327C113.136 25.927 113.256 24.737 113.496 23.757C113.736 22.757 114.106 21.947 114.606 21.327C115.106 20.707 115.756 20.257 116.556 19.977C117.356 19.697 118.306 19.557 119.406 19.557Z" fill="#1C1917"/>
</svg>
