<svg width="150" height="48" viewBox="0 0 150 48" fill="none" xmlns="http://www.w3.org/2000/svg">
<path d="M2.39054 32.4746C1.43835 33.0455 0.227417 32.3595 0.227417 31.2494V16.7437C0.227417 15.635 1.4354 14.9489 2.38764 15.5167L14.5181 22.7501C15.4461 23.3034 15.4476 24.6468 14.521 25.2023L2.39054 32.4746Z" fill="#fafafa"/>
<path d="M24.7488 18.4334C25.1482 18.698 25.3883 19.1452 25.3883 19.6243V28.3087C25.3883 28.7869 25.149 29.2334 24.7508 29.4983L0.867518 45.3819C-0.310098 46.1651 0.244352 48 1.65862 48H16.3886C16.6679 48 16.9412 47.9181 17.1745 47.7644L36.5933 34.9711C36.9945 34.7068 37.236 34.2585 37.236 33.7781V14.229C37.236 13.7448 36.9906 13.2935 36.5842 13.0301L16.8284 0.229666C16.5971 0.0797621 16.3273 -2.59446e-07 16.0516 0L1.67335 1.35319e-05C0.257855 1.48641e-05 -0.295705 1.83753 0.884238 2.61943L24.7488 18.4334Z" fill="#fafafa"/>
<path d="M67.296 10.62V17.46C67.316 17.9 67.426 18.23 67.626 18.45C67.846 18.65 68.176 18.78 68.616 18.84L68.526 21.33C66.786 21.33 65.456 20.96 64.536 20.22C62.976 20.96 61.366 21.33 59.706 21.33C56.726 21.33 55.236 19.74 55.236 16.56C55.236 15.04 55.636 13.94 56.436 13.26C57.236 12.58 58.486 12.17 60.186 12.03L64.056 11.7V10.62C64.056 9.82 63.876 9.26 63.516 8.94C63.176 8.62 62.666 8.46 61.986 8.46C61.346 8.46 60.626 8.48 59.826 8.52C59.026 8.56 58.146 8.62 57.186 8.7L56.226 8.76L56.106 6.45C58.346 5.93 60.356 5.67 62.136 5.67C63.976 5.67 65.296 6.06 66.096 6.84C66.896 7.62 67.296 8.88 67.296 10.62ZM64.056 14.01L60.576 14.34C59.196 14.46 58.506 15.21 58.506 16.59C58.506 17.97 59.116 18.66 60.336 18.66C61.376 18.66 62.436 18.5 63.516 18.18L64.056 18V14.01Z" fill="#fafafa"/>
<path d="M74.671 9.36V21H71.401V6H74.641V6.93C76.121 6.09 77.501 5.67 78.781 5.67C79.781 5.67 80.611 5.81 81.271 6.09C81.931 6.35 82.461 6.78 82.861 7.38C83.261 7.96 83.541 8.71 83.701 9.63C83.881 10.55 83.971 11.66 83.971 12.96V21H80.731V13.05C80.731 12.23 80.691 11.54 80.611 10.98C80.531 10.42 80.391 9.96 80.191 9.6C80.011 9.24 79.741 8.98 79.381 8.82C79.041 8.66 78.601 8.58 78.061 8.58C77.061 8.58 76.081 8.78 75.121 9.18L74.671 9.36Z" fill="#fafafa"/>
<path d="M91.048 21V6H87.778V21H91.048ZM91.048 3.45V0H87.778V3.45H91.048Z" fill="#fafafa"/>
<path d="M98.2843 9.36V21H95.0143V6H98.2543V6.93C99.6743 6.09 100.974 5.67 102.154 5.67C103.894 5.67 105.164 6.16 105.964 7.14C107.784 6.16 109.594 5.67 111.394 5.67C112.294 5.67 113.054 5.8 113.674 6.06C114.314 6.32 114.824 6.75 115.204 7.35C115.604 7.93 115.884 8.68 116.044 9.6C116.224 10.52 116.314 11.64 116.314 12.96V21H113.074V13.05C113.074 11.43 112.904 10.28 112.564 9.6C112.244 8.92 111.564 8.58 110.524 8.58C109.664 8.58 108.694 8.78 107.614 9.18L107.104 9.39C107.264 9.81 107.344 11.09 107.344 13.23V21H104.104V13.29C104.104 12.39 104.064 11.64 103.984 11.04C103.924 10.44 103.804 9.96 103.624 9.6C103.444 9.24 103.184 8.98 102.844 8.82C102.504 8.66 102.064 8.58 101.524 8.58C100.564 8.58 99.6343 8.78 98.7343 9.18L98.2843 9.36Z" fill="#fafafa"/>
<path d="M130.831 18.3L131.671 18.21L131.731 20.64C130.591 20.86 129.521 21.03 128.521 21.15C127.521 21.27 126.571 21.33 125.671 21.33C123.451 21.33 121.851 20.72 120.871 19.5C119.911 18.28 119.431 16.33 119.431 13.65C119.431 8.33 121.601 5.67 125.941 5.67C130.141 5.67 132.241 7.96 132.241 12.54L132.031 14.88H122.731C122.751 16.12 123.021 17.03 123.541 17.61C124.061 18.19 125.031 18.48 126.451 18.48C127.871 18.48 129.331 18.42 130.831 18.3ZM122.701 12.36H129.031C129.031 10.86 128.801 9.82 128.341 9.24C127.881 8.66 127.081 8.37 125.941 8.37C124.801 8.37 123.981 8.68 123.481 9.3C122.981 9.9 122.721 10.92 122.701 12.36Z" fill="#fafafa"/>
<path d="M62.166 37.704V42.312C62.202 42.756 62.55 43.02 63.21 43.104L63.156 44.166C62.208 44.166 61.494 43.926 61.014 43.446C59.946 43.926 58.866 44.166 57.774 44.166C56.946 44.166 56.316 43.932 55.884 43.464C55.452 42.996 55.236 42.324 55.236 41.448C55.236 40.572 55.458 39.93 55.902 39.522C56.346 39.102 57.042 38.844 57.99 38.748L60.816 38.478V37.704C60.816 37.092 60.684 36.654 60.42 36.39C60.156 36.126 59.796 35.994 59.34 35.994C58.86 35.994 58.368 36.012 57.864 36.048C57.372 36.072 56.868 36.114 56.352 36.174L55.794 36.228L55.74 35.202C57.024 34.938 58.194 34.806 59.25 34.806C60.27 34.806 61.008 35.04 61.464 35.508C61.932 35.964 62.166 36.696 62.166 37.704ZM56.622 41.376C56.622 42.48 57.078 43.032 57.99 43.032C58.794 43.032 59.598 42.894 60.402 42.618L60.816 42.474V39.504L58.152 39.756C57.612 39.804 57.222 39.96 56.982 40.224C56.742 40.488 56.622 40.872 56.622 41.376Z" fill="#71717a"/>
<path d="M69.4915 34.986V36.156H66.6295V40.458C66.6295 41.502 66.7075 42.18 66.8635 42.492C67.0075 42.816 67.3615 42.978 67.9255 42.978L69.5275 42.87L69.6175 43.986C69.2095 44.046 68.8495 44.094 68.5375 44.13C68.2375 44.166 67.9855 44.184 67.7815 44.184C67.3135 44.184 66.9175 44.13 66.5935 44.022C66.2815 43.926 66.0295 43.752 65.8375 43.5C65.6455 43.248 65.5075 42.912 65.4235 42.492C65.3395 42.072 65.2975 41.538 65.2975 40.89V36.156H64.0195V34.986H65.2975V32.232H66.6295V34.986H69.4915Z" fill="#71717a"/>
<path d="M75.1132 43.752V34.986H76.4452V43.77C76.4452 44.322 76.4032 44.796 76.3192 45.192C76.2352 45.588 76.0792 45.942 75.8512 46.254C75.6232 46.566 75.3172 46.86 74.9332 47.136C74.5492 47.412 74.0572 47.7 73.4572 48L72.9172 46.956C73.3852 46.692 73.7632 46.452 74.0512 46.236C74.3392 46.02 74.5612 45.798 74.7172 45.57C74.8732 45.342 74.9752 45.084 75.0232 44.796C75.0832 44.52 75.1132 44.172 75.1132 43.752ZM76.4452 32.952H75.1132V31.386H76.4452V32.952Z" fill="#71717a"/>
<path d="M78.6367 39.468C78.6367 38.64 78.7027 37.932 78.8347 37.344C78.9787 36.756 79.2067 36.276 79.5187 35.904C79.8307 35.52 80.2327 35.244 80.7247 35.076C81.2167 34.896 81.8107 34.806 82.5067 34.806C83.2027 34.806 83.7907 34.896 84.2707 35.076C84.7627 35.244 85.1587 35.52 85.4587 35.904C85.7707 36.276 85.9927 36.756 86.1247 37.344C86.2687 37.932 86.3407 38.64 86.3407 39.468C86.3407 40.296 86.2747 41.004 86.1427 41.592C86.0227 42.18 85.8127 42.666 85.5127 43.05C85.2127 43.434 84.8167 43.716 84.3247 43.896C83.8327 44.076 83.2207 44.166 82.4887 44.166C81.7567 44.166 81.1447 44.076 80.6527 43.896C80.1607 43.716 79.7647 43.434 79.4647 43.05C79.1647 42.666 78.9487 42.18 78.8167 41.592C78.6967 41.004 78.6367 40.296 78.6367 39.468ZM80.0227 39.432C80.0227 40.092 80.0527 40.65 80.1127 41.106C80.1847 41.55 80.3107 41.916 80.4907 42.204C80.6827 42.48 80.9407 42.684 81.2647 42.816C81.5887 42.936 82.0027 42.996 82.5067 42.996C83.0107 42.996 83.4187 42.936 83.7307 42.816C84.0547 42.696 84.3067 42.498 84.4867 42.222C84.6667 41.934 84.7867 41.568 84.8467 41.124C84.9187 40.668 84.9547 40.11 84.9547 39.45C84.9547 38.79 84.9127 38.238 84.8287 37.794C84.7567 37.35 84.6247 36.996 84.4327 36.732C84.2407 36.456 83.9887 36.264 83.6767 36.156C83.3647 36.036 82.9747 35.976 82.5067 35.976C82.0387 35.976 81.6427 36.036 81.3187 36.156C81.0067 36.264 80.7547 36.456 80.5627 36.732C80.3707 36.996 80.2327 37.35 80.1487 37.794C80.0647 38.226 80.0227 38.772 80.0227 39.432Z" fill="#71717a"/>
<path d="M94.1584 42.294V34.986H95.5084V43.986H94.1584V43.356C93.2584 43.896 92.3704 44.166 91.4944 44.166C90.8824 44.166 90.3784 44.094 89.9824 43.95C89.5864 43.806 89.2744 43.56 89.0464 43.212C88.8304 42.864 88.6744 42.408 88.5784 41.844C88.4944 41.268 88.4524 40.548 88.4524 39.684V34.986H89.8024V39.666C89.8024 40.314 89.8264 40.854 89.8744 41.286C89.9224 41.706 90.0124 42.042 90.1444 42.294C90.2764 42.546 90.4684 42.72 90.7204 42.816C90.9724 42.912 91.2964 42.96 91.6924 42.96C92.0884 42.96 92.4904 42.906 92.8984 42.798C93.3064 42.678 93.6184 42.564 93.8344 42.456L94.1584 42.294Z" fill="#71717a"/>
<path d="M99.5629 43.986V31.062H98.2129V43.986H99.5629Z" fill="#71717a"/>
<path d="M108.391 42.87L108.913 42.816L108.949 43.878C108.265 43.974 107.629 44.046 107.041 44.094C106.465 44.142 105.931 44.166 105.439 44.166C104.143 44.166 103.225 43.794 102.685 43.05C102.145 42.294 101.875 41.124 101.875 39.54C101.875 36.384 103.129 34.806 105.637 34.806C106.861 34.806 107.767 35.148 108.355 35.832C108.955 36.504 109.255 37.566 109.255 39.018L109.183 40.044H103.243C103.243 41.052 103.423 41.796 103.783 42.276C104.143 42.744 104.773 42.978 105.673 42.978C106.573 42.978 107.479 42.942 108.391 42.87ZM103.225 38.964H107.905C107.905 37.86 107.725 37.08 107.365 36.624C107.017 36.168 106.447 35.94 105.655 35.94C104.851 35.94 104.245 36.18 103.837 36.66C103.441 37.14 103.237 37.908 103.225 38.964Z" fill="#71717a"/>
<path d="M113.051 43.986H115.751L118.289 34.986H116.903L114.725 42.816H114.059L111.953 34.986H110.513L113.051 43.986Z" fill="#71717a"/>
<path d="M121.411 43.986V41.934H119.935V43.986H121.411Z" fill="#71717a"/>
<path d="M129.49 31.062H130.822V43.986H129.49V43.374C128.566 43.902 127.654 44.166 126.754 44.166C126.07 44.166 125.518 44.046 125.098 43.806C124.678 43.566 124.348 43.242 124.108 42.834C123.88 42.426 123.724 41.958 123.64 41.43C123.556 40.89 123.514 40.326 123.514 39.738C123.514 37.986 123.802 36.726 124.378 35.958C124.966 35.19 125.932 34.806 127.276 34.806C128.008 34.806 128.746 34.884 129.49 35.04V31.062ZM126.988 42.96C127.156 42.96 127.336 42.948 127.528 42.924C127.732 42.888 127.93 42.846 128.122 42.798C128.326 42.738 128.512 42.678 128.68 42.618C128.86 42.558 129.01 42.504 129.13 42.456L129.49 42.294V36.192C128.722 36.048 128.008 35.976 127.348 35.976C126.436 35.976 125.8 36.264 125.44 36.84C125.08 37.416 124.9 38.322 124.9 39.558C124.9 39.942 124.918 40.338 124.954 40.746C124.99 41.142 125.074 41.508 125.206 41.844C125.35 42.168 125.56 42.438 125.836 42.654C126.124 42.858 126.508 42.96 126.988 42.96Z" fill="#71717a"/>
<path d="M139.557 42.87L140.079 42.816L140.115 43.878C139.431 43.974 138.795 44.046 138.207 44.094C137.631 44.142 137.097 44.166 136.605 44.166C135.309 44.166 134.391 43.794 133.851 43.05C133.311 42.294 133.041 41.124 133.041 39.54C133.041 36.384 134.295 34.806 136.803 34.806C138.027 34.806 138.933 35.148 139.521 35.832C140.121 36.504 140.421 37.566 140.421 39.018L140.349 40.044H134.409C134.409 41.052 134.589 41.796 134.949 42.276C135.309 42.744 135.939 42.978 136.839 42.978C137.739 42.978 138.645 42.942 139.557 42.87ZM134.391 38.964H139.071C139.071 37.86 138.891 37.08 138.531 36.624C138.183 36.168 137.613 35.94 136.821 35.94C136.017 35.94 135.411 36.18 135.003 36.66C134.607 37.14 134.403 37.908 134.391 38.964Z" fill="#71717a"/>
<path d="M144.217 43.986H146.917L149.455 34.986H148.069L145.891 42.816H145.225L143.119 34.986H141.679L144.217 43.986Z" fill="#71717a"/>
</svg>
