<svg width="256" height="256" viewBox="0 0 256 256" fill="none" xmlns="http://www.w3.org/2000/svg">
  <style>
    path { fill: #1C1917; }
    @media (prefers-color-scheme: dark) {
      path { fill: #F5F5F4; }
    }
  </style>
  <path d="M40.8472 173.198C35.7689 176.242 29.3105 172.584 29.3105 166.663V89.2996C29.3105 83.3867 35.7531 79.7273 40.8317 82.7557L105.528 121.334C110.477 124.285 110.485 131.45 105.543 134.412L40.8472 173.198Z" />
  <path d="M160.091 98.3116C162.221 99.7229 163.502 102.108 163.502 104.663V150.98C163.502 153.53 162.226 155.912 160.102 157.324L32.7244 242.037C26.4438 246.214 29.4009 256 36.9436 256H115.503C116.993 256 118.451 255.563 119.695 254.743L223.262 186.512C225.402 185.103 226.689 182.712 226.689 180.15V75.8882C226.689 73.3054 225.381 70.8985 223.213 69.4941L117.849 1.22488C116.615 0.425398 115.177 -1.38371e-06 113.706 0L37.0222 7.21702e-05C29.4729 7.92751e-05 26.5206 9.80018 32.8136 13.9703L160.091 98.3116Z" />
</svg>
